<svg width="14" height="15" viewBox="0 0 14 15" fill="none" xmlns="http://www.w3.org/2000/svg">
<g id="Group">
<g id="Vector">
<path d="M3.1709 0.5H10.8439V4.0414L9.15823 5.05306C8.77246 5.28469 8.45322 5.61223 8.23158 6.00383C8.00994 6.39542 7.89345 6.83772 7.89345 7.28769C7.89345 7.73766 8.00994 8.17996 8.23158 8.57155C8.45322 8.96315 8.77246 9.29069 9.15823 9.52232L10.8439 10.534V14.0754H3.1709V10.534L4.85661 9.52232C5.24252 9.2908 5.5619 8.9633 5.78365 8.57169C6.00539 8.18008 6.12194 7.73772 6.12194 7.28769C6.12194 6.83766 6.00539 6.3953 5.78365 6.00369C5.5619 5.61208 5.24252 5.28457 4.85661 5.05306L3.1709 4.0414V0.5Z" fill="#369C1D"/>
<path d="M1.69531 0.5H12.3195M1.69531 14.0754H12.3195M3.1709 14.0754V10.534L4.85661 9.52231C5.24252 9.2908 5.5619 8.9633 5.78365 8.57169C6.00539 8.18008 6.12194 7.73772 6.12194 7.28769C6.12194 6.83766 6.00539 6.3953 5.78365 6.00369C5.5619 5.61208 5.24252 5.28457 4.85661 5.05306L3.1709 4.0414V0.5H10.8439V4.0414L9.15823 5.05306C8.77246 5.28469 8.45322 5.61223 8.23158 6.00383C8.00994 6.39542 7.89345 6.83772 7.89345 7.28769C7.89345 7.73766 8.00994 8.17996 8.23158 8.57155C8.45322 8.96315 8.77246 9.29069 9.15823 9.52231L10.8439 10.534V14.0754H3.1709Z" stroke="#369C1D"/>
</g>
</g>
</svg>
