<?xml version="1.0" standalone="no"?>
<!DOCTYPE svg PUBLIC "-//W3C//DTD SVG 1.1//EN" "http://www.w3.org/Graphics/SVG/1.1/DTD/svg11.dtd" >
<svg>
<metadata>
Created by FontForge 20120731 at Thu Aug 10 11:20:56 2023
 By www
Copyright (c) 2017 Newlyn Works Limited. All rights reserved.
</metadata>
<defs>
<font id="MTNBrighterSans-Light" horiz-adv-x="610" >
  <font-face 
    font-family="MTN Brighter Sans Light"
    font-weight="300"
    font-stretch="normal"
    units-per-em="1000"
    panose-1="0 0 4 0 0 0 0 0 0 0"
    ascent="800"
    descent="-200"
    x-height="473"
    cap-height="658"
    bbox="-121 -230 2524 899"
    underline-thickness="50"
    underline-position="-100"
    unicode-range="U+000D-25CA"
  />
<missing-glyph horiz-adv-x="724" 
d="M137 0q-11 0 -18.5 7t-7.5 19v607q0 12 7.5 18.5t18.5 6.5h450q11 0 18.5 -7t7.5 -19v-607q0 -12 -7.5 -18.5t-18.5 -6.5h-450zM558 56v546h-392v-546h392z" />
    <glyph glyph-name="Y_e_l_l_o" unicode="Y&#x27;ello" horiz-adv-x="2564" 
d="M1539 674l179 35l-126 -709h-172zM1793 674l179 35l-126 -709h-172zM512 658h175l-221 -387q-63 -110 -126.5 -173t-166.5 -115l-104 114q102 42 182 119l-150 442h185l78 -279zM934 656l-13 -75q-27 -158 -151 -262l-96 65q56 79 78 197l14 75h168zM1396 317
q0 -61 -34 -123h-332q15 -83 120 -83q89 0 166 41l49 -92q-112 -82 -249 -82q-116 0 -187.5 63t-71.5 167q0 121 94 208.5t225 87.5q99 0 159.5 -52t60.5 -135zM2268 504q114 0 185 -64.5t71 -165.5q0 -120 -92.5 -208t-228.5 -88q-113 0 -184.5 64.5t-71.5 167.5
q0 119 92 206.5t229 87.5zM1247 307v8q0 33 -22.5 53t-60.5 20q-39 0 -70.5 -21.5t-48.5 -59.5h202zM2212 107q58 0 95 46.5t37 117.5q0 106 -87 106q-58 0 -94 -46t-36 -117q0 -107 85 -107z" />
    <glyph glyph-name=".notdef" horiz-adv-x="724" 
d="M137 0q-11 0 -18.5 7t-7.5 19v607q0 12 7.5 18.5t18.5 6.5h450q11 0 18.5 -7t7.5 -19v-607q0 -12 -7.5 -18.5t-18.5 -6.5h-450zM558 56v546h-392v-546h392z" />
    <glyph glyph-name=".null" horiz-adv-x="0" 
 />
    <glyph glyph-name="nonmarkingreturn" horiz-adv-x="333" 
 />
    <glyph glyph-name="CR" unicode="&#xd;" horiz-adv-x="273" 
 />
    <glyph glyph-name="space" unicode=" " horiz-adv-x="273" 
 />
    <glyph glyph-name="exclam" unicode="!" horiz-adv-x="286" 
d="M177 194h-68l-7 464h82zM142 -7q-23 0 -39.5 16.5t-16.5 38.5q0 24 16.5 40.5t39.5 16.5q25 0 41.5 -16.5t16.5 -40.5q0 -22 -17 -38.5t-41 -16.5z" />
    <glyph glyph-name="quotedbl" unicode="&#x22;" horiz-adv-x="350" 
d="M73 658h63l-10 -220h-43zM214 658h63l-10 -220h-43z" />
    <glyph glyph-name="numbersign" unicode="#" 
d="M602 403h-127l-41 -148h113v-59h-130l-55 -196h-64l55 196h-172l-55 -196h-63l55 196h-110v59h127l41 148h-112v59h129l55 196h63l-55 -196h172l55 196h64l-55 -196h110v-59zM370 255l41 148h-172l-41 -148h172z" />
    <glyph glyph-name="dollar" unicode="$" 
d="M560 179q0 -80 -56.5 -127t-153.5 -52v-114h-64v116q-72 8 -135.5 36t-103.5 65l34 51q85 -76 208 -89v234q-51 12 -85 23.5t-67 31t-49.5 49.5t-16.5 71q0 78 57 126.5t158 52.5v114h64v-117q104 -11 182 -69v-75q-83 70 -184 82v-227q48 -11 81 -23t65.5 -32.5t49 -52
t16.5 -74.5zM138 482q0 -47 37 -69t114 -39v217q-70 -3 -110.5 -32t-40.5 -77zM348 62q69 3 107 32.5t38 80.5q0 47 -34.5 70t-110.5 41v-224z" />
    <glyph glyph-name="percent" unicode="%" horiz-adv-x="793" 
d="M195 302q-64 0 -105.5 48t-41.5 133q0 88 44 138t107 50q64 0 105.5 -48t41.5 -135q0 -86 -44 -136t-107 -50zM112 0l495 658h69l-496 -658h-68zM196 353q41 0 66 36t25 96q0 63 -24 99t-65 36t-66 -37t-25 -97q0 -61 24 -97t65 -36zM594 -13q-64 0 -105.5 48t-41.5 134
q0 87 44 137t107 50q64 0 105.5 -48t41.5 -134q0 -87 -44 -137t-107 -50zM595 38q41 0 66 36.5t25 96.5q0 62 -24 98t-65 36t-66 -36.5t-25 -96.5q0 -62 24 -98t65 -36z" />
    <glyph glyph-name="ampersand" unicode="&#x26;" horiz-adv-x="707" 
d="M659 24l-50 -51l-108 106q-105 -92 -232 -92q-87 0 -144 44t-57 123q0 61 37.5 108t114.5 89q-84 87 -84 160q0 68 50 113.5t127 45.5q73 0 120 -41.5t47 -104.5q0 -58 -41 -100.5t-111 -80.5l177 -171q77 101 80 227h66q-2 -151 -101 -270zM310 609q-45 0 -74 -27
t-29 -69q0 -32 18.5 -60.5t59.5 -69.5q59 32 91.5 64.5t32.5 73.5q0 39 -27.5 63.5t-71.5 24.5zM275 49q100 0 182 72l-195 190q-66 -38 -93.5 -73.5t-27.5 -77.5q0 -52 36 -81.5t98 -29.5z" />
    <glyph glyph-name="quotesingle" unicode="'" horiz-adv-x="209" 
d="M73 658h63l-10 -220h-43z" />
    <glyph glyph-name="parenleft" unicode="(" horiz-adv-x="322" 
d="M254 -128q-199 158 -199 424q0 267 202 427l44 -44q-178 -144 -178 -382q0 -236 176 -382z" />
    <glyph glyph-name="parenright" unicode=")" horiz-adv-x="322" 
d="M68 719q199 -158 199 -424q0 -267 -202 -427l-44 44q178 144 178 382q0 236 -176 382z" />
    <glyph glyph-name="asterisk" unicode="*" horiz-adv-x="525" 
d="M108 307l115 137l-171 43l22 66l163 -61l-10 173h71l-10 -173l163 60l22 -65l-171 -43l115 -137l-56 -42l-98 149l-100 -149z" />
    <glyph glyph-name="plus" unicode="+" 
d="M547 336v-66h-207v-206h-70v206h-207v66h207v202h70v-202h207z" />
    <glyph glyph-name="comma" unicode="," horiz-adv-x="237" 
d="M75 -147l-45 31q53 69 53 181v43h73v-44q0 -122 -81 -211z" />
    <glyph glyph-name="hyphen" unicode="-" horiz-adv-x="451" 
d="M76 223v63h299v-63h-299z" />
    <glyph glyph-name="period" unicode="." horiz-adv-x="251" 
d="M125 -7q-24 0 -40.5 17.5t-16.5 40.5q0 25 16.5 42t40.5 17q25 0 41.5 -17t16.5 -42q0 -23 -17 -40.5t-41 -17.5z" />
    <glyph glyph-name="slash" unicode="/" horiz-adv-x="408" 
d="M37 -30l267 731h67l-266 -731h-68z" />
    <glyph glyph-name="zero" unicode="0" 
d="M303 -10q-108 0 -180.5 89t-72.5 245t73.5 250t183.5 94q109 0 181 -89.5t72 -245.5q0 -155 -73.5 -249t-183.5 -94zM305 53q78 0 129 76.5t51 197.5q0 125 -50 201.5t-130 76.5q-78 0 -129 -77.5t-51 -198.5q0 -124 50 -200t130 -76z" />
    <glyph glyph-name="one" unicode="1" 
d="M378 64h144v-64h-389v64h173v534l-187 -23l-4 57l263 38v-606z" />
    <glyph glyph-name="two" unicode="2" 
d="M173 63q122 3 359 3v-65l-457 -1v58q218 190 284.5 269.5t66.5 149.5q0 56 -36.5 91t-94.5 35q-97 0 -171 -89l-39 43q91 111 217 111q88 0 144.5 -52t56.5 -134q0 -38 -14.5 -75.5t-36 -69.5t-69.5 -80.5t-89 -86t-121 -107.5z" />
    <glyph glyph-name="three" unicode="3" 
d="M397 348q64 -20 100.5 -63t36.5 -104q0 -87 -70.5 -140t-181.5 -53q-118 0 -210 59v71q94 -67 206 -67q78 0 129.5 35.5t51.5 97.5q0 61 -51.5 94.5t-140.5 33.5h-80v60h88q72 0 119 34t47 87q0 49 -42.5 81t-107.5 32q-102 0 -194 -79l-32 47q44 42 105 68t129 26
q94 0 155 -46.5t61 -120.5q0 -52 -32 -92t-86 -61z" />
    <glyph glyph-name="four" unicode="4" 
d="M570 215v-61h-127v-154h-70v154h-340v54l344 452h66v-445h127zM373 215l3 347l-264 -347h261z" />
    <glyph glyph-name="five" unicode="5" 
d="M311 401q101 0 163.5 -53.5t62.5 -140.5q0 -93 -70.5 -155.5t-184.5 -62.5q-119 0 -205 60v73q83 -68 202 -68q79 0 130.5 41t51.5 107q0 64 -44.5 100t-122.5 36q-91 0 -159 -45l-36 27l34 338l378 -1v-63l-321 1l-26 -233q63 39 147 39z" />
    <glyph glyph-name="six" unicode="6" 
d="M335 425q93 0 153 -58t60 -150q0 -98 -64.5 -162.5t-166.5 -64.5q-109 0 -176.5 80t-67.5 238q0 161 79.5 260.5t207.5 99.5q74 0 140 -35v-68q-58 42 -133 42q-95 0 -154 -73.5t-65 -198.5q74 90 187 90zM318 51q70 0 113 45.5t43 113.5t-42 111.5t-109 43.5
q-109 0 -175 -96q7 -110 52 -164t118 -54z" />
    <glyph glyph-name="seven" unicode="7" 
d="M532 658v-57l-291 -601h-81l296 593q-127 -2 -374 -2v67h450z" />
    <glyph glyph-name="eight" unicode="8" 
d="M396 340q160 -49 160 -172q0 -80 -69.5 -130t-181.5 -50t-181.5 49t-69.5 128q0 120 159 174q-138 51 -138 159q0 77 63.5 124.5t166.5 47.5t167 -47.5t64 -123.5q0 -108 -140 -159zM148 494q0 -93 160 -130q155 35 155 130q0 52 -43.5 83.5t-114.5 31.5t-114 -31.5
t-43 -83.5zM305 49q79 0 127.5 33.5t48.5 88.5q0 103 -177 143q-175 -37 -175 -143q0 -55 48.5 -88.5t127.5 -33.5z" />
    <glyph glyph-name="nine" unicode="9" 
d="M294 668q109 0 176 -83.5t67 -243.5q0 -164 -75.5 -257.5t-200.5 -93.5q-82 0 -169 38v69q79 -46 161 -46q98 0 152 69.5t58 201.5q-70 -85 -186 -85q-92 0 -151.5 57t-59.5 146q0 98 65 163t163 65zM289 296q111 0 173 90q-7 110 -51.5 165.5t-117.5 55.5
q-68 0 -110.5 -45.5t-42.5 -114.5q0 -67 41.5 -109t107.5 -42z" />
    <glyph glyph-name="colon" unicode=":" horiz-adv-x="268" 
d="M132 334q-24 0 -40.5 17.5t-16.5 40.5q0 25 16.5 42t40.5 17q25 0 41.5 -17t16.5 -42q0 -23 -17 -40.5t-41 -17.5zM135 -7q-24 0 -40.5 17.5t-16.5 40.5q0 25 16.5 42t40.5 17q25 0 41.5 -17t16.5 -42q0 -23 -17 -40.5t-41 -17.5z" />
    <glyph glyph-name="semicolon" unicode=";" horiz-adv-x="277" 
d="M139 334q-24 0 -40.5 17.5t-16.5 40.5q0 25 16.5 42t40.5 17q25 0 41.5 -17t16.5 -42q0 -23 -17 -40.5t-41 -17.5zM103 -146l-45 31q53 69 53 181v43h73v-44q0 -122 -81 -211z" />
    <glyph glyph-name="less" unicode="&#x3c;" 
d="M483 537v-74l-323 -160l323 -160v-74l-400 209v51z" />
    <glyph glyph-name="equal" unicode="=" 
d="M73 375v65h464v-65h-464zM73 166v65h464v-65h-464z" />
    <glyph glyph-name="greater" unicode="&#x3e;" 
d="M127 537l400 -208v-51l-400 -209v74l323 160l-323 160v74z" />
    <glyph glyph-name="question" unicode="?" horiz-adv-x="508" 
d="M194 194q-4 13 -4 30q0 35 20.5 65.5t49.5 52.5t58 44.5t49.5 53t20.5 65.5q0 46 -36.5 74t-98.5 28q-100 0 -189 -76l-33 46q100 94 228 94q87 0 145.5 -44t58.5 -118q0 -45 -21 -82.5t-51 -62.5t-60 -47.5t-51 -48t-21 -52.5q0 -8 2 -22h-67zM229 -7q-24 0 -40.5 16.5
t-16.5 39.5t16.5 39.5t40.5 16.5q23 0 39.5 -16.5t16.5 -39.5t-16.5 -39.5t-39.5 -16.5z" />
    <glyph glyph-name="at" unicode="@" horiz-adv-x="885" 
d="M825 315q1 -122 -52.5 -197.5t-126.5 -75.5q-76 0 -87 79q-67 -82 -162 -82q-72 0 -117.5 46t-45.5 126q0 96 64 163t154 67t144 -56l4 20l63 14l-45 -249q-3 -18 -3 -27q0 -42 38 -42q43 0 76 63t32 149q0 118 -75 184.5t-197 66.5q-155 0 -261 -105.5t-106 -260.5
q0 -131 71.5 -201t207.5 -70q88 0 170 36l22 -52q-86 -44 -199 -44q-152 0 -245.5 83t-93.5 246q0 178 125 302.5t313 124.5q146 0 238.5 -80.5t93.5 -227.5zM410 95q79 0 148 86l24 127q-43 80 -131 80q-64 0 -109 -49.5t-45 -121.5q0 -58 30 -90t83 -32z" />
    <glyph glyph-name="A" unicode="A" horiz-adv-x="695" 
d="M590 0l-78 180h-334l-78 -180h-72l287 658h65l287 -658h-77zM205 243h280l-140 324z" />
    <glyph glyph-name="B" unicode="B" horiz-adv-x="715" 
d="M522 337q60 -17 92.5 -58.5t32.5 -100.5q0 -85 -62.5 -131.5t-166.5 -46.5h-306v658h279q112 0 172.5 -44.5t60.5 -125.5q0 -110 -102 -151zM384 595h-200v-231h217q68 0 108 29.5t40 85.5q0 116 -165 116zM405 63q82 0 124.5 30.5t42.5 88.5q0 56 -39.5 88.5
t-115.5 32.5h-233v-240h221z" />
    <glyph glyph-name="C" unicode="C" horiz-adv-x="680" 
d="M385 55q124 0 228 101l36 -47q-117 -122 -272 -122q-141 0 -228.5 93t-87.5 243q0 154 90.5 251t234.5 97q126 0 221 -70v-80q-92 84 -219 84q-112 0 -181 -76.5t-69 -199.5q0 -122 68.5 -198t178.5 -76z" />
    <glyph glyph-name="D" unicode="D" horiz-adv-x="749" 
d="M112 0v658h244q144 0 238.5 -91t94.5 -231q0 -145 -95 -240.5t-237 -95.5h-245zM185 64h173q109 0 181.5 74.5t72.5 189.5q0 116 -74 191t-186 75h-167v-530z" />
    <glyph glyph-name="E" unicode="E" horiz-adv-x="645" 
d="M185 63h406v-63h-479v658h470v-63h-397v-232h344v-63h-344v-237z" />
    <glyph glyph-name="F" unicode="F" horiz-adv-x="613" 
d="M112 0v658h466v-63h-393v-254h342v-63h-342v-278h-73z" />
    <glyph glyph-name="G" unicode="G" horiz-adv-x="721" 
d="M582 328h68v-265q-116 -76 -261 -76q-146 0 -237 93.5t-91 244.5q0 153 94 249.5t244 96.5q62 0 124.5 -21t106.5 -57v-80q-100 92 -227 92q-118 0 -191.5 -76.5t-73.5 -200.5q0 -123 71 -199.5t185 -76.5q103 0 188 47v229z" />
    <glyph glyph-name="H" unicode="H" horiz-adv-x="787" 
d="M112 0v658h73v-296l417 1v295h73v-658h-73v299h-417v-299h-73z" />
    <glyph glyph-name="I" unicode="I" horiz-adv-x="296" 
d="M112 0v658l73 -1v-657h-73z" />
    <glyph glyph-name="J" unicode="J" horiz-adv-x="520" 
d="M229 -13q-60 0 -117.5 29t-95.5 76l39 43q33 -37 78 -59.5t91 -22.5q62 0 91 35t29 110v460h73v-466q0 -101 -47.5 -153t-140.5 -52z" />
    <glyph glyph-name="K" unicode="K" horiz-adv-x="695" 
d="M586 0l-239 347l-162 -157v-190h-73v658h73v-383l385 383h97l-269 -261l275 -397h-87z" />
    <glyph glyph-name="L" unicode="L" horiz-adv-x="580" 
d="M112 658h73v-594h377v-64h-450v658z" />
    <glyph glyph-name="M" unicode="M" horiz-adv-x="854" 
d="M675 658h67v-658h-72v538l-218 -320h-49l-224 320v-538h-67v658h67l253 -359z" />
    <glyph glyph-name="N" unicode="N" horiz-adv-x="785" 
d="M606 658h67v-658h-63l-431 545v-545h-67v658h67l427 -540v540z" />
    <glyph glyph-name="O" unicode="O" horiz-adv-x="784" 
d="M388 -13q-142 0 -234.5 95.5t-92.5 240.5q0 151 95 249.5t241 98.5q142 0 234.5 -95t92.5 -240q0 -151 -95 -250t-241 -99zM394 51q111 0 182 78.5t71 198.5q0 121 -72.5 200t-184.5 79q-110 0 -181.5 -78.5t-71.5 -198.5t73 -199.5t184 -79.5z" />
    <glyph glyph-name="P" unicode="P" horiz-adv-x="671" 
d="M375 658q123 0 188.5 -53t65.5 -152t-67 -153.5t-191 -54.5h-186v-245h-73v658h263zM370 308q183 0 183 144q0 143 -183 143h-185v-287h185z" />
    <glyph glyph-name="Q" unicode="Q" horiz-adv-x="796" 
d="M761 -18l-45 -47l-124 118q-86 -66 -204 -66q-142 0 -234.5 95.5t-92.5 240.5q0 151 95 249.5t241 98.5q142 0 234.5 -95t92.5 -240q0 -141 -84 -238zM394 51q85 0 150 49l-94 90l45 46l94 -90q58 75 58 182q0 121 -72.5 200t-184.5 79q-110 0 -181.5 -78.5t-71.5 -198.5
t73 -199.5t184 -79.5z" />
    <glyph glyph-name="R" unicode="R" horiz-adv-x="711" 
d="M660 0h-86l-166 258q-8 -1 -26 -1h-197v-257h-73v658h283q114 0 178.5 -52t64.5 -143q0 -72 -41 -122t-114 -71zM185 320h198q84 0 131.5 36.5t47.5 102.5q0 65 -46 100.5t-127 35.5h-204v-275z" />
    <glyph glyph-name="S" unicode="S" horiz-adv-x="646" 
d="M335 -13q-170 0 -288 105l33 53q113 -94 255 -94q82 0 131 32t49 86q0 50 -38 75t-148 50q-141 33 -197.5 73t-56.5 109q0 88 72.5 141.5t186.5 53.5q131 0 232 -66v-77q-100 79 -229 79q-83 0 -135.5 -32.5t-52.5 -87.5q0 -46 42.5 -70.5t165.5 -53.5q125 -30 178.5 -69
t53.5 -116q0 -86 -69.5 -138.5t-184.5 -52.5z" />
    <glyph glyph-name="T" unicode="T" horiz-adv-x="601" 
d="M264 594h-246v64h565v-64h-246v-594h-73v594z" />
    <glyph glyph-name="U" unicode="U" horiz-adv-x="754" 
d="M377 -11q-129 0 -202.5 74.5t-73.5 195.5v399h73v-400q0 -95 55 -149t150 -54q96 0 151 54t55 149v400h68v-399q0 -122 -73 -196t-203 -74z" />
    <glyph glyph-name="V" unicode="V" horiz-adv-x="682" 
d="M581 658h73l-280 -658h-66l-280 658h78l238 -571z" />
    <glyph glyph-name="W" unicode="W" horiz-adv-x="934" 
d="M828 658h65l-200 -658h-61l-165 542l-164 -542h-62l-200 658h72l163 -562l163 562h62l166 -561z" />
    <glyph glyph-name="X" unicode="X" horiz-adv-x="642" 
d="M619 0h-88l-215 284l-211 -284h-82l253 337l-243 321h87l206 -271l201 271h82l-244 -323z" />
    <glyph glyph-name="Y" unicode="Y" horiz-adv-x="672" 
d="M563 658h80l-271 -379v-279h-72v279l-271 379h85l225 -321z" />
    <glyph glyph-name="Z" unicode="Z" horiz-adv-x="616" 
d="M138 63h433v-63h-525v59l421 536h-411v63h505v-57z" />
    <glyph glyph-name="bracketleft" unicode="[" horiz-adv-x="318" 
d="M283 -67v-60h-178v851h178v-60h-111v-731h111z" />
    <glyph glyph-name="backslash" unicode="\" horiz-adv-x="408" 
d="M371 -30h-68l-266 731h67z" />
    <glyph glyph-name="bracketright" unicode="]" horiz-adv-x="318" 
d="M35 -67h111v731h-111v60h178v-851h-178v60z" />
    <glyph glyph-name="asciicircum" unicode="^" 
d="M512 420h-73l-134 176l-135 -176h-72l180 230h54z" />
    <glyph glyph-name="underscore" unicode="_" horiz-adv-x="441" 
d="M-12 -124v63h465v-63h-465z" />
    <glyph glyph-name="grave" unicode="`" horiz-adv-x="243" 
d="M200 525l-171 125l43 51l157 -141z" />
    <glyph glyph-name="a" unicode="a" horiz-adv-x="611" 
d="M449 466l70 18v-484h-69v69q-73 -79 -181 -79q-91 0 -155 63.5t-64 168.5q0 113 74 186.5t182 73.5q68 0 143 -35v19zM285 51q46 0 90 21.5t74 59.5v244q-73 47 -142 47q-80 0 -132 -54t-52 -141q0 -79 45 -128t117 -49z" />
    <glyph glyph-name="b" unicode="b" horiz-adv-x="611" 
d="M335 483q95 0 160 -65.5t65 -173.5q0 -113 -72.5 -184t-190.5 -71q-102 0 -210 52v631l70 14v-274q75 71 178 71zM300 48q84 0 135.5 52t51.5 139q0 84 -47.5 134.5t-119.5 50.5q-97 0 -163 -78v-264q68 -34 143 -34z" />
    <glyph glyph-name="c" unicode="c" horiz-adv-x="538" 
d="M295 -13q-105 0 -174.5 66t-69.5 174q0 113 74 185.5t181 72.5q100 0 174 -54v-70q-69 64 -168 64q-81 0 -134.5 -54.5t-53.5 -138.5q0 -82 49 -132t129 -50q92 0 172 74l33 -42q-92 -95 -212 -95z" />
    <glyph glyph-name="d" unicode="d" horiz-adv-x="615" 
d="M453 672l70 14v-686h-68v67q-75 -77 -185 -77q-94 0 -157 62.5t-63 168.5q0 114 73 188t183 74q72 0 147 -33v222zM287 51q100 0 166 81v248q-71 44 -147 44q-79 0 -131 -54.5t-52 -141.5q0 -82 46.5 -129.5t117.5 -47.5z" />
    <glyph glyph-name="e" unicode="e" horiz-adv-x="574" 
d="M308 48q95 0 178 74l32 -41q-94 -92 -218 -92q-108 0 -178.5 63.5t-70.5 173.5q0 112 73 185.5t181 73.5q95 0 155.5 -58t60.5 -151q0 -28 -7 -52h-393q3 -81 53.5 -128.5t133.5 -47.5zM306 429q-68 0 -117.5 -41.5t-63.5 -109.5h330q-1 69 -42 110t-107 41z" />
    <glyph glyph-name="f" unicode="f" horiz-adv-x="376" 
d="M279 633q-61 0 -89 -31.5t-28 -103.5v-25h198v-61h-198v-412h-70v497q0 196 181 196q71 0 132 -25v-63q-58 28 -126 28z" />
    <glyph glyph-name="g" unicode="g" horiz-adv-x="601" 
d="M588 473v-63l-142 3q66 -53 66 -135q0 -79 -65 -133t-162 -54q-23 0 -44 3l-101 -177q124 85 247 85q75 0 124 -41.5t54 -140.5l-72 -8q-6 70 -37.5 97.5t-86.5 28.5q-60 1 -134 -26.5t-138 -71.5l-44 32l120 241q-54 24 -85.5 68.5t-31.5 101.5q0 83 64.5 140.5
t160.5 57.5q35 0 69 -8h238zM285 147q68 0 112.5 38t44.5 97q0 61 -46 101.5t-114 40.5q-66 0 -111 -40t-45 -100t45.5 -98.5t113.5 -38.5z" />
    <glyph glyph-name="h" unicode="h" horiz-adv-x="630" 
d="M367 481q80 0 129.5 -49.5t49.5 -152.5v-279h-70v265q0 153 -128 153q-105 0 -186 -112v-306h-70v672l70 14v-307q83 102 205 102z" />
    <glyph glyph-name="i" unicode="i" horiz-adv-x="254" 
d="M126 577q-22 0 -36.5 14.5t-14.5 35.5q0 22 14.5 36.5t36.5 14.5t37 -14.5t15 -36.5q0 -21 -15 -35.5t-37 -14.5zM92 0v467l70 17v-484h-70z" />
    <glyph glyph-name="j" unicode="j" horiz-adv-x="258" 
d="M131 577q-22 0 -36.5 14.5t-14.5 35.5q0 22 14.5 36.5t36.5 14.5q21 0 36.5 -15t15.5 -36t-15.5 -35.5t-36.5 -14.5zM67 -200l-45 33q40 50 57 106.5t17 140.5v387l70 17v-412q0 -167 -99 -272z" />
    <glyph glyph-name="k" unicode="k" horiz-adv-x="567" 
d="M463 0l-190 227l-111 -100v-127h-70v672l70 14v-482l288 269h97l-225 -202l233 -271h-92z" />
    <glyph glyph-name="l" unicode="l" horiz-adv-x="254" 
d="M92 0v672l70 14v-686h-70z" />
    <glyph glyph-name="m" unicode="m" horiz-adv-x="911" 
d="M670 479q71 0 114 -50t43 -153v-276h-70v265q0 151 -103 151q-45 0 -87.5 -29t-73.5 -84q1 -8 1 -27v-276h-70v265q0 151 -103 151q-96 0 -159 -109v-307h-70v467l68 17v-100q73 95 176 95q51 0 89.5 -27t55.5 -83q34 50 83.5 80t105.5 30z" />
    <glyph glyph-name="n" unicode="n" horiz-adv-x="629" 
d="M366 481q80 0 129.5 -49.5t49.5 -152.5v-279h-70v265q0 153 -129 153q-103 0 -184 -110v-308h-70v467l68 17v-109q86 106 206 106z" />
    <glyph glyph-name="o" unicode="o" horiz-adv-x="611" 
d="M304 -13q-108 0 -181 67.5t-73 176.5q0 108 74.5 181t182.5 73t181 -67.5t73 -176.5q0 -108 -75 -181t-182 -73zM309 46q77 0 128 54.5t51 136.5q0 84 -52 137t-134 53q-77 0 -128 -54.5t-51 -136.5q0 -85 51.5 -137.5t134.5 -52.5z" />
    <glyph glyph-name="p" unicode="p" horiz-adv-x="617" 
d="M341 483q94 0 160 -65.5t66 -173.5q0 -113 -74 -184t-187 -71q-71 0 -144 30v-219h-70v667l68 17v-75q76 74 181 74zM309 48q83 0 134 52t51 137q0 83 -48 134t-122 51q-97 0 -162 -77v-254q72 -43 147 -43z" />
    <glyph glyph-name="q" unicode="q" horiz-adv-x="609" 
d="M313 485q103 0 211 -62v-623h-70v264q-74 -74 -180 -74q-94 0 -158.5 62.5t-64.5 168.5q0 115 74.5 189.5t187.5 74.5zM288 51q101 0 166 80v254q-71 41 -144 41q-82 0 -134 -54.5t-52 -141.5q0 -81 45 -130t119 -49z" />
    <glyph glyph-name="r" unicode="r" horiz-adv-x="422" 
d="M349 481q29 0 54 -6v-72q-24 10 -57 10q-56 0 -99.5 -33.5t-84.5 -108.5v-271h-70v467l68 17v-137q74 134 189 134z" />
    <glyph glyph-name="s" unicode="s" horiz-adv-x="526" 
d="M282 -13q-69 0 -133.5 19.5t-106.5 48.5l27 49q39 -27 96.5 -43.5t114.5 -16.5q58 0 93.5 22t35.5 59q0 33 -31 50t-113 31q-113 18 -159.5 48t-46.5 89q0 63 56.5 102.5t147.5 39.5q113 0 195 -47v-65q-72 56 -195 56q-62 0 -99.5 -22t-37.5 -58q0 -31 32 -47.5
t122 -32.5q106 -18 151.5 -47t45.5 -92q0 -65 -53.5 -104t-141.5 -39z" />
    <glyph glyph-name="t" unicode="t" horiz-adv-x="362" 
d="M92 0v632l70 17v-176h184v-60h-184v-413h-70z" />
    <glyph glyph-name="u" unicode="u" horiz-adv-x="620" 
d="M458 466l70 16v-482h-68v94q-81 -102 -200 -102q-81 0 -129.5 49.5t-48.5 152.5v272l70 16v-274q0 -153 125 -153q103 0 181 108v303z" />
    <glyph glyph-name="v" unicode="v" horiz-adv-x="546" 
d="M454 473h70l-216 -473h-70l-216 473h75l179 -398z" />
    <glyph glyph-name="w" unicode="w" horiz-adv-x="784" 
d="M687 473h68l-165 -473h-68l-132 378l-127 -378h-68l-165 473h72l130 -396l130 396h66l131 -396z" />
    <glyph glyph-name="x" unicode="x" horiz-adv-x="532" 
d="M513 0h-86l-165 196l-161 -196h-83l204 244l-193 229h87l155 -184l149 184h83l-193 -231z" />
    <glyph glyph-name="y" unicode="y" horiz-adv-x="537" 
d="M445 473h70l-307 -673h-71l99 210l-213 463h75l174 -386z" />
    <glyph glyph-name="z" unicode="z" horiz-adv-x="506" 
d="M138 59h325v-59h-420v56l315 357h-307v60h404v-56z" />
    <glyph glyph-name="braceleft" unicode="{" horiz-adv-x="342" 
d="M288 663q-117 0 -117 -93q0 -27 17 -90t17 -91q0 -30 -19.5 -54t-51.5 -36q32 -12 51.5 -36.5t19.5 -54.5q0 -29 -17 -91.5t-17 -89.5q0 -93 117 -93h19v-59q-8 -1 -26 -1q-83 0 -130 38t-47 104q0 34 17.5 100t17.5 86q0 67 -100 72v49q100 5 100 72q0 20 -17.5 86
t-17.5 99q0 67 47 105t130 38q18 0 26 -1v-59h-19z" />
    <glyph glyph-name="bar" unicode="|" horiz-adv-x="277" 
d="M106 855h65v-1052h-65v1052z" />
    <glyph glyph-name="braceright" unicode="}" horiz-adv-x="342" 
d="M303 273q-100 -5 -100 -72q0 -20 17.5 -86t17.5 -99q0 -67 -47 -105t-130 -38q-18 0 -26 1v59h19q117 0 117 93q0 27 -17 90t-17 91q0 30 19.5 54.5t51.5 36.5q-32 12 -51.5 36t-19.5 54q0 29 17 91.5t17 89.5q0 93 -117 93h-19v59q8 1 26 1q83 0 130 -38t47 -104
q0 -34 -17.5 -100t-17.5 -86q0 -67 100 -72v-49z" />
    <glyph glyph-name="asciitilde" unicode="~" 
d="M419 181q-36 0 -78 23.5t-80 47.5t-64 24q-32 0 -52 -23.5t-27 -58.5l-51 18q7 49 38.5 87t88.5 38q36 0 78 -23.5t79.5 -47.5t64.5 -24q32 0 52 23.5t27 58.5l51 -18q-7 -49 -38.5 -87t-88.5 -38z" />
    <glyph glyph-name="uni00A0" unicode="&#xa0;" horiz-adv-x="273" 
 />
    <glyph glyph-name="exclamdown" unicode="&#xa1;" horiz-adv-x="286" 
d="M200 610q0 -24 -16.5 -40.5t-41.5 -16.5q-23 0 -39.5 16.5t-16.5 40.5q0 22 16.5 38.5t39.5 16.5q24 0 41 -16.5t17 -38.5zM177 464l7 -464h-82l7 464h68z" />
    <glyph glyph-name="cent" unicode="&#xa2;" 
d="M540 81q-74 -74 -168 -89v-116h-64l1 113q-100 6 -163.5 69t-63.5 166q0 104 63.5 175t162.5 84v111h64v-110q80 -8 139 -53v-69q-61 55 -142 62v-370q74 10 137 70zM153 229q0 -74 43 -121.5t115 -55.5v370q-71 -12 -114.5 -65t-43.5 -128z" />
    <glyph glyph-name="sterling" unicode="&#xa3;" 
d="M171 60q121 4 370 4l-1 -64h-455v48q99 90 98 225h-110v59h103q-5 18 -17 52t-19 63t-7 57q0 72 51 119t137 47q111 0 217 -83l-32 -49q-86 68 -176 68q-60 0 -94 -28.5t-34 -80.5q0 -34 19 -92.5t22 -72.5h204v-59h-198q1 -124 -78 -213z" />
    <glyph glyph-name="yen" unicode="&#xa5;" 
d="M612 658l-157 -219h112v-56h-152l-65 -92h217v-56h-226v-235h-72v235h-225v56h216l-65 92h-151v56h111l-157 219h85l225 -321l224 321h80z" />
    <glyph glyph-name="brokenbar" unicode="&#xa6;" horiz-adv-x="277" 
d="M106 433v422h65v-422h-65zM106 -196v421h65v-421h-65z" />
    <glyph glyph-name="section" unicode="&#xa7;" horiz-adv-x="562" 
d="M399 200q84 -32 84 -109q0 -69 -52 -106.5t-140 -37.5q-65 0 -130.5 20.5t-105.5 49.5l27 49q38 -27 94.5 -44t111.5 -17q61 0 95 21.5t34 60.5q0 32 -31.5 49t-110.5 32q-102 19 -152.5 47.5t-50.5 86.5q0 88 102 117q-87 34 -87 110q0 66 55 104t138 38q117 0 199 -52
v-64q-89 58 -196 58q-60 0 -95.5 -22t-35.5 -59q0 -34 32 -49t119 -31q99 -19 147 -48t48 -85q0 -89 -99 -119zM139 312q0 -24 19.5 -39.5t46 -23t84.5 -20.5q4 -1 12 -2.5t12 -2.5q57 4 87.5 26.5t30.5 57.5q0 34 -31 51t-112 32l-30 6q-56 -5 -87.5 -27.5t-31.5 -57.5z
" />
    <glyph glyph-name="dieresis" unicode="&#xa8;" horiz-adv-x="460" 
d="M160 557q-18 0 -31 13.5t-13 31.5t13 31.5t31 13.5q19 0 32 -13.5t13 -31.5t-13 -31.5t-32 -13.5zM318 557q-18 0 -31 13.5t-13 31.5t13 31.5t31 13.5q20 0 32.5 -13t12.5 -32t-12.5 -32t-32.5 -13z" />
    <glyph glyph-name="copyright" unicode="&#xa9;" horiz-adv-x="802" 
d="M401 -13q-142 0 -242 100t-100 242t100 242t242 100q141 0 241 -100t100 -242t-99 -242t-242 -100zM401 33q123 0 208 86.5t85 209.5q0 122 -86 209t-207 87t-207 -87t-86 -209t86 -209t207 -87zM404 146q-76 0 -126.5 48.5t-50.5 127.5q0 84 53 138.5t132 54.5
q67 0 116 -40v-67q-49 51 -112 51q-54 0 -88.5 -38t-34.5 -96q0 -54 32.5 -87.5t84.5 -33.5q62 0 111 52l35 -41q-62 -69 -152 -69z" />
    <glyph glyph-name="ordfeminine" unicode="&#xaa;" horiz-adv-x="503" 
d="M359 633l62 16v-373l-60 -8v53q-56 -56 -134 -56q-71 0 -121.5 50.5t-50.5 133.5q0 88 56.5 144t142.5 56q53 0 105 -23v7zM242 321q73 0 117 59v184q-51 30 -102 30q-61 0 -98.5 -39t-37.5 -101q0 -59 34.5 -96t86.5 -37z" />
    <glyph glyph-name="guillemotleft" unicode="&#xab;" horiz-adv-x="600" 
d="M321 402l-207 -165l207 -164l-36 -42l-238 189v34l238 189zM545 402l-207 -165l207 -164l-36 -42l-238 189v34l238 189z" />
    <glyph glyph-name="logicalnot" unicode="&#xac;" 
d="M453 66v204h-383v66h453v-270h-70z" />
    <glyph glyph-name="registered" unicode="&#xae;" horiz-adv-x="516" 
d="M258 671q83 0 141 -57.5t58 -139.5t-58 -139t-141 -57t-141 57t-58 139t58 139.5t141 57.5zM258 314q67 0 114 47t47 113q0 67 -47 113.5t-114 46.5t-114 -46.5t-47 -113.5q0 -66 47 -113t114 -47zM351 520q0 -44 -48 -61l57 -86h-48l-50 80h-45v-80h-41v212h95
q37 0 58.5 -18t21.5 -47zM217 550v-62h43q48 0 48 31t-45 31h-46z" />
    <glyph glyph-name="macron" unicode="&#xaf;" horiz-adv-x="423" 
d="M74 577v58h274v-58h-274z" />
    <glyph glyph-name="degree" unicode="&#xb0;" horiz-adv-x="425" 
d="M213 353q-67 0 -112.5 45.5t-45.5 110.5q0 66 45.5 111.5t112.5 45.5q66 0 111.5 -45.5t45.5 -111.5q0 -65 -45.5 -110.5t-111.5 -45.5zM213 405q44 0 73.5 30t29.5 74q0 45 -29.5 75t-73.5 30t-74 -30t-30 -75q0 -44 30 -74t74 -30z" />
    <glyph glyph-name="plusminus" unicode="&#xb1;" 
d="M340 341h207v-63h-207v-140h-70v140h-207v63h207v202h70v-202zM63 34v63h484v-63h-484z" />
    <glyph glyph-name="uni00B2" unicode="&#xb2;" horiz-adv-x="453" 
d="M153 286q80 4 232 4v-59l-318 -1v50q134 109 181.5 160t47.5 96q0 33 -20.5 52t-55.5 19q-64 0 -113 -54l-35 39q61 74 158 74q61 0 99 -33.5t38 -87.5q0 -58 -48 -112.5t-166 -146.5z" />
    <glyph glyph-name="uni00B3" unicode="&#xb3;" horiz-adv-x="447" 
d="M298 455q84 -30 84 -107q0 -57 -47.5 -91.5t-122.5 -34.5q-83 0 -145 38v61q62 -41 137 -41q49 0 78 18.5t29 53.5q0 70 -115 70h-52v53h55q46 0 73.5 22.5t27.5 52.5q0 26 -23.5 43t-62.5 17q-65 0 -120 -43l-27 41q67 60 158 60q61 0 102.5 -29.5t41.5 -77.5
q0 -32 -19 -61t-52 -45z" />
    <glyph glyph-name="acute" unicode="&#xb4;" horiz-adv-x="243" 
d="M52 525l-30 35l157 141l43 -51z" />
    <glyph glyph-name="uni00B5" unicode="&#xb5;" horiz-adv-x="647" 
d="M473 466l70 16v-482h-68v113q-34 -58 -83.5 -89.5t-103.5 -31.5q-82 0 -122 57q7 -129 46 -249h-75q-41 138 -41 359v307l70 16v-281q0 -76 33.5 -111.5t89.5 -35.5q108 0 184 129v283z" />
    <glyph glyph-name="paragraph" unicode="&#xb6;" horiz-adv-x="755" 
d="M318 -130q59 68 59 169v196h-98q-110 0 -177.5 55.5t-67.5 152.5q0 98 69 156.5t179 58.5h414v-62h-70v-597h-67v597h-114v-550q0 -134 -83 -212zM105 447q0 -72 47 -111t131 -39h94v299h-94q-82 0 -130 -39.5t-48 -109.5z" />
    <glyph glyph-name="periodcentered" unicode="&#xb7;" horiz-adv-x="261" 
d="M130 207q-24 0 -40.5 17t-16.5 40q0 25 16.5 42t40.5 17q25 0 41.5 -17t16.5 -42q0 -23 -17 -40t-41 -17z" />
    <glyph glyph-name="cedilla" unicode="&#xb8;" horiz-adv-x="336" 
d="M196 -47q34 0 56.5 -19t22.5 -51q0 -42 -32 -67t-87 -25q-57 0 -93 20l14 39q39 -17 79 -17q30 0 48 12t18 33q0 17 -12.5 26t-32.5 9q-24 0 -44 -7l-22 20l27 79h47l-23 -55q16 3 34 3z" />
    <glyph glyph-name="uni00B9" unicode="&#xb9;" horiz-adv-x="402" 
d="M259 288h94v-58h-275v58h114v313l-123 -13l-3 56l193 23v-379z" />
    <glyph glyph-name="ordmasculine" unicode="&#xba;" horiz-adv-x="507" 
d="M251 265q-85 0 -140.5 53t-55.5 135q0 83 57 138.5t144 55.5q86 0 141.5 -53t55.5 -135q0 -84 -57.5 -139t-144.5 -55zM256 319q57 0 94.5 38t37.5 96q0 61 -39 101t-98 40q-57 0 -94.5 -38.5t-37.5 -96.5q0 -59 39.5 -99.5t97.5 -40.5z" />
    <glyph glyph-name="guillemotright" unicode="&#xbb;" horiz-adv-x="600" 
d="M329 254v-34l-238 -189l-36 42l207 164l-207 165l36 41zM315 443l238 -189v-34l-238 -189l-36 42l207 164l-207 165z" />
    <glyph glyph-name="onequarter" unicode="&#xbc;" horiz-adv-x="976" 
d="M64 288h114v313l-123 -13l-3 56l193 23v-379h94v-58h-275v58zM724 658h69l-496 -658h-69zM941 146v-54h-85v-92h-63v92h-223v50l227 288h59v-284h85zM793 146l3 203l-160 -203h157z" />
    <glyph glyph-name="onehalf" unicode="&#xbd;" horiz-adv-x="1002" 
d="M63 288h114v313l-123 -13l-3 56l193 23v-379h94v-58h-275v58zM727 658h69l-496 -658h-69zM725 56q80 4 232 4v-59l-318 -1v50q134 109 181.5 160t47.5 96q0 33 -20.5 52t-55.5 19q-64 0 -113 -54l-35 39q61 74 158 74q61 0 99 -33.5t38 -87.5q0 -58 -48 -112.5
t-166 -146.5z" />
    <glyph glyph-name="threequarters" unicode="&#xbe;" horiz-adv-x="988" 
d="M371 348q0 -57 -47.5 -91.5t-122.5 -34.5q-83 0 -145 38v61q62 -41 137 -41q49 0 78 18.5t29 53.5q0 70 -115 70h-52v53h55q46 0 73.5 22.5t27.5 52.5q0 26 -23.5 43t-62.5 17q-65 0 -120 -43l-27 41q67 60 158 60q61 0 102.5 -29.5t41.5 -77.5q0 -32 -19 -61t-52 -45
q84 -30 84 -107zM733 658h69l-496 -658h-69zM953 146v-54h-85v-92h-63v92h-223v50l227 288h59v-284h85zM805 146l3 203l-160 -203h157z" />
    <glyph glyph-name="questiondown" unicode="&#xbf;" horiz-adv-x="509" 
d="M280 666q24 0 40.5 -16.5t16.5 -39.5t-16.5 -39.5t-40.5 -16.5q-23 0 -39.5 16.5t-16.5 39.5t16.5 39.5t39.5 16.5zM315 465q4 -13 4 -30q0 -35 -20.5 -65.5t-49.5 -52.5t-58 -44.5t-49.5 -53t-20.5 -65.5q0 -46 36.5 -74t98.5 -28q100 0 189 76l33 -46
q-100 -94 -228 -94q-87 0 -145.5 44t-58.5 118q0 45 21 82.5t51 62.5t60 47.5t51 48t21 52.5q0 8 -2 22h67z" />
    <glyph glyph-name="Agrave" unicode="&#xc0;" horiz-adv-x="695" 
d="M427 745l-29 -35l-171 125l43 51zM590 0l-78 180h-334l-78 -180h-72l287 658h65l287 -658h-77zM205 243h280l-140 324z" />
    <glyph glyph-name="Aacute" unicode="&#xc1;" horiz-adv-x="695" 
d="M467 835l-170 -125l-30 35l157 141zM590 0l-78 180h-334l-78 -180h-72l287 658h65l287 -658h-77zM205 243h280l-140 324z" />
    <glyph glyph-name="Acircumflex" unicode="&#xc2;" horiz-adv-x="695" 
d="M347 803l-117 -93l-30 34l125 124h44l125 -124l-31 -34zM590 0l-78 180h-334l-78 -180h-72l287 658h65l287 -658h-77zM205 243h280l-140 324z" />
    <glyph glyph-name="Atilde" unicode="&#xc3;" horiz-adv-x="695" 
d="M285 796q-31 0 -43 -50l-41 16q5 35 25 61t56 26q27 0 68.5 -26.5t58.5 -26.5q30 0 42 50l41 -16q-6 -35 -24.5 -61t-53.5 -26q-28 0 -71 26.5t-58 26.5zM590 0l-78 180h-334l-78 -180h-72l287 658h65l287 -658h-77zM205 243h280l-140 324z" />
    <glyph glyph-name="Adieresis" unicode="&#xc4;" horiz-adv-x="695" 
d="M268 742q-18 0 -31 13.5t-13 31.5t13 31.5t31 13.5q19 0 32 -13.5t13 -31.5t-13 -31.5t-32 -13.5zM426 742q-18 0 -31 13.5t-13 31.5t13 31.5t31 13.5q20 0 32.5 -13t12.5 -32t-12.5 -32t-32.5 -13zM590 0l-78 180h-334l-78 -180h-72l287 658h65l287 -658h-77zM205 243
h280l-140 324z" />
    <glyph glyph-name="Aring" unicode="&#xc5;" horiz-adv-x="695" 
d="M348 711q-40 0 -68.5 27t-28.5 67t29.5 67t69.5 27q41 0 68.5 -27t27.5 -67t-29 -67t-69 -27zM349 860q-23 0 -38 -16t-15 -39t15 -39t38 -16q24 0 37.5 15.5t13.5 39.5t-14 39.5t-37 15.5zM590 0l-78 180h-334l-78 -180h-72l287 658h65l287 -658h-77zM205 243h280
l-140 324z" />
    <glyph glyph-name="AE" unicode="&#xc6;" horiz-adv-x="1042" 
d="M596 63h396v-63h-468v180h-301l-143 -180h-87l531 658h459v-63h-387v-232h306v-63h-306v-237zM274 244h250v315z" />
    <glyph glyph-name="Ccedilla" unicode="&#xc7;" horiz-adv-x="680" 
d="M377 -13h-15l-16 -37q16 3 34 3q34 0 56.5 -19t22.5 -51q0 -42 -32 -67t-87 -25q-57 0 -93 20l14 39q39 -17 79 -17q30 0 48 12t18 33q0 17 -12.5 26t-32.5 9q-24 0 -44 -7l-22 20l22 66q-116 20 -186 109t-70 222q0 154 90.5 251t234.5 97q126 0 221 -70v-80
q-92 84 -219 84q-112 0 -181 -76.5t-69 -199.5q0 -122 68.5 -198t178.5 -76q124 0 228 101l36 -47q-117 -122 -272 -122z" />
    <glyph glyph-name="Egrave" unicode="&#xc8;" horiz-adv-x="645" 
d="M388 710l-171 125l43 51l157 -141zM185 63h406v-63h-479v658h470v-63h-397v-232h344v-63h-344v-237z" />
    <glyph glyph-name="Eacute" unicode="&#xc9;" horiz-adv-x="645" 
d="M288 710l-30 35l157 141l43 -51zM185 63h406v-63h-479v658h470v-63h-397v-232h344v-63h-344v-237z" />
    <glyph glyph-name="Ecircumflex" unicode="&#xca;" horiz-adv-x="645" 
d="M337 803l-117 -93l-30 34l125 124h44l125 -124l-31 -34zM185 63h406v-63h-479v658h470v-63h-397v-232h344v-63h-344v-237z" />
    <glyph glyph-name="Edieresis" unicode="&#xcb;" horiz-adv-x="645" 
d="M258 742q-18 0 -31 13.5t-13 31.5t13 31.5t31 13.5q19 0 32 -13.5t13 -31.5t-13 -31.5t-32 -13.5zM416 742q-18 0 -31 13.5t-13 31.5t13 31.5t31 13.5q20 0 32.5 -13t12.5 -32t-12.5 -32t-32.5 -13zM185 63h406v-63h-479v658h470v-63h-397v-232h344v-63h-344v-237z" />
    <glyph glyph-name="Igrave" unicode="&#xcc;" horiz-adv-x="296" 
d="M199 710l-171 125l43 51l157 -141zM112 0v658l73 -1v-657h-73z" />
    <glyph glyph-name="Iacute" unicode="&#xcd;" horiz-adv-x="296" 
d="M98 710l-30 35l157 141l43 -51zM112 0v658l73 -1v-657h-73z" />
    <glyph glyph-name="Icircumflex" unicode="&#xce;" horiz-adv-x="296" 
d="M170 868l125 -124l-31 -34l-116 93l-117 -93l-30 34l125 124h44zM112 0v658l73 -1v-657h-73z" />
    <glyph glyph-name="Idieresis" unicode="&#xcf;" horiz-adv-x="296" 
d="M68 742q-18 0 -31 13.5t-13 31.5t13 31.5t31 13.5q19 0 32 -13.5t13 -31.5t-13 -31.5t-32 -13.5zM226 742q-18 0 -31 13.5t-13 31.5t13 31.5t31 13.5q20 0 32.5 -13t12.5 -32t-12.5 -32t-32.5 -13zM112 0v658l73 -1v-657h-73z" />
    <glyph glyph-name="Eth" unicode="&#xd0;" horiz-adv-x="778" 
d="M385 658q144 0 238.5 -91t94.5 -231q0 -145 -95 -240.5t-237 -95.5h-245v308h-123v63h123v287h244zM387 64q109 0 181.5 74.5t72.5 189.5q0 116 -74 191t-186 75h-167v-223h138v-63h-138v-244h173z" />
    <glyph glyph-name="Ntilde" unicode="&#xd1;" horiz-adv-x="785" 
d="M335 796q-31 0 -43 -50l-41 16q5 35 25 61t56 26q27 0 68.5 -26.5t58.5 -26.5q30 0 42 50l41 -16q-6 -35 -24.5 -61t-53.5 -26q-28 0 -71 26.5t-58 26.5zM606 658h67v-658h-63l-431 545v-545h-67v658h67l427 -540v540z" />
    <glyph glyph-name="Ograve" unicode="&#xd2;" horiz-adv-x="784" 
d="M442 710l-171 125l43 51l157 -141zM388 -13q-142 0 -234.5 95.5t-92.5 240.5q0 151 95 249.5t241 98.5q142 0 234.5 -95t92.5 -240q0 -151 -95 -250t-241 -99zM394 51q111 0 182 78.5t71 198.5q0 121 -72.5 200t-184.5 79q-110 0 -181.5 -78.5t-71.5 -198.5t73 -199.5
t184 -79.5z" />
    <glyph glyph-name="Oacute" unicode="&#xd3;" horiz-adv-x="784" 
d="M342 710l-30 35l157 141l43 -51zM388 -13q-142 0 -234.5 95.5t-92.5 240.5q0 151 95 249.5t241 98.5q142 0 234.5 -95t92.5 -240q0 -151 -95 -250t-241 -99zM394 51q111 0 182 78.5t71 198.5q0 121 -72.5 200t-184.5 79q-110 0 -181.5 -78.5t-71.5 -198.5t73 -199.5
t184 -79.5z" />
    <glyph glyph-name="Ocircumflex" unicode="&#xd4;" horiz-adv-x="784" 
d="M391 803l-117 -93l-30 34l125 124h44l125 -124l-31 -34zM397 671q142 0 234.5 -95t92.5 -240q0 -151 -95 -250t-241 -99q-142 0 -234.5 95.5t-92.5 240.5q0 151 95 249.5t241 98.5zM394 51q111 0 182 78.5t71 198.5q0 121 -72.5 200t-184.5 79q-110 0 -181.5 -78.5
t-71.5 -198.5t73 -199.5t184 -79.5z" />
    <glyph glyph-name="Otilde" unicode="&#xd5;" horiz-adv-x="784" 
d="M287 746l-41 16q5 35 25 61t56 26q27 0 68.5 -26.5t58.5 -26.5q30 0 42 50l41 -16q-6 -35 -24.5 -61t-53.5 -26q-28 0 -71 26.5t-58 26.5q-30 0 -43 -50zM388 -13q-142 0 -234.5 95.5t-92.5 240.5q0 151 95 249.5t241 98.5q142 0 234.5 -95t92.5 -240q0 -151 -95 -250
t-241 -99zM394 51q111 0 182 78.5t71 198.5q0 121 -72.5 200t-184.5 79q-110 0 -181.5 -78.5t-71.5 -198.5t73 -199.5t184 -79.5z" />
    <glyph glyph-name="Odieresis" unicode="&#xd6;" horiz-adv-x="784" 
d="M312 742q-18 0 -31 13.5t-13 31.5t13 31.5t31 13.5q19 0 32 -13.5t13 -31.5t-13 -31.5t-32 -13.5zM470 742q-18 0 -31 13.5t-13 31.5t13 31.5t31 13.5q20 0 32.5 -13t12.5 -32t-12.5 -32t-32.5 -13zM388 -13q-142 0 -234.5 95.5t-92.5 240.5q0 151 95 249.5t241 98.5
q142 0 234.5 -95t92.5 -240q0 -151 -95 -250t-241 -99zM394 51q111 0 182 78.5t71 198.5q0 121 -72.5 200t-184.5 79q-110 0 -181.5 -78.5t-71.5 -198.5t73 -199.5t184 -79.5z" />
    <glyph glyph-name="multiply" unicode="&#xd7;" 
d="M516 469l-166 -166l166 -166l-45 -45l-166 166l-166 -166l-45 45l166 166l-166 166l45 46l166 -166l166 166z" />
    <glyph glyph-name="Oslash" unicode="&#xd8;" horiz-adv-x="798" 
d="M736 628l-76 -77q70 -91 70 -215q0 -151 -94.5 -250t-240.5 -99q-126 0 -215 76l-75 -76l-44 44l76 78q-70 91 -70 214q0 150 95 249t241 99q125 0 214 -75l74 76zM397 608q-111 0 -183 -79t-72 -199q0 -97 49 -170l377 383q-70 65 -171 65zM401 50q111 0 182.5 78.5
t71.5 199.5q0 97 -49 171l-377 -383q69 -66 172 -66z" />
    <glyph glyph-name="Ugrave" unicode="&#xd9;" horiz-adv-x="754" 
d="M430 710l-171 125l43 51l157 -141zM377 -11q-129 0 -202.5 74.5t-73.5 195.5v399h73v-400q0 -95 55 -149t150 -54q96 0 151 54t55 149v400h68v-399q0 -122 -73 -196t-203 -74z" />
    <glyph glyph-name="Uacute" unicode="&#xda;" horiz-adv-x="754" 
d="M329 710l-30 35l157 141l43 -51zM377 -11q-129 0 -202.5 74.5t-73.5 195.5v399h73v-400q0 -95 55 -149t150 -54q96 0 151 54t55 149v400h68v-399q0 -122 -73 -196t-203 -74z" />
    <glyph glyph-name="Ucircumflex" unicode="&#xdb;" horiz-adv-x="754" 
d="M378 803l-117 -93l-30 34l125 124h44l125 -124l-31 -34zM585 658h68v-399q0 -122 -73 -196t-203 -74q-129 0 -202.5 74.5t-73.5 195.5v399h73v-400q0 -95 55 -149t150 -54q96 0 151 54t55 149v400z" />
    <glyph glyph-name="Udieresis" unicode="&#xdc;" horiz-adv-x="754" 
d="M299 742q-18 0 -31 13.5t-13 31.5t13 31.5t31 13.5q19 0 32 -13.5t13 -31.5t-13 -31.5t-32 -13.5zM457 742q-18 0 -31 13.5t-13 31.5t13 31.5t31 13.5q20 0 32.5 -13t12.5 -32t-12.5 -32t-32.5 -13zM377 -11q-129 0 -202.5 74.5t-73.5 195.5v399h73v-400q0 -95 55 -149
t150 -54q96 0 151 54t55 149v400h68v-399q0 -122 -73 -196t-203 -74z" />
    <glyph glyph-name="Yacute" unicode="&#xdd;" horiz-adv-x="672" 
d="M458 835l-170 -125l-30 35l157 141zM563 658h80l-271 -379v-279h-72v279l-271 379h85l225 -321z" />
    <glyph glyph-name="Thorn" unicode="&#xde;" horiz-adv-x="666" 
d="M345 543q123 0 194 -55t71 -151q0 -97 -71.5 -151.5t-197.5 -54.5h-156v-131h-73v658h73v-115h160zM338 195q97 0 146.5 36.5t49.5 106.5q0 67 -49.5 104t-143.5 37h-156v-284h153z" />
    <glyph glyph-name="germandbls" unicode="&#xdf;" horiz-adv-x="592" 
d="M394 -13q-52 0 -104 19.5t-87 47.5l24 50q32 -27 79 -43t88 -16q43 0 70.5 19t27.5 56q0 21 -17.5 37.5t-34.5 24t-64 24.5q-9 3 -13 5q-65 23 -96.5 47t-31.5 62q0 33 25.5 61.5t56 46.5t56 48.5t25.5 67.5q0 41 -31.5 65.5t-78.5 24.5q-57 0 -91.5 -40.5t-34.5 -115.5
v-478h-70v469q0 101 54 162.5t144 61.5q76 0 127 -40.5t51 -100.5q0 -44 -26 -79t-56.5 -53t-56.5 -41t-26 -45q0 -6 1.5 -10.5t5 -9t6.5 -8t10 -7.5t11.5 -6.5t14 -6.5t15 -6t17 -6.5t17.5 -6.5q80 -29 119 -59.5t39 -81.5q0 -65 -47.5 -102t-117.5 -37z" />
    <glyph glyph-name="agrave" unicode="&#xe0;" horiz-adv-x="611" 
d="M387 560l-29 -35l-171 125l43 51zM449 466l70 18v-484h-69v69q-73 -79 -181 -79q-91 0 -155 63.5t-64 168.5q0 113 74 186.5t182 73.5q68 0 143 -35v19zM285 51q46 0 90 21.5t74 59.5v244q-73 47 -142 47q-80 0 -132 -54t-52 -141q0 -79 45 -128t117 -49z" />
    <glyph glyph-name="aacute" unicode="&#xe1;" horiz-adv-x="611" 
d="M428 650l-170 -125l-30 35l157 141zM449 466l70 18v-484h-69v69q-73 -79 -181 -79q-91 0 -155 63.5t-64 168.5q0 113 74 186.5t182 73.5q68 0 143 -35v19zM285 51q46 0 90 21.5t74 59.5v244q-73 47 -142 47q-80 0 -132 -54t-52 -141q0 -79 45 -128t117 -49z" />
    <glyph glyph-name="acircumflex" unicode="&#xe2;" horiz-adv-x="611" 
d="M307 618l-117 -93l-30 34l125 124h44l125 -124l-31 -34zM449 466l70 18v-484h-69v69q-73 -79 -181 -79q-91 0 -155 63.5t-64 168.5q0 113 74 186.5t182 73.5q68 0 143 -35v19zM285 51q46 0 90 21.5t74 59.5v244q-73 47 -142 47q-80 0 -132 -54t-52 -141q0 -79 45 -128
t117 -49z" />
    <glyph glyph-name="atilde" unicode="&#xe3;" horiz-adv-x="611" 
d="M246 611q-30 0 -43 -50l-41 16q5 35 25 61t56 26q27 0 68.5 -26.5t58.5 -26.5q30 0 42 50l41 -16q-6 -35 -24.5 -61t-53.5 -26q-28 0 -71 26.5t-58 26.5zM449 466l70 18v-484h-69v69q-73 -79 -181 -79q-91 0 -155 63.5t-64 168.5q0 113 74 186.5t182 73.5q68 0 143 -35
v19zM285 51q46 0 90 21.5t74 59.5v244q-73 47 -142 47q-80 0 -132 -54t-52 -141q0 -79 45 -128t117 -49z" />
    <glyph glyph-name="adieresis" unicode="&#xe4;" horiz-adv-x="611" 
d="M228 557q-18 0 -31 13.5t-13 31.5t13 31.5t31 13.5q19 0 32 -13.5t13 -31.5t-13 -31.5t-32 -13.5zM386 557q-18 0 -31 13.5t-13 31.5t13 31.5t31 13.5q20 0 32.5 -13t12.5 -32t-12.5 -32t-32.5 -13zM449 466l70 18v-484h-69v69q-73 -79 -181 -79q-91 0 -155 63.5
t-64 168.5q0 113 74 186.5t182 73.5q68 0 143 -35v19zM285 51q46 0 90 21.5t74 59.5v244q-73 47 -142 47q-80 0 -132 -54t-52 -141q0 -79 45 -128t117 -49z" />
    <glyph glyph-name="aring" unicode="&#xe5;" horiz-adv-x="611" 
d="M308 526q-40 0 -68.5 27t-28.5 67t29.5 67t69.5 27q41 0 68.5 -27t27.5 -67t-29 -67t-69 -27zM309 675q-23 0 -38 -16t-15 -39t15 -39t38 -16q24 0 37.5 15.5t13.5 39.5t-14 39.5t-37 15.5zM449 466l70 18v-484h-69v69q-73 -79 -181 -79q-91 0 -155 63.5t-64 168.5
q0 113 74 186.5t182 73.5q68 0 143 -35v19zM285 51q46 0 90 21.5t74 59.5v244q-73 47 -142 47q-80 0 -132 -54t-52 -141q0 -79 45 -128t117 -49z" />
    <glyph glyph-name="ae" unicode="&#xe6;" horiz-adv-x="947" 
d="M682 48q95 0 177 74l33 -41q-94 -92 -219 -92q-70 0 -126 30t-87 85q-100 -117 -236 -117q-81 0 -131 42.5t-50 109.5q0 68 50 114t130 46q103 0 208 -76v93q0 59 -30.5 84.5t-95.5 25.5q-92 0 -197 -41l-13 56q106 45 213 45q144 0 176 -98q70 97 198 97q93 0 153 -58
t60 -151q0 -30 -8 -52h-392q2 -80 52.5 -128t134.5 -48zM679 429q-67 0 -116.5 -41t-62.5 -110h329q-2 69 -43 110t-107 41zM233 44q114 0 205 117q-105 85 -204 85q-56 0 -88 -29t-32 -74q0 -44 32 -71.5t87 -27.5z" />
    <glyph glyph-name="ccedilla" unicode="&#xe7;" horiz-adv-x="537" 
d="M506 82q-81 -84 -188 -94l-16 -38q16 3 34 3q34 0 56.5 -19t22.5 -51q0 -42 -32 -67t-87 -25q-57 0 -93 20l14 39q39 -17 79 -17q30 0 48 12t18 33q0 17 -12.5 26t-32.5 9q-24 0 -44 -7l-22 20l21 62q-97 7 -159.5 72t-62.5 167q0 113 74 185.5t181 72.5q100 0 174 -54
v-70q-69 64 -168 64q-81 0 -134.5 -54.5t-53.5 -138.5q0 -82 49 -132t129 -50q92 0 172 74z" />
    <glyph glyph-name="egrave" unicode="&#xe8;" horiz-adv-x="574" 
d="M383 560l-29 -35l-171 125l43 51zM308 48q95 0 178 74l32 -41q-94 -92 -218 -92q-108 0 -178.5 63.5t-70.5 173.5q0 112 73 185.5t181 73.5q95 0 155.5 -58t60.5 -151q0 -28 -7 -52h-393q3 -81 53.5 -128.5t133.5 -47.5zM306 429q-68 0 -117.5 -41.5t-63.5 -109.5h330
q-1 69 -42 110t-107 41z" />
    <glyph glyph-name="eacute" unicode="&#xe9;" horiz-adv-x="574" 
d="M423 650l-170 -125l-30 35l157 141zM308 48q95 0 178 74l32 -41q-94 -92 -218 -92q-108 0 -178.5 63.5t-70.5 173.5q0 112 73 185.5t181 73.5q95 0 155.5 -58t60.5 -151q0 -28 -7 -52h-393q3 -81 53.5 -128.5t133.5 -47.5zM306 429q-68 0 -117.5 -41.5t-63.5 -109.5h330
q-1 69 -42 110t-107 41z" />
    <glyph glyph-name="ecircumflex" unicode="&#xea;" horiz-adv-x="574" 
d="M303 618l-117 -93l-30 34l125 124h44l125 -124l-31 -34zM308 48q95 0 178 74l32 -41q-94 -92 -218 -92q-108 0 -178.5 63.5t-70.5 173.5q0 112 73 185.5t181 73.5q95 0 155.5 -58t60.5 -151q0 -28 -7 -52h-393q3 -81 53.5 -128.5t133.5 -47.5zM306 429
q-68 0 -117.5 -41.5t-63.5 -109.5h330q-1 69 -42 110t-107 41z" />
    <glyph glyph-name="edieresis" unicode="&#xeb;" horiz-adv-x="574" 
d="M223 557q-18 0 -31 13.5t-13 31.5t13 31.5t31 13.5q19 0 32 -13.5t13 -31.5t-13 -31.5t-32 -13.5zM381 557q-18 0 -31 13.5t-13 31.5t13 31.5t31 13.5q20 0 32.5 -13t12.5 -32t-12.5 -32t-32.5 -13zM308 48q95 0 178 74l32 -41q-94 -92 -218 -92q-108 0 -178.5 63.5
t-70.5 173.5q0 112 73 185.5t181 73.5q95 0 155.5 -58t60.5 -151q0 -28 -7 -52h-393q3 -81 53.5 -128.5t133.5 -47.5zM306 429q-68 0 -117.5 -41.5t-63.5 -109.5h330q-1 69 -42 110t-107 41z" />
    <glyph glyph-name="igrave" unicode="&#xec;" horiz-adv-x="253" 
d="M177 525l-171 125l43 51l157 -141zM92 0v466l69 16v-482h-69z" />
    <glyph glyph-name="iacute" unicode="&#xed;" horiz-adv-x="253" 
d="M76 525l-30 35l157 141l43 -51zM92 0v466l69 16v-482h-69z" />
    <glyph glyph-name="icircumflex" unicode="&#xee;" horiz-adv-x="253" 
d="M148 683l125 -124l-31 -34l-116 93l-117 -93l-30 34l125 124h44zM92 0v466l69 16v-482h-69z" />
    <glyph glyph-name="idieresis" unicode="&#xef;" horiz-adv-x="253" 
d="M47 557q-18 0 -31 13.5t-13 31.5t13 31.5t31 13.5q19 0 32 -13.5t13 -31.5t-13 -31.5t-32 -13.5zM205 557q-18 0 -31 13.5t-13 31.5t13 31.5t31 13.5q20 0 32.5 -13t12.5 -32t-12.5 -32t-32.5 -13zM92 0v466l69 16v-482h-69z" />
    <glyph glyph-name="eth" unicode="&#xf0;" horiz-adv-x="616" 
d="M423 605q131 -107 131 -300q0 -142 -70 -229t-190 -87q-105 0 -174 65t-69 173q0 107 68.5 172t167.5 65q49 0 99.5 -18t87.5 -51q-24 118 -112 179l-127 -65l-26 47l95 50q-67 26 -153 29v58q126 0 220 -53l109 57l28 -48zM299 53q85 0 134.5 66t49.5 182v12
q-37 47 -87.5 70t-100.5 23q-75 0 -123.5 -49t-48.5 -128q0 -82 50.5 -129t125.5 -47z" />
    <glyph glyph-name="ntilde" unicode="&#xf1;" horiz-adv-x="629" 
d="M265 611q-31 0 -43 -50l-41 16q5 35 25 61t56 26q27 0 68.5 -26.5t58.5 -26.5q30 0 42 50l41 -16q-6 -35 -24.5 -61t-53.5 -26q-28 0 -71 26.5t-58 26.5zM366 481q80 0 129.5 -49.5t49.5 -152.5v-279h-70v265q0 153 -129 153q-103 0 -184 -110v-308h-70v467l68 17v-109
q86 106 206 106z" />
    <glyph glyph-name="ograve" unicode="&#xf2;" horiz-adv-x="611" 
d="M357 525l-171 125l43 51l157 -141zM304 -13q-108 0 -181 67.5t-73 176.5q0 108 74.5 181t182.5 73t181 -67.5t73 -176.5q0 -108 -75 -181t-182 -73zM309 46q77 0 128 54.5t51 136.5q0 84 -52 137t-134 53q-77 0 -128 -54.5t-51 -136.5q0 -85 51.5 -137.5t134.5 -52.5z
" />
    <glyph glyph-name="oacute" unicode="&#xf3;" horiz-adv-x="611" 
d="M256 525l-30 35l157 141l43 -51zM304 -13q-108 0 -181 67.5t-73 176.5q0 108 74.5 181t182.5 73t181 -67.5t73 -176.5q0 -108 -75 -181t-182 -73zM309 46q77 0 128 54.5t51 136.5q0 84 -52 137t-134 53q-77 0 -128 -54.5t-51 -136.5q0 -85 51.5 -137.5t134.5 -52.5z" />
    <glyph glyph-name="ocircumflex" unicode="&#xf4;" horiz-adv-x="611" 
d="M306 618l-117 -93l-30 34l125 124h44l125 -124l-31 -34zM307 485q108 0 181 -67.5t73 -176.5q0 -108 -75 -181t-182 -73q-108 0 -181 67.5t-73 176.5q0 108 74.5 181t182.5 73zM309 46q77 0 128 54.5t51 136.5q0 84 -52 137t-134 53q-77 0 -128 -54.5t-51 -136.5
q0 -85 51.5 -137.5t134.5 -52.5z" />
    <glyph glyph-name="otilde" unicode="&#xf5;" horiz-adv-x="611" 
d="M201 561l-41 16q5 35 25 61t56 26q27 0 68.5 -26.5t58.5 -26.5q30 0 42 50l41 -16q-6 -35 -24.5 -61t-53.5 -26q-28 0 -71 26.5t-58 26.5q-30 0 -43 -50zM304 -13q-108 0 -181 67.5t-73 176.5q0 108 74.5 181t182.5 73t181 -67.5t73 -176.5q0 -108 -75 -181t-182 -73z
M309 46q77 0 128 54.5t51 136.5q0 84 -52 137t-134 53q-77 0 -128 -54.5t-51 -136.5q0 -85 51.5 -137.5t134.5 -52.5z" />
    <glyph glyph-name="odieresis" unicode="&#xf6;" horiz-adv-x="611" 
d="M226 557q-18 0 -31 13.5t-13 31.5t13 31.5t31 13.5q19 0 32 -13.5t13 -31.5t-13 -31.5t-32 -13.5zM384 557q-18 0 -31 13.5t-13 31.5t13 31.5t31 13.5q20 0 32.5 -13t12.5 -32t-12.5 -32t-32.5 -13zM304 -13q-108 0 -181 67.5t-73 176.5q0 108 74.5 181t182.5 73
t181 -67.5t73 -176.5q0 -108 -75 -181t-182 -73zM309 46q77 0 128 54.5t51 136.5q0 84 -52 137t-134 53q-77 0 -128 -54.5t-51 -136.5q0 -85 51.5 -137.5t134.5 -52.5z" />
    <glyph glyph-name="divide" unicode="&#xf7;" 
d="M305 435q-21 0 -35.5 14.5t-14.5 34.5q0 21 14.5 35t35.5 14t35.5 -14t14.5 -35q0 -20 -14.5 -34.5t-35.5 -14.5zM63 270v66h484v-66h-484zM305 68q-21 0 -35.5 14.5t-14.5 34.5q0 21 14.5 35t35.5 14t35.5 -14t14.5 -35q0 -20 -14.5 -34.5t-35.5 -14.5z" />
    <glyph glyph-name="oslash" unicode="&#xf8;" horiz-adv-x="622" 
d="M566 448l-53 -52q53 -64 53 -155q0 -108 -74.5 -181t-181.5 -73q-95 0 -161 51l-55 -54l-43 40l56 55q-51 64 -51 152q0 108 74.5 181t181.5 73q90 0 158 -48l53 52zM308 428q-79 0 -130.5 -54.5t-51.5 -137.5q0 -64 31 -111l270 265q-51 38 -119 38zM314 44q78 0 130 55
t52 138q0 65 -33 114l-271 -266q50 -41 122 -41z" />
    <glyph glyph-name="ugrave" unicode="&#xf9;" horiz-adv-x="620" 
d="M377 560l-29 -35l-171 125l43 51zM458 466l70 16v-482h-68v94q-81 -102 -200 -102q-81 0 -129.5 49.5t-48.5 152.5v272l70 16v-274q0 -153 125 -153q103 0 181 108v303z" />
    <glyph glyph-name="uacute" unicode="&#xfa;" horiz-adv-x="620" 
d="M417 650l-170 -125l-30 35l157 141zM458 466l70 16v-482h-68v94q-81 -102 -200 -102q-81 0 -129.5 49.5t-48.5 152.5v272l70 16v-274q0 -153 125 -153q103 0 181 108v303z" />
    <glyph glyph-name="ucircumflex" unicode="&#xfb;" horiz-adv-x="620" 
d="M296 618l-117 -93l-30 34l125 124h44l125 -124l-31 -34zM458 466l70 16v-482h-68v94q-81 -102 -200 -102q-81 0 -129.5 49.5t-48.5 152.5v272l70 16v-274q0 -153 125 -153q103 0 181 108v303z" />
    <glyph glyph-name="udieresis" unicode="&#xfc;" horiz-adv-x="620" 
d="M217 557q-18 0 -31 13.5t-13 31.5t13 31.5t31 13.5q19 0 32 -13.5t13 -31.5t-13 -31.5t-32 -13.5zM375 557q-18 0 -31 13.5t-13 31.5t13 31.5t31 13.5q20 0 32.5 -13t12.5 -32t-12.5 -32t-32.5 -13zM458 466l70 16v-482h-68v94q-81 -102 -200 -102q-81 0 -129.5 49.5
t-48.5 152.5v272l70 16v-274q0 -153 125 -153q103 0 181 108v303z" />
    <glyph glyph-name="yacute" unicode="&#xfd;" horiz-adv-x="537" 
d="M396 650l-170 -125l-30 35l157 141zM445 473h70l-307 -673h-71l99 210l-213 463h75l174 -386z" />
    <glyph glyph-name="thorn" unicode="&#xfe;" horiz-adv-x="618" 
d="M338 483q98 0 163.5 -65t65.5 -175q0 -112 -73.5 -183t-187.5 -71q-71 0 -144 30v-219h-70v872l70 15v-276q34 32 81 52t95 20zM309 47q82 0 133.5 52t51.5 135q0 89 -49 139.5t-126 50.5q-90 0 -157 -74v-259q67 -44 147 -44z" />
    <glyph glyph-name="ydieresis" unicode="&#xff;" horiz-adv-x="537" 
d="M197 557q-18 0 -31 13.5t-13 31.5t13 31.5t31 13.5q19 0 32 -13.5t13 -31.5t-13 -31.5t-32 -13.5zM355 557q-18 0 -31 13.5t-13 31.5t13 31.5t31 13.5q20 0 32.5 -13t12.5 -32t-12.5 -32t-32.5 -13zM445 473h70l-307 -673h-71l99 210l-213 463h75l174 -386z" />
    <glyph glyph-name="dotlessi" unicode="&#x131;" horiz-adv-x="253" 
d="M92 0v466l69 16v-482h-69z" />
    <glyph glyph-name="Lslash" unicode="&#x141;" horiz-adv-x="606" 
d="M211 64h377v-64h-450v270l-96 -43l-26 59l122 54v318h73v-286l128 57l26 -59l-154 -68v-238z" />
    <glyph glyph-name="lslash" unicode="&#x142;" horiz-adv-x="361" 
d="M340 344l-119 -53v-291h-70v260l-97 -43l-24 59l121 54v342l70 14v-325l94 42z" />
    <glyph glyph-name="OE" unicode="&#x152;" horiz-adv-x="1051" 
d="M997 63v-63h-491q-54 -13 -105 -13q-143 0 -242 95t-99 241q0 147 101 247.5t248 100.5q52 0 107 -13h472v-63h-377v-232h324v-63h-324v-237h386zM136 330q0 -118 78.5 -198.5t192.5 -80.5q74 0 131 26v503q-62 27 -135 27q-114 0 -190.5 -80t-76.5 -197z" />
    <glyph glyph-name="oe" unicode="&#x153;" horiz-adv-x="988" 
d="M903 122l33 -41q-90 -92 -214 -92q-70 0 -125.5 31.5t-83.5 88.5q-33 -57 -89.5 -90.5t-124.5 -33.5q-106 0 -177.5 67t-71.5 179q0 110 73 183t179 73q71 0 128.5 -34t87.5 -95q31 60 85.5 93.5t122.5 33.5q92 0 150.5 -58t58.5 -151q0 -30 -8 -52h-377
q2 -80 51.5 -127.5t129.5 -47.5q94 0 172 73zM305 44q73 0 123.5 54.5t50.5 138.5t-51.5 138t-129.5 54q-74 0 -124.5 -54.5t-50.5 -138.5q0 -85 51.5 -138.5t130.5 -53.5zM727 428q-63 0 -110.5 -40t-61.5 -107h314q-2 68 -40.5 107.5t-101.5 39.5z" />
    <glyph glyph-name="Scaron" unicode="&#x160;" horiz-adv-x="646" 
d="M351 731h-44l-125 124l31 34l116 -93l117 93l30 -34zM357 363q125 -30 178.5 -69t53.5 -116q0 -86 -69.5 -138.5t-184.5 -52.5q-170 0 -288 105l33 53q113 -94 255 -94q82 0 131 32t49 86q0 50 -38 75t-148 50q-141 33 -197.5 73t-56.5 109q0 88 72.5 141.5t186.5 53.5
q131 0 232 -66v-77q-100 79 -229 79q-83 0 -135.5 -32.5t-52.5 -87.5q0 -46 42.5 -70.5t165.5 -53.5z" />
    <glyph glyph-name="scaron" unicode="&#x161;" horiz-adv-x="526" 
d="M284 540h-44l-125 124l31 34l116 -93l117 93l30 -34zM280 269q106 -18 151.5 -47t45.5 -92q0 -65 -53.5 -104t-141.5 -39q-69 0 -133.5 19.5t-106.5 48.5l27 49q39 -27 96.5 -43.5t114.5 -16.5q58 0 93.5 22t35.5 59q0 33 -31 50t-113 31q-113 18 -159.5 48t-46.5 89
q0 63 56.5 102.5t147.5 39.5q113 0 195 -47v-65q-72 56 -195 56q-62 0 -99.5 -22t-37.5 -58q0 -31 32 -47.5t122 -32.5z" />
    <glyph glyph-name="Ydieresis" unicode="&#x178;" horiz-adv-x="672" 
d="M258 742q-18 0 -31 13.5t-13 31.5t13 31.5t31 13.5q19 0 32 -13.5t13 -31.5t-13 -31.5t-32 -13.5zM416 742q-18 0 -31 13.5t-13 31.5t13 31.5t31 13.5q20 0 32.5 -13t12.5 -32t-12.5 -32t-32.5 -13zM563 658h80l-271 -379v-279h-72v279l-271 379h85l225 -321z" />
    <glyph glyph-name="Zcaron" unicode="&#x17d;" horiz-adv-x="616" 
d="M329 726h-44l-125 124l31 34l116 -93l117 93l30 -34zM138 63h433v-63h-525v59l421 536h-411v63h505v-57z" />
    <glyph glyph-name="zcaron" unicode="&#x17e;" horiz-adv-x="506" 
d="M275 541h-44l-125 124l31 34l116 -93l117 93l30 -34zM138 59h325v-59h-420v56l315 357h-307v60h404v-56z" />
    <glyph glyph-name="florin" unicode="&#x192;" 
d="M450 622q-64 0 -95.5 -30.5t-43.5 -100.5l-3 -18h195v-63h-205l-76 -449q-18 -101 -66.5 -146t-140.5 -45q-79 0 -136 30l19 59q55 -26 112 -26q64 0 95.5 30.5t43.5 100.5l76 446h-96v63h106l4 21q17 100 66 145.5t141 45.5q76 0 136 -30l-20 -59q-55 26 -112 26z" />
    <glyph glyph-name="circumflex" unicode="&#x2c6;" horiz-adv-x="442" 
d="M368 559l-31 -34l-116 93l-117 -93l-30 34l125 124h44z" />
    <glyph glyph-name="caron" unicode="&#x2c7;" horiz-adv-x="442" 
d="M339 699l30 -34l-125 -124h-44l-125 124l31 34l116 -93z" />
    <glyph glyph-name="breve" unicode="&#x2d8;" horiz-adv-x="370" 
d="M185 536q-63 0 -100.5 40.5t-40.5 101.5h58q15 -89 85 -89q71 0 86 89h52q-2 -61 -40 -101.5t-100 -40.5z" />
    <glyph glyph-name="dotaccent" unicode="&#x2d9;" horiz-adv-x="389" 
d="M194 555q-20 0 -34.5 15.5t-14.5 35.5q0 21 14.5 36.5t34.5 15.5q21 0 35.5 -15.5t14.5 -36.5q0 -20 -14.5 -35.5t-35.5 -15.5z" />
    <glyph glyph-name="ring" unicode="&#x2da;" horiz-adv-x="261" 
d="M228 620q0 -40 -29 -67t-69 -27t-68.5 27t-28.5 67t29.5 67t69.5 27q41 0 68.5 -27t27.5 -67zM131 565q24 0 37.5 15.5t13.5 39.5t-14 39.5t-37 15.5t-38 -16t-15 -39t15 -39t38 -16z" />
    <glyph glyph-name="ogonek" unicode="&#x2db;" horiz-adv-x="326" 
d="M159 -201q-49 0 -76 23.5t-27 60.5q0 91 187 148l16 -36q-144 -44 -144 -104q0 -19 14 -31t39 -12q49 0 89 30l18 -38q-51 -41 -116 -41z" />
    <glyph glyph-name="tilde" unicode="&#x2dc;" horiz-adv-x="398" 
d="M96 561l-41 16q5 35 25 61t56 26q27 0 68.5 -26.5t58.5 -26.5q30 0 42 50l41 -16q-6 -35 -24.5 -61t-53.5 -26q-28 0 -71 26.5t-58 26.5q-31 0 -43 -50z" />
    <glyph glyph-name="hungarumlaut" unicode="&#x2dd;" horiz-adv-x="381" 
d="M68 525l-34 32l122 147l46 -43zM225 525l-33 32l122 147l46 -43z" />
    <glyph glyph-name="uni0394" unicode="&#x394;" horiz-adv-x="609" 
d="M337 658l237 -658h-539l237 658h65zM127 64h350l-175 490z" />
    <glyph glyph-name="uni03A9" unicode="&#x3a9;" horiz-adv-x="689" 
d="M486 65h136v-65h-230v53q70 51 103.5 132t33.5 172q0 112 -53 181t-135 69q-81 0 -130.5 -68t-49.5 -180q0 -92 33 -173.5t104 -132.5v-53h-231v65h138q-121 105 -121 294q0 133 71 222.5t191 89.5q118 0 188.5 -87.5t70.5 -219.5q0 -194 -119 -299z" />
    <glyph glyph-name="pi" unicode="&#x3c0;" horiz-adv-x="586" 
d="M552 408h-89v-29q0 -255 35 -379h-74q-31 139 -31 372v36l-207 -1v-407h-70v407h-80v66h516v-65z" />
    <glyph glyph-name="endash" unicode="&#x2013;" horiz-adv-x="682" 
d="M76 223v63h531v-63h-531z" />
    <glyph glyph-name="emdash" unicode="&#x2014;" horiz-adv-x="956" 
d="M76 223v63h804v-63h-804z" />
    <glyph glyph-name="quoteleft" unicode="&#x2018;" horiz-adv-x="243" 
d="M151 667l45 -31q-53 -69 -53 -181v-43h-73v44q0 122 81 211z" />
    <glyph glyph-name="quoteright" unicode="&#x2019;" horiz-adv-x="235" 
d="M97 419l-45 31q53 69 53 181v43h73v-44q0 -122 -81 -211z" />
    <glyph glyph-name="quotesinglbase" unicode="&#x201a;" horiz-adv-x="237" 
d="M75 -147l-45 31q53 69 53 181v43h73v-44q0 -122 -81 -211z" />
    <glyph glyph-name="quotedblleft" unicode="&#x201c;" horiz-adv-x="413" 
d="M151 667l45 -31q-53 -69 -53 -181v-43h-73v44q0 122 81 211zM321 667l45 -31q-53 -69 -53 -181v-43h-73v44q0 122 81 211z" />
    <glyph glyph-name="quotedblright" unicode="&#x201d;" horiz-adv-x="405" 
d="M97 419l-45 31q53 69 53 181v43h73v-44q0 -122 -81 -211zM267 419l-45 31q53 69 53 181v43h73v-44q0 -122 -81 -211z" />
    <glyph glyph-name="quotedblbase" unicode="&#x201e;" horiz-adv-x="417" 
d="M75 -147l-45 31q53 69 53 181v43h73v-44q0 -122 -81 -211zM255 -147l-45 31q53 69 53 181v43h73v-44q0 -122 -81 -211z" />
    <glyph glyph-name="dagger" unicode="&#x2020;" 
d="M336 669v-212h188v-58h-188v-511h-62v511h-188v58h188v212h62z" />
    <glyph glyph-name="daggerdbl" unicode="&#x2021;" 
d="M524 399h-188v-229h188v-58h-188v-224h-62v224h-188v58h188v229h-188v58h188v212h62v-212h188v-58z" />
    <glyph glyph-name="bullet" unicode="&#x2022;" horiz-adv-x="403" 
d="M201 150q-43 0 -74 31t-31 75q0 43 30.5 73t74.5 30t75 -30t31 -73q0 -44 -31.5 -75t-74.5 -31z" />
    <glyph glyph-name="ellipsis" unicode="&#x2026;" horiz-adv-x="788" 
d="M125 -7q-24 0 -40.5 17.5t-16.5 40.5q0 25 16.5 42t40.5 17q25 0 41.5 -17t16.5 -42q0 -23 -17 -40.5t-41 -17.5zM393 -7q-24 0 -40.5 17.5t-16.5 40.5q0 25 16.5 42t40.5 17q25 0 41.5 -17t16.5 -42q0 -23 -16.5 -40.5t-41.5 -17.5zM661 -7q-24 0 -40.5 17.5t-16.5 40.5
q0 25 16.5 42t40.5 17q25 0 42 -17t17 -42q0 -23 -17.5 -40.5t-41.5 -17.5z" />
    <glyph glyph-name="perthousand" unicode="&#x2030;" horiz-adv-x="1136" 
d="M195 302q-64 0 -105.5 48t-41.5 133q0 88 44 138t107 50q64 0 105.5 -48t41.5 -135q0 -86 -44 -136t-107 -50zM112 0l495 658h69l-496 -658h-68zM196 353q41 0 66 36t25 96q0 63 -24 99t-65 36t-66 -37t-25 -97q0 -61 24 -97t65 -36zM594 -13q-64 0 -105.5 48t-41.5 134
q0 87 44 137t107 50q64 0 105.5 -48t41.5 -134q0 -87 -44 -137t-107 -50zM943 -13q-63 0 -105 48t-42 134q0 87 44 137t107 50q64 0 105.5 -48t41.5 -134q0 -87 -44 -137t-107 -50zM595 38q41 0 66 36.5t25 96.5q0 62 -24 98t-65 36t-66 -36.5t-25 -96.5q0 -62 24 -98
t65 -36zM944 38q41 0 66 36t25 97q0 62 -24 98t-65 36t-66 -36.5t-25 -96.5q0 -62 24 -98t65 -36z" />
    <glyph glyph-name="guilsinglleft" unicode="&#x2039;" horiz-adv-x="376" 
d="M321 402l-207 -165l207 -164l-36 -42l-238 189v34l238 189z" />
    <glyph glyph-name="guilsinglright" unicode="&#x203a;" horiz-adv-x="376" 
d="M91 443l238 -189v-34l-238 -189l-36 42l207 164l-207 165z" />
    <glyph glyph-name="fraction" unicode="&#x2044;" horiz-adv-x="548" 
d="M-8 0l496 658h69l-496 -658h-69z" />
    <glyph glyph-name="uni2074" unicode="&#x2074;" horiz-adv-x="460" 
d="M412 376v-54h-85v-92h-63v92h-223v50l227 288h59v-284h85zM264 376l3 203l-160 -203h157z" />
    <glyph glyph-name="Euro" unicode="&#x20ac;" 
d="M563 158l37 -45q-101 -126 -246 -126q-106 0 -177.5 63t-93.5 173h-66v53h59q-2 26 -2 40q0 36 4 64h-61v53h71q27 109 101.5 173t177.5 64q111 0 194 -73v-77q-80 85 -188 85q-78 0 -132 -45.5t-76 -126.5h323v-53h-333q-3 -27 -3 -57q0 -17 2 -47h304v-53h-295
q19 -81 71 -125t128 -44q117 0 201 104z" />
    <glyph glyph-name="trademark" unicode="&#x2122;" horiz-adv-x="763" 
d="M42 614v44h278v-44h-113v-246h-53v246h-112zM626 658h48v-290h-53v208l-82 -109h-30l-86 108v-207h-49v290h49l105 -132z" />
    <glyph glyph-name="partialdiff" unicode="&#x2202;" 
d="M294 669q115 0 183 -86.5t68 -232.5q0 -179 -79 -270t-200 -91q-95 0 -152 58.5t-57 149.5q0 103 68.5 170.5t169.5 67.5q114 0 175 -83q-2 118 -52 186t-138 68q-60 0 -131 -30l-15 55q80 38 160 38zM272 53q78 0 130 55.5t65 169.5q-27 46 -71.5 71t-94.5 25
q-73 0 -121 -49.5t-48 -126.5q0 -63 37.5 -104t102.5 -41z" />
    <glyph glyph-name="product" unicode="&#x220f;" 
d="M558 658v-69h-72v-670h-72v670h-217v-670h-72v670h-72v69h505z" />
    <glyph glyph-name="summation" unicode="&#x2211;" 
d="M152 -10h394v-67h-475v59l196 308l-187 314v54h457v-63h-371l181 -301z" />
    <glyph glyph-name="minus" unicode="&#x2212;" 
d="M63 270v66h484v-66h-484z" />
    <glyph glyph-name="radical" unicode="&#x221a;" 
d="M497 658h69l-238 -658h-83l-113 339l-25 -79l-51 14l39 121h91l105 -322z" />
    <glyph glyph-name="infinity" unicode="&#x221e;" 
d="M439 513q60 0 97 -52t37 -135q0 -82 -39.5 -134.5t-102.5 -52.5q-86 0 -131 109q-41 -109 -128 -109q-61 0 -98 52t-37 134t39.5 135t102.5 53q88 0 131 -110q42 110 129 110zM181 200q29 0 55 28.5t44 80.5q-34 142 -99 142q-34 0 -56 -35t-22 -89q0 -55 22 -91t56 -36z
M429 200q34 0 56.5 35t22.5 90t-22 90.5t-57 35.5q-29 0 -55 -27.5t-44 -78.5q34 -145 99 -145z" />
    <glyph glyph-name="integral" unicode="&#x222b;" 
d="M444 692q68 0 123 -30l-17 -56q-54 25 -102 25q-118 0 -114 -137l13 -505q3 -106 -47.5 -152t-134.5 -46q-67 0 -122 30l16 56q54 -25 103 -25q117 0 114 137l-14 505q-3 106 47.5 152t134.5 46z" />
    <glyph glyph-name="approxequal" unicode="&#x2248;" 
d="M418 277q-36 0 -78 23.5t-80 47.5t-64 24q-32 0 -52 -23.5t-27 -58.5l-51 18q7 49 38.5 87t88.5 38q36 0 78 -23.5t79.5 -47.5t64.5 -24q32 0 52 23.5t27 58.5l51 -18q-7 -49 -38.5 -87t-88.5 -38zM418 86q-29 0 -62 15t-57.5 32.5t-53 32.5t-49.5 15q-32 0 -52 -23.5
t-27 -58.5l-51 18q7 49 38.5 87t88.5 38q36 0 78 -24t79.5 -47.5t64.5 -23.5q32 0 52 23.5t27 58.5l51 -18q-7 -49 -38.5 -87t-88.5 -38z" />
    <glyph glyph-name="notequal" unicode="&#x2260;" 
d="M537 375h-167l-67 -144h234v-65h-264l-61 -130h-69l61 130h-131v65h161l67 144h-228v65h258l63 134h69l-63 -134h137v-65z" />
    <glyph glyph-name="lessequal" unicode="&#x2264;" 
d="M499 210v-68l-400 173v51l400 174v-68l-324 -131zM81 95h433v-61h-433v61z" />
    <glyph glyph-name="greaterequal" unicode="&#x2265;" 
d="M511 366v-51l-400 -173v68l324 131l-324 131v68zM96 95h433v-61h-433v61z" />
    <glyph glyph-name="lozenge" unicode="&#x25ca;" 
d="M316 671l254 -341l-256 -343h-20l-254 342l254 342h22zM305 583l-188 -254l187 -254l189 255z" />
    <glyph glyph-name="NULL" horiz-adv-x="0" 
 />
    <glyph glyph-name="a.ss01" horiz-adv-x="592" 
d="M312 486q99 0 147 -40.5t48 -126.5v-319h-68v89q-92 -102 -215 -102q-80 0 -130.5 43t-50.5 109q0 68 51 114t132 46q106 0 212 -79v96q0 58 -31 84t-98 26q-95 0 -200 -41l-14 56q110 45 217 45zM235 44q116 0 206 116q-104 86 -205 86q-57 0 -89.5 -29t-32.5 -74
q0 -44 32.5 -71.5t88.5 -27.5z" />
    <glyph glyph-name="aacute.ss01" horiz-adv-x="592" 
d="M413 650l-170 -125l-30 35l157 141zM312 486q99 0 147 -40.5t48 -126.5v-319h-68v89q-92 -102 -215 -102q-80 0 -130.5 43t-50.5 109q0 68 51 114t132 46q106 0 212 -79v96q0 58 -31 84t-98 26q-95 0 -200 -41l-14 56q110 45 217 45zM235 44q116 0 206 116
q-104 86 -205 86q-57 0 -89.5 -29t-32.5 -74q0 -44 32.5 -71.5t88.5 -27.5z" />
    <glyph glyph-name="acircumflex.ss01" horiz-adv-x="592" 
d="M292 618l-117 -93l-30 34l125 124h44l125 -124l-31 -34zM312 486q99 0 147 -40.5t48 -126.5v-319h-68v89q-92 -102 -215 -102q-80 0 -130.5 43t-50.5 109q0 68 51 114t132 46q106 0 212 -79v96q0 58 -31 84t-98 26q-95 0 -200 -41l-14 56q110 45 217 45zM235 44
q116 0 206 116q-104 86 -205 86q-57 0 -89.5 -29t-32.5 -74q0 -44 32.5 -71.5t88.5 -27.5z" />
    <glyph glyph-name="adieresis.ss01" horiz-adv-x="592" 
d="M213 557q-18 0 -31 13.5t-13 31.5t13 31.5t31 13.5q19 0 32 -13.5t13 -31.5t-13 -31.5t-32 -13.5zM371 557q-18 0 -31 13.5t-13 31.5t13 31.5t31 13.5q20 0 32.5 -13t12.5 -32t-12.5 -32t-32.5 -13zM312 486q99 0 147 -40.5t48 -126.5v-319h-68v89q-92 -102 -215 -102
q-80 0 -130.5 43t-50.5 109q0 68 51 114t132 46q106 0 212 -79v96q0 58 -31 84t-98 26q-95 0 -200 -41l-14 56q110 45 217 45zM235 44q116 0 206 116q-104 86 -205 86q-57 0 -89.5 -29t-32.5 -74q0 -44 32.5 -71.5t88.5 -27.5z" />
    <glyph glyph-name="agrave.ss01" horiz-adv-x="592" 
d="M372 560l-29 -35l-171 125l43 51zM312 486q99 0 147 -40.5t48 -126.5v-319h-68v89q-92 -102 -215 -102q-80 0 -130.5 43t-50.5 109q0 68 51 114t132 46q106 0 212 -79v96q0 58 -31 84t-98 26q-95 0 -200 -41l-14 56q110 45 217 45zM235 44q116 0 206 116q-104 86 -205 86
q-57 0 -89.5 -29t-32.5 -74q0 -44 32.5 -71.5t88.5 -27.5z" />
    <glyph glyph-name="aring.ss01" horiz-adv-x="592" 
d="M293 526q-40 0 -68.5 27t-28.5 67t29.5 67t69.5 27q41 0 68.5 -27t27.5 -67t-29 -67t-69 -27zM294 675q-23 0 -38 -16t-15 -39t15 -39t38 -16q24 0 37.5 15.5t13.5 39.5t-14 39.5t-37 15.5zM312 486q99 0 147 -40.5t48 -126.5v-319h-68v89q-92 -102 -215 -102
q-80 0 -130.5 43t-50.5 109q0 68 51 114t132 46q106 0 212 -79v96q0 58 -31 84t-98 26q-95 0 -200 -41l-14 56q110 45 217 45zM235 44q116 0 206 116q-104 86 -205 86q-57 0 -89.5 -29t-32.5 -74q0 -44 32.5 -71.5t88.5 -27.5z" />
    <glyph glyph-name="atilde.ss01" horiz-adv-x="592" 
d="M231 611q-31 0 -43 -50l-41 16q5 35 25 61t56 26q27 0 68.5 -26.5t58.5 -26.5q30 0 42 50l41 -16q-6 -35 -24.5 -61t-53.5 -26q-28 0 -71 26.5t-58 26.5zM312 486q99 0 147 -40.5t48 -126.5v-319h-68v89q-92 -102 -215 -102q-80 0 -130.5 43t-50.5 109q0 68 51 114
t132 46q106 0 212 -79v96q0 58 -31 84t-98 26q-95 0 -200 -41l-14 56q110 45 217 45zM235 44q116 0 206 116q-104 86 -205 86q-57 0 -89.5 -29t-32.5 -74q0 -44 32.5 -71.5t88.5 -27.5z" />
    <glyph glyph-name="caron.ss01" horiz-adv-x="198" 
d="M72 540q5 135 5 158q1 32 28 32t27 -29q0 -16 -7.5 -72t-13.5 -88q-3 -18 -19 -18q-7 0 -13.5 5t-6.5 12z" />
    </font>
</defs>
</svg>
