<?xml version="1.0" standalone="no"?>
<!DOCTYPE svg PUBLIC "-//W3C//DTD SVG 1.1//EN" "http://www.w3.org/Graphics/SVG/1.1/DTD/svg11.dtd" >
<svg>
<metadata>
Created by FontForge 20120731 at Sat Aug 12 12:33:54 2023
 By www
Copyright (c) 2017 Newlyn Works Limited. All rights reserved.
</metadata>
<defs>
<font id="MTNBrighterSans-ExtraBold" horiz-adv-x="610" >
  <font-face 
    font-family="MTN Brighter Sans ExtraBold"
    font-weight="800"
    font-stretch="normal"
    units-per-em="1000"
    panose-1="0 0 9 0 0 0 0 0 0 0"
    ascent="800"
    descent="-200"
    x-height="482"
    cap-height="658"
    bbox="-120 -225 2524 978"
    underline-thickness="50"
    underline-position="-100"
    unicode-range="U+000D-25CA"
  />
<missing-glyph horiz-adv-x="724" 
d="M164 0q-93 0 -93 84v484q0 90 93 90h396q93 0 93 -84v-484q0 -90 -93 -90h-396zM490 135v388h-256v-388h256z" />
    <glyph glyph-name="Y_e_l_l_o" unicode="Y&#x27;ello" horiz-adv-x="2564" 
d="M1539 674l179 35l-126 -709h-172zM1793 674l179 35l-126 -709h-172zM512 658h175l-221 -387q-63 -110 -126.5 -173t-166.5 -115l-104 114q102 42 182 119l-150 442h185l78 -279zM934 656l-13 -75q-27 -158 -151 -262l-96 65q56 79 78 197l14 75h168zM1396 317
q0 -61 -34 -123h-332q15 -83 120 -83q89 0 166 41l49 -92q-112 -82 -249 -82q-116 0 -187.5 63t-71.5 167q0 121 94 208.5t225 87.5q99 0 159.5 -52t60.5 -135zM2268 504q114 0 185 -64.5t71 -165.5q0 -120 -92.5 -208t-228.5 -88q-113 0 -184.5 64.5t-71.5 167.5
q0 119 92 206.5t229 87.5zM1247 307v8q0 33 -22.5 53t-60.5 20q-39 0 -70.5 -21.5t-48.5 -59.5h202zM2212 107q58 0 95 46.5t37 117.5q0 106 -87 106q-58 0 -94 -46t-36 -117q0 -107 85 -107z" />
    <glyph glyph-name=".notdef" horiz-adv-x="724" 
d="M164 0q-93 0 -93 84v484q0 90 93 90h396q93 0 93 -84v-484q0 -90 -93 -90h-396zM490 135v388h-256v-388h256z" />
    <glyph glyph-name=".null" horiz-adv-x="0" 
 />
    <glyph glyph-name="nonmarkingreturn" horiz-adv-x="333" 
 />
    <glyph glyph-name="CR" unicode="&#xd;" horiz-adv-x="233" 
 />
    <glyph glyph-name="space" unicode=" " horiz-adv-x="233" 
 />
    <glyph glyph-name="exclam" unicode="!" horiz-adv-x="322" 
d="M245 226h-168l-17 432h203zM161 -8q-42 0 -72 26.5t-30 65.5q0 40 30 67.5t72 27.5t72 -27.5t30 -67.5q0 -39 -30 -65.5t-72 -26.5z" />
    <glyph glyph-name="quotedbl" unicode="&#x22;" horiz-adv-x="483" 
d="M44 658h172l-29 -327h-116zM269 658h172l-29 -327h-116z" />
    <glyph glyph-name="numbersign" unicode="#" 
d="M621 387h-108l-26 -102h81v-134h-115l-38 -151h-144l38 151h-97l-40 -151h-143l40 151h-80v134h115l27 102h-77v134h112l36 137h143l-36 -137h94l35 137h143l-35 -137h75v-134zM343 285l26 102h-95l-27 -102h96z" />
    <glyph glyph-name="dollar" unicode="$" 
d="M595 213q0 -84 -53.5 -139t-154.5 -69v-140h-143v141q-144 19 -236 92l61 114q112 -54 186 -65v106q-104 18 -163 62t-59 129t54.5 140.5t156.5 69.5v140h143v-141q94 -11 170 -48v-152q-92 49 -181 60v-104q219 -37 219 -196zM184 469q0 -21 17.5 -30.5t53.5 -14.5v91
q-71 -8 -71 -46zM376 145q69 8 69 48q0 21 -16.5 30.5t-52.5 14.5v-93z" />
    <glyph glyph-name="percent" unicode="%" horiz-adv-x="851" 
d="M194 297q-73 0 -118.5 51t-45.5 136q0 89 47 142.5t121 53.5t119 -51t45 -136q0 -89 -46.5 -142.5t-121.5 -53.5zM85 0l534 658h147l-535 -658h-146zM198 398q36 0 36 82q0 46 -11 72.5t-30 26.5q-35 0 -35 -82q0 -47 11 -73t29 -26zM653 -22q-73 0 -118.5 51t-45.5 136
q0 89 47 142.5t121 53.5t119 -51t45 -136q0 -89 -46 -142.5t-122 -53.5zM658 79q35 0 35 82q0 99 -40 99q-35 0 -35 -82q0 -99 40 -99z" />
    <glyph glyph-name="ampersand" unicode="&#x26;" horiz-adv-x="714" 
d="M701 74l-119 -113l-85 78q-95 -61 -211 -61q-106 0 -173.5 49.5t-67.5 134.5q0 109 129 174q-68 74 -68 148q0 80 62.5 134t161.5 54q93 0 151 -48t58 -124q0 -99 -126 -174l89 -78q20 51 25 124h145q0 -120 -62 -219zM320 539q-22 0 -35 -14t-13 -36q0 -21 12 -39
t40 -44q49 34 49 75q0 28 -15 43t-38 15zM323 117q43 0 73 13l-134 122q-40 -28 -40 -65q0 -34 26.5 -52t74.5 -18z" />
    <glyph glyph-name="quotesingle" unicode="'" horiz-adv-x="259" 
d="M44 658h172l-29 -327h-116z" />
    <glyph glyph-name="parenleft" unicode="(" horiz-adv-x="367" 
d="M249 -134q-91 63 -154 172t-63 258q0 150 63 259.5t155 176.5l108 -91q-72 -57 -116.5 -147t-44.5 -195q0 -104 44.5 -191.5t119.5 -150.5z" />
    <glyph glyph-name="parenright" unicode=")" horiz-adv-x="366" 
d="M118 724q91 -63 154 -172t63 -258q0 -150 -63 -259.5t-155 -176.5l-108 91q72 57 116.5 147t44.5 195q0 104 -44.5 191.5t-119.5 150.5z" />
    <glyph glyph-name="asterisk" unicode="*" horiz-adv-x="536" 
d="M69 320l112 100l-150 15l54 167l129 -80l-32 147h172l-32 -147l129 78l54 -165l-150 -15l111 -100l-139 -101l-59 139l-60 -138z" />
    <glyph glyph-name="plus" unicode="+" 
d="M556 382v-164h-163v-161h-176v161h-163v164h163v157h176v-157h163z" />
    <glyph glyph-name="comma" unicode="," horiz-adv-x="284" 
d="M123 -157l-109 64q44 84 44 204v72h172v-75q0 -158 -107 -265z" />
    <glyph glyph-name="hyphen" unicode="-" horiz-adv-x="484" 
d="M54 178v150h375v-150h-375z" />
    <glyph glyph-name="period" unicode="." horiz-adv-x="284" 
d="M142 -8q-45 0 -76 30t-31 74q0 43 31.5 74t75.5 31q43 0 74.5 -31t31.5 -74q0 -44 -31 -74t-75 -30z" />
    <glyph glyph-name="slash" unicode="/" horiz-adv-x="461" 
d="M21 -39l261 745h160l-261 -745h-160z" />
    <glyph glyph-name="zero" unicode="0" 
d="M302 -17q-127 0 -205.5 91.5t-78.5 245.5q0 164 81 259.5t210 95.5q127 0 205 -91t78 -246q0 -164 -80.5 -259.5t-209.5 -95.5zM310 129q46 0 71 47.5t25 137.5q0 98 -28 156.5t-78 58.5q-45 0 -70.5 -49.5t-25.5 -134.5q0 -99 28 -157.5t78 -58.5z" />
    <glyph glyph-name="one" unicode="1" 
d="M427 148h123v-148h-451v148h151v360l-156 -15l-9 126l342 58v-529z" />
    <glyph glyph-name="two" unicode="2" 
d="M276 140q165 16 279 16v-156h-501v127q174 140 231 203.5t57 112.5q0 35 -23 55.5t-60 20.5q-69 0 -133 -66l-80 103q41 51 106.5 85t140.5 34q105 0 173.5 -58t68.5 -151q0 -83 -60 -154t-199 -172z" />
    <glyph glyph-name="three" unicode="3" 
d="M440 347q122 -49 122 -162q0 -94 -78.5 -148t-208.5 -54q-127 0 -225 52v150q94 -58 212 -58q50 0 82.5 19t32.5 50q0 64 -140 64h-80v134h78q59 0 93.5 19.5t34.5 52.5q0 28 -27 46t-69 18q-80 0 -154 -58l-70 108q46 43 113.5 69t143.5 26q107 0 175.5 -50.5
t68.5 -130.5q0 -100 -104 -147z" />
    <glyph glyph-name="four" unicode="4" 
d="M589 257v-142h-99v-115h-169v115h-312v127l327 423h154v-408h99zM323 257l6 186l-145 -186h139z" />
    <glyph glyph-name="five" unicode="5" 
d="M346 429q98 0 160.5 -56.5t62.5 -142.5q0 -115 -84.5 -180t-220.5 -65q-129 0 -214 54v163q87 -61 200 -61q60 0 94.5 19t34.5 54q0 33 -26.5 52.5t-77.5 19.5q-64 0 -144 -33l-65 51l39 354l435 -2v-154l-305 2l-14 -102q64 27 125 27z" />
    <glyph glyph-name="six" unicode="6" 
d="M369 427q88 0 150.5 -52.5t62.5 -150.5q0 -105 -72.5 -173t-187.5 -68q-129 0 -206.5 88.5t-77.5 235.5q0 165 92 266.5t231 101.5q89 0 162 -23v-148q-64 27 -140 27q-63 0 -103 -39t-53 -113q60 48 142 48zM324 127q36 0 56.5 22t20.5 55q0 36 -25 62t-65 26t-88 -30
q13 -135 101 -135z" />
    <glyph glyph-name="seven" unicode="7" 
d="M559 658v-128l-260 -530h-206l285 505q-93 -11 -311 -11v164h492z" />
    <glyph glyph-name="eight" unicode="8" 
d="M454 344q129 -46 129 -163q0 -90 -77 -145t-201 -55t-201 52.5t-77 136.5q0 56 35.5 99t95.5 67q-110 53 -110 150q0 85 71 138t186 53t185.5 -50.5t70.5 -132.5q0 -101 -107 -150zM305 534q-38 0 -59.5 -17t-21.5 -46q0 -50 91 -75q70 27 70 75q0 29 -21.5 46t-58.5 17z
M305 124q43 0 69 19.5t26 51.5q0 58 -98 84q-43 -13 -67.5 -35t-24.5 -49q0 -32 26 -51.5t69 -19.5z" />
    <glyph glyph-name="nine" unicode="9" 
d="M292 675q127 0 204 -94t77 -250q0 -163 -84.5 -255.5t-221.5 -92.5q-110 0 -199 33v148q82 -37 173 -37q67 0 102.5 37.5t43.5 114.5q-61 -47 -144 -47q-89 0 -150.5 52t-61.5 147q0 105 75 174.5t186 69.5zM211 448q0 -39 25 -60t68 -21q45 0 84 25q-15 139 -100 139
q-35 0 -56 -23t-21 -60z" />
    <glyph glyph-name="colon" unicode=":" horiz-adv-x="307" 
d="M154 277q-45 0 -76 30t-31 74q0 43 31.5 74t75.5 31q43 0 74.5 -31t31.5 -74q0 -44 -31 -74t-75 -30zM153 -8q-45 0 -76 30t-31 74q0 43 31.5 74t75.5 31q43 0 74.5 -31t31.5 -74q0 -44 -31 -74t-75 -30z" />
    <glyph glyph-name="semicolon" unicode=";" horiz-adv-x="299" 
d="M147 277q-45 0 -76 30t-31 74q0 43 31.5 74t75.5 31q43 0 74.5 -31t31.5 -74q0 -44 -31 -74t-75 -30zM132 -157l-109 64q44 84 44 204v72h172v-75q0 -158 -107 -265z" />
    <glyph glyph-name="less" unicode="&#x3c;" 
d="M511 571v-175l-257 -95l257 -96v-175l-447 204v133z" />
    <glyph glyph-name="equal" unicode="=" 
d="M62 341v158h486v-158h-486zM62 100v159h486v-159h-486z" />
    <glyph glyph-name="greater" unicode="&#x3e;" 
d="M99 571l447 -204v-133l-447 -204v175l257 96l-257 95v175z" />
    <glyph glyph-name="question" unicode="?" horiz-adv-x="535" 
d="M156 226q-7 20 -7 53q0 32 26.5 62.5t58.5 50t58.5 45.5t26.5 51q0 46 -76 46q-81 0 -151 -52l-68 106q47 41 113 66.5t138 25.5q102 0 164.5 -50t62.5 -132q0 -43 -19.5 -79.5t-47 -60.5t-55.5 -43t-47.5 -35.5t-19.5 -30.5q0 -15 2 -23h-159zM238 -8q-43 0 -72.5 26.5
t-29.5 65.5q0 40 29.5 67.5t72.5 27.5q42 0 71.5 -27.5t29.5 -67.5q0 -39 -29.5 -65.5t-71.5 -26.5z" />
    <glyph glyph-name="at" unicode="@" horiz-adv-x="956" 
d="M534 642q177 0 282.5 -86.5t105.5 -228.5q0 -113 -68.5 -193t-171.5 -80q-93 0 -116 77q-56 -80 -150 -80q-67 0 -111 46t-44 119q0 90 66.5 155t161.5 65q83 0 150 -54l82 14l-42 -163q-3 -11 -3 -22q0 -25 25 -25q31 0 55 39t24 89q0 51 -24 90.5t-64 61.5t-85.5 33
t-94.5 11q-140 0 -232.5 -83.5t-92.5 -216.5q0 -109 67.5 -169.5t194.5 -60.5q96 0 177 38l46 -102q-44 -33 -113 -52t-143 -19q-174 0 -280 96t-106 257q0 128 67 230t182 158t255 56zM398 242q0 -37 19.5 -57t54.5 -20q37 0 64 30l22 92q-10 20 -30.5 33.5t-44.5 13.5
q-36 0 -60.5 -25.5t-24.5 -66.5z" />
    <glyph glyph-name="A" unicode="A" horiz-adv-x="722" 
d="M538 -1l-54 131h-268l-53 -130h-171l278 658h183l276 -658zM275 276h149l-75 183z" />
    <glyph glyph-name="B" unicode="B" horiz-adv-x="713" 
d="M560 337q53 -19 82.5 -57.5t29.5 -85.5q0 -97 -65.5 -145.5t-160.5 -48.5h-368v658h335q108 0 174 -45t66 -130q0 -49 -24.5 -88t-68.5 -58zM401 514h-142v-116h141q31 0 48 15t17 41t-17.5 43t-46.5 17zM415 144q35 0 52.5 17t17.5 45q0 57 -69 57h-157v-119h156z" />
    <glyph glyph-name="C" unicode="C" horiz-adv-x="667" 
d="M403 142q94 0 177 67l81 -112q-121 -119 -293 -119q-150 0 -240 92.5t-90 244.5q0 161 100 263t255 102q108 0 210 -47v-174q-92 65 -192 65q-84 0 -131.5 -51.5t-47.5 -138.5q0 -88 46 -140t125 -52z" />
    <glyph glyph-name="D" unicode="D" horiz-adv-x="733" 
d="M78 0v658h260q163 0 260 -85t97 -233q0 -151 -105 -245.5t-268 -94.5h-244zM261 149h76q77 0 121.5 44t44.5 128q0 91 -48 139.5t-132 48.5h-62v-360z" />
    <glyph glyph-name="E" unicode="E" horiz-adv-x="668" 
d="M261 144h364v-144h-547v658h534v-144h-351v-111h296v-144h-296v-115z" />
    <glyph glyph-name="F" unicode="F" horiz-adv-x="625" 
d="M78 0v658h516v-144h-333v-141h288v-145h-288v-228h-183z" />
    <glyph glyph-name="G" unicode="G" horiz-adv-x="713" 
d="M508 335h158v-277q-48 -34 -123 -57t-155 -23q-158 0 -254 91.5t-96 244.5q0 159 100.5 262.5t255.5 103.5q61 0 125 -15.5t107 -37.5v-175q-110 72 -210 72q-85 0 -135.5 -53t-50.5 -142q0 -88 49 -143.5t131 -55.5q48 0 98 19v186zM554 176l4 4z" />
    <glyph glyph-name="H" unicode="H" horiz-adv-x="788" 
d="M78 0v658h183v-259h266v259h183v-658h-183v250l-266 1v-251h-183z" />
    <glyph glyph-name="I" unicode="I" horiz-adv-x="340" 
d="M78 0v658h183v-658h-183z" />
    <glyph glyph-name="J" unicode="J" horiz-adv-x="520" 
d="M225 -22q-67 0 -132 32t-100 82l81 100q58 -58 134 -58q56 0 56 76v448h183v-472q0 -98 -58 -153t-164 -55z" />
    <glyph glyph-name="K" unicode="K" horiz-adv-x="719" 
d="M505 0l-157 266l-87 -93v-173h-183v658h183v-268l222 268h229l-242 -260l249 -398h-214z" />
    <glyph glyph-name="L" unicode="L" horiz-adv-x="598" 
d="M78 658h183v-509h322v-149h-505v658z" />
    <glyph glyph-name="M" unicode="M" horiz-adv-x="847" 
d="M604 658h165v-658h-180v369l-120 -178h-94l-132 178v-369h-165v658h166l190 -258z" />
    <glyph glyph-name="N" unicode="N" horiz-adv-x="781" 
d="M538 658h165v-658h-151l-309 376v-376h-165v658h164l296 -363v363z" />
    <glyph glyph-name="O" unicode="O" horiz-adv-x="782" 
d="M384 -22q-156 0 -251 93.5t-95 246.5q0 163 98.5 262.5t261.5 99.5q157 0 251 -94t94 -246q0 -163 -98 -262.5t-261 -99.5zM399 127q71 0 111.5 52.5t40.5 141.5q0 96 -44.5 153t-122.5 57q-71 0 -112.5 -53t-41.5 -141q0 -95 45.5 -152.5t123.5 -57.5z" />
    <glyph glyph-name="P" unicode="P" horiz-adv-x="681" 
d="M384 658q128 0 201.5 -61.5t73.5 -164.5q0 -106 -76 -171t-199 -65h-123v-196h-183v658h306zM370 341q44 0 70.5 23.5t26.5 63.5t-26.5 63t-70.5 23h-109v-173h109z" />
    <glyph glyph-name="Q" unicode="Q" horiz-adv-x="795" 
d="M782 7l-106 -106l-117 115q-76 -38 -175 -38q-156 0 -251 93.5t-95 246.5q0 163 98.5 262.5t261.5 99.5q157 0 251 -94t94 -246q0 -134 -68 -227zM399 127q20 0 42 5l-60 59l106 107l55 -54q9 35 9 77q0 96 -44.5 153t-122.5 57q-71 0 -112.5 -53t-41.5 -141
q0 -95 45.5 -152.5t123.5 -57.5z" />
    <glyph glyph-name="R" unicode="R" horiz-adv-x="726" 
d="M488 0l-115 212h-112v-212h-183v658h327q125 0 196 -59t71 -159q0 -62 -32 -111.5t-88 -79.5l149 -249h-213zM261 514v-158h128q43 0 67 21.5t24 58.5q0 35 -25 56.5t-67 21.5h-127z" />
    <glyph glyph-name="S" unicode="S" horiz-adv-x="662" 
d="M346 -22q-82 0 -169 25.5t-149 64.5l51 128q154 -69 271 -69q97 0 97 51q0 24 -26.5 33.5t-104.5 21.5q-9 1 -14 2q-124 20 -188 70t-64 139q0 104 82 170t209 66q60 0 129.5 -15t117.5 -39v-166q-113 71 -235 71q-57 0 -89.5 -16t-32.5 -45q0 -9 3.5 -16t11 -12.5t16 -9
t24 -7t28 -5.5t35 -6t38.5 -7q39 -8 63.5 -14.5t62.5 -22.5t60 -36t39 -54t17 -77q0 -101 -78 -163t-205 -62z" />
    <glyph glyph-name="T" unicode="T" horiz-adv-x="642" 
d="M230 509h-216v149h614v-149h-215v-509h-183v509z" />
    <glyph glyph-name="U" unicode="U" horiz-adv-x="758" 
d="M378 -22q-143 0 -225 77.5t-82 213.5v389h183v-393q0 -62 36.5 -95.5t95.5 -33.5t96.5 33.5t37.5 95.5v393h167v-389q0 -133 -84 -212t-225 -79z" />
    <glyph glyph-name="V" unicode="V" horiz-adv-x="704" 
d="M536 658h174l-266 -658h-185l-265 658h193l175 -469z" />
    <glyph glyph-name="W" unicode="W" horiz-adv-x="967" 
d="M800 658h158l-192 -658h-171l-114 397l-109 -397h-171l-193 658h178l114 -448l110 448h166l114 -448z" />
    <glyph glyph-name="X" unicode="X" horiz-adv-x="708" 
d="M706 0h-213l-153 209l-140 -209h-198l245 336l-236 322h214l143 -196l130 196h198l-235 -323z" />
    <glyph glyph-name="Y" unicode="Y" horiz-adv-x="672" 
d="M494 658h186l-252 -404v-254h-184v254l-252 404h204l149 -261z" />
    <glyph glyph-name="Z" unicode="Z" horiz-adv-x="664" 
d="M280 144h342v-144h-578v138l337 376h-327v144h558v-133z" />
    <glyph glyph-name="bracketleft" unicode="[" horiz-adv-x="359" 
d="M330 2v-134h-259v861h259v-134h-99v-593h99z" />
    <glyph glyph-name="backslash" unicode="\" horiz-adv-x="461" 
d="M440 -39h-160l-261 745h160z" />
    <glyph glyph-name="bracketright" unicode="]" horiz-adv-x="359" 
d="M29 2h99v593h-99v134h259v-861h-259v134z" />
    <glyph glyph-name="asciicircum" unicode="^" 
d="M569 398h-157l-107 152l-107 -152h-157l197 262h134z" />
    <glyph glyph-name="underscore" unicode="_" horiz-adv-x="441" 
d="M-39 -219v151h519v-151h-519z" />
    <glyph glyph-name="grave" unicode="`" horiz-adv-x="325" 
d="M253 527l-237 145l93 116l210 -178z" />
    <glyph glyph-name="a" unicode="a" horiz-adv-x="628" 
d="M464 475l104 25v-500h-170v61q-60 -78 -153 -78q-91 0 -154.5 67t-63.5 170q0 120 85.5 200.5t203.5 80.5q66 0 148 -26zM313 124q49 0 78 33v192q-35 19 -73 19q-46 0 -77 -29.5t-31 -91.5q0 -57 27.5 -90t75.5 -33z" />
    <glyph glyph-name="b" unicode="b" horiz-adv-x="632" 
d="M372 501q97 0 165 -68t68 -182q0 -122 -82.5 -196.5t-218.5 -74.5q-120 0 -246 56v638l177 36v-258q60 49 137 49zM313 113q47 0 78 29t31 88q0 58 -31.5 98t-86.5 40q-41 0 -69 -22v-212q37 -21 78 -21z" />
    <glyph glyph-name="c" unicode="c" horiz-adv-x="528" 
d="M295 -22q-120 0 -194 69.5t-74 180.5q0 120 82 197.5t202 77.5q83 0 167 -37v-150q-66 47 -143 47q-57 0 -92 -31.5t-35 -83.5q0 -57 33 -89.5t91 -32.5q64 0 127 38l64 -98q-43 -41 -105 -64.5t-123 -23.5z" />
    <glyph glyph-name="d" unicode="d" horiz-adv-x="631" 
d="M394 674l176 36v-710h-169v62q-63 -79 -164 -79q-91 0 -150.5 66t-59.5 171q0 123 83.5 202t207.5 79q30 0 76 -7v180zM317 124q48 0 77 34v190q-35 20 -77 20q-47 0 -77 -27.5t-30 -87.5q0 -59 29 -94t78 -35z" />
    <glyph glyph-name="e" unicode="e" horiz-adv-x="593" 
d="M507 152l58 -87q-104 -87 -248 -87q-130 0 -210 69t-80 183q0 116 83 194.5t207 78.5q108 0 174.5 -60.5t66.5 -158.5q0 -53 -17 -92h-333q33 -79 149 -79q68 0 150 39zM316 383q-36 0 -67.5 -19t-44.5 -56h201q-5 35 -28.5 55t-60.5 20z" />
    <glyph glyph-name="f" unicode="f" horiz-adv-x="410" 
d="M315 583q-78 0 -78 -78v-23h163v-136h-163v-346h-177v498q0 222 229 222q81 0 152 -23v-137q-63 23 -126 23z" />
    <glyph glyph-name="g" unicode="g" horiz-adv-x="670" 
d="M664 482v-148l-113 9q22 -36 22 -81q0 -88 -75 -147.5t-190 -59.5h-20l-71 -111q105 71 223 71q188 0 204 -207l-185 -23q-7 49 -31 66t-65 17q-111 0 -222 -66l-107 68l94 234q-96 63 -96 168q0 94 77.5 160.5t194.5 66.5q57 0 105 -17h255zM307 177q40 0 68 25.5
t28 69.5q0 46 -30 74t-73 28q-42 0 -70.5 -25.5t-28.5 -69.5q0 -46 31.5 -74t74.5 -28z" />
    <glyph glyph-name="h" unicode="h" horiz-adv-x="637" 
d="M401 499q80 0 131 -54.5t51 -153.5v-291h-176v235q0 117 -77 117q-52 0 -93 -46v-306h-177v674l177 36v-278q67 67 164 67z" />
    <glyph glyph-name="i" unicode="i" horiz-adv-x="295" 
d="M145 531q-43 0 -71.5 26.5t-28.5 68.5q0 40 29 68t71 28q43 0 72.5 -28t29.5 -68q0 -41 -29.5 -68t-72.5 -27zM58 0v465l177 35v-500h-177z" />
    <glyph glyph-name="j" unicode="j" horiz-adv-x="299" 
d="M150 531q-43 0 -71.5 26.5t-28.5 68.5q0 40 29 68t71 28q43 0 72.5 -28t29.5 -68q0 -41 -29.5 -68t-72.5 -27zM102 -215l-97 71q35 57 46.5 111.5t11.5 170.5v327l177 35v-400q0 -203 -138 -315z" />
    <glyph glyph-name="k" unicode="k" horiz-adv-x="631" 
d="M424 0l-118 180l-69 -64v-116h-177v674l177 36v-410l169 182h221l-200 -187l218 -295h-221z" />
    <glyph glyph-name="l" unicode="l" horiz-adv-x="298" 
d="M60 0v674l177 36v-710h-177z" />
    <glyph glyph-name="m" unicode="m" horiz-adv-x="896" 
d="M679 497q76 0 120 -53.5t44 -144.5v-299h-177v252q0 98 -59 98q-41 0 -68 -35v-16v-299h-177v252q0 98 -59 98q-42 0 -68 -35v-315h-177v465l170 35v-73q59 70 143 70q97 0 143 -88q59 88 165 88z" />
    <glyph glyph-name="n" unicode="n" horiz-adv-x="634" 
d="M398 499q80 0 131 -54.5t51 -153.5v-291h-176v235q0 117 -77 117q-52 0 -92 -45v-307h-177v465l170 35v-74q65 73 170 73z" />
    <glyph glyph-name="o" unicode="o" horiz-adv-x="628" 
d="M309 -22q-121 0 -202 73t-81 181q0 116 83.5 193.5t209.5 77.5q121 0 202 -73.5t81 -181.5q0 -115 -83.5 -192.5t-209.5 -77.5zM319 109q49 0 75.5 32.5t26.5 90.5q0 66 -30 103.5t-82 37.5q-49 0 -75.5 -33t-26.5 -92q0 -65 30 -102t82 -37z" />
    <glyph glyph-name="p" unicode="p" horiz-adv-x="629" 
d="M380 501q90 0 156 -68.5t66 -181.5q0 -122 -80 -196.5t-208 -74.5q-34 0 -79 7v-187h-177v665l170 35v-60q68 61 152 61zM324 113q95 0 95 111q0 61 -31 98.5t-88 37.5q-39 0 -65 -20v-197q37 -30 89 -30z" />
    <glyph glyph-name="q" unicode="q" horiz-adv-x="624" 
d="M318 503q112 0 248 -68v-635h-176v251q-56 -68 -150 -68q-97 0 -154.5 65t-57.5 168q0 123 83 205t207 82zM311 125q49 0 79 37v185q-39 23 -81 23t-70 -29t-28 -92q0 -58 26 -91t74 -33z" />
    <glyph glyph-name="r" unicode="r" horiz-adv-x="451" 
d="M379 499q31 0 58 -7v-170q-36 12 -74 12q-86 0 -128 -64v-270h-177v465l170 35v-104q28 49 68.5 76t82.5 27z" />
    <glyph glyph-name="s" unicode="s" horiz-adv-x="548" 
d="M283 -22q-72 0 -142.5 20t-119.5 48l44 104q103 -49 214 -49q81 0 81 32q0 6 -2 10t-7 7t-10 4.5t-15.5 3t-18.5 2.5t-23 2.5t-27 2.5q-104 13 -162.5 48t-58.5 111q0 85 64 132t179 47q107 0 202 -38v-131q-37 22 -93 35.5t-107 13.5q-84 0 -84 -34q0 -15 15.5 -20
t55.5 -10q3 0 5 -0.5t5.5 -1t6.5 -0.5q33 -4 53.5 -7.5t52.5 -11.5t51.5 -19t40 -28t30 -41.5t9.5 -56.5q0 -81 -63.5 -128t-175.5 -47z" />
    <glyph glyph-name="t" unicode="t" horiz-adv-x="409" 
d="M60 0v620l177 35v-173h162v-136l-162 1v-347h-177z" />
    <glyph glyph-name="u" unicode="u" horiz-adv-x="628" 
d="M391 465l177 35v-500h-170v57q-66 -72 -168 -72q-79 0 -130 54.5t-51 153.5v272l177 35v-251q0 -118 75 -118q50 0 90 42v292z" />
    <glyph glyph-name="v" unicode="v" horiz-adv-x="570" 
d="M403 482h173l-200 -482h-180l-202 482h189l110 -300z" />
    <glyph glyph-name="w" unicode="w" horiz-adv-x="811" 
d="M646 482h164l-162 -482h-168l-81 245l-67 -245h-169l-162 482h179l76 -299l76 299h161l83 -299z" />
    <glyph glyph-name="x" unicode="x" horiz-adv-x="598" 
d="M604 0h-212l-108 134l-93 -134h-197l199 248l-187 234h214l96 -121l77 121h198l-186 -233z" />
    <glyph glyph-name="y" unicode="y" horiz-adv-x="559" 
d="M392 482h173l-284 -682h-172l93 200h-1l-208 482h189l106 -283z" />
    <glyph glyph-name="z" unicode="z" horiz-adv-x="555" 
d="M277 135h242v-135h-483v129l231 217h-223v136h467v-129z" />
    <glyph glyph-name="braceleft" unicode="{" horiz-adv-x="378" 
d="M330 595q-81 0 -81 -60q0 -19 9 -66t9 -71q0 -74 -97 -100q97 -26 97 -101q0 -24 -9 -70t-9 -65q0 -60 81 -60h17v-138q-28 -2 -47 -2q-100 0 -156 46t-56 108q0 25 11.5 84t11.5 74q0 31 -18 46t-69 20v117q51 5 69 20t18 46q0 15 -11.5 74t-11.5 84q0 62 56 108t156 46
q19 0 47 -2v-138h-17z" />
    <glyph glyph-name="bar" unicode="|" horiz-adv-x="295" 
d="M72 860h151v-1061h-151v1061z" />
    <glyph glyph-name="braceright" unicode="}" horiz-adv-x="378" 
d="M354 240q-51 -5 -69 -20t-18 -46q0 -15 11.5 -74t11.5 -84q0 -62 -56 -108t-156 -46q-19 0 -47 2v138h17q81 0 81 60q0 19 -9 66t-9 71q0 74 97 100q-97 26 -97 101q0 24 9 70t9 65q0 60 -81 60h-17v138q28 2 47 2q100 0 156 -46t56 -108q0 -25 -11.5 -84t-11.5 -74
q0 -31 18 -46t69 -20v-117z" />
    <glyph glyph-name="asciitilde" unicode="~" 
d="M421 136q-42 0 -117 33.5t-101 33.5q-28 0 -45.5 -15t-28.5 -52l-96 49q8 62 48 106.5t106 44.5q44 0 119 -33.5t100 -33.5q29 0 46 14.5t28 52.5l96 -49q-8 -62 -48 -106.5t-107 -44.5z" />
    <glyph glyph-name="uni00A0" unicode="&#xa0;" horiz-adv-x="233" 
 />
    <glyph glyph-name="exclamdown" unicode="&#xa1;" horiz-adv-x="322" 
d="M263 574q0 -40 -30 -67.5t-72 -27.5t-72 27.5t-30 67.5q0 39 30 65.5t72 26.5t72 -26.5t30 -65.5zM245 432l18 -432h-203l17 432h168z" />
    <glyph glyph-name="cent" unicode="&#xa2;" 
d="M558 65q-52 -49 -122 -71v-125h-144l1 111q-107 10 -169.5 78.5t-62.5 170.5q0 105 65 178.5t166 91.5v114h144v-122q38 -10 76 -26v-139q-44 22 -87 33v-231q37 11 70 33zM233 248q0 -85 71 -116v228q-71 -28 -71 -112z" />
    <glyph glyph-name="sterling" unicode="&#xa3;" 
d="M265 139q98 16 294 16l-3 -155h-487v104q70 65 81 146h-92v136h69q-18 40 -18 95q0 83 61.5 138.5t163.5 55.5q130 0 223 -71l-61 -112q-62 34 -121 34q-94 0 -94 -80q0 -22 10 -60h177v-136h-155q-10 -58 -48 -111z" />
    <glyph glyph-name="yen" unicode="&#xa5;" 
d="M644 658l-144 -231h106v-112h-176l-27 -43h203v-112h-214v-160h-184v160h-183v112h172l-27 43h-145v112h75l-144 231h204l149 -261l149 261h186z" />
    <glyph glyph-name="brokenbar" unicode="&#xa6;" horiz-adv-x="295" 
d="M72 428v432h151v-432h-151zM72 -201v431h151v-431h-151z" />
    <glyph glyph-name="section" unicode="&#xa7;" horiz-adv-x="587" 
d="M458 234q75 -38 75 -122q0 -86 -61.5 -130t-164.5 -44q-76 0 -152 21t-119 50l45 105q94 -52 215 -52q83 0 83 34q0 4 -1 7.5t-4 6t-6 4t-8.5 3t-11 2.5t-14.5 2t-16.5 2t-20.5 2.5t-23 2.5q-110 15 -167.5 44t-57.5 93q0 83 94 121q-75 38 -75 124q0 85 64.5 127.5
t148.5 42.5q130 0 227 -38v-133q-118 47 -214 47q-75 0 -75 -35q0 -13 14.5 -17t66.5 -10h3t3 -0.5t4 -0.5q239 -27 239 -137q0 -85 -91 -122zM210 311q0 -29 91 -38q12 -2 18 -2q68 11 68 38q0 16 -23 24.5t-82 16.5l-10 1q-62 -16 -62 -40z" />
    <glyph glyph-name="dieresis" unicode="&#xa8;" horiz-adv-x="475" 
d="M126 552q-34 0 -59 25t-25 59q0 36 25 61.5t59 25.5q36 0 61.5 -25.5t25.5 -61.5q0 -35 -25.5 -59.5t-61.5 -24.5zM352 552q-35 0 -60 24.5t-25 59.5q0 36 25 61.5t60 25.5q36 0 61 -25.5t25 -61.5q0 -35 -25 -59.5t-61 -24.5z" />
    <glyph glyph-name="copyright" unicode="&#xa9;" horiz-adv-x="773" 
d="M386 -22q-145 0 -247.5 103t-102.5 248t102.5 248t247.5 103t248 -103t103 -248q0 -147 -99.5 -249t-251.5 -102zM386 44q123 0 201 82t78 203q0 118 -81.5 201.5t-197.5 83.5q-115 0 -196.5 -83.5t-81.5 -201.5t81.5 -201.5t196.5 -83.5zM392 124q-91 0 -147.5 54.5
t-56.5 142.5q0 94 60.5 154.5t152.5 60.5q57 0 118 -27v-128q-49 34 -98 34q-38 0 -57 -23t-19 -59q0 -34 21 -56t56 -22q36 0 82 31l61 -92q-72 -70 -173 -70z" />
    <glyph glyph-name="ordfeminine" unicode="&#xaa;" horiz-adv-x="526" 
d="M385 644l82 18v-398l-143 2v30q-52 -49 -116 -49q-71 0 -124.5 55.5t-53.5 144.5q0 97 64.5 157.5t163.5 60.5q64 0 127 -21zM192 470q0 -42 24 -70t60 -28q22 0 39 12v148q-25 17 -53 17q-33 0 -51.5 -22t-18.5 -57z" />
    <glyph glyph-name="guillemotleft" unicode="&#xab;" horiz-adv-x="653" 
d="M350 377l-169 -139l169 -138l-77 -92l-247 200v61l247 199zM624 377l-169 -139l169 -138l-77 -92l-247 200v61l247 199z" />
    <glyph glyph-name="logicalnot" unicode="&#xac;" 
d="M375 66v151h-329v165h506v-316h-177z" />
    <glyph glyph-name="registered" unicode="&#xae;" horiz-adv-x="501" 
d="M251 680q89 0 153 -62t64 -150t-63.5 -150t-153.5 -62t-153.5 62t-63.5 150t63.5 150t153.5 62zM251 304q68 0 116 48t48 116t-48 116t-116 48q-69 0 -117 -48t-48 -116t48 -116t117 -48zM353 511q0 -43 -39 -66l48 -82h-78l-34 67h-25v-67h-70v221h111q37 0 62 -21.5
t25 -51.5zM225 531v-48h23q33 0 33 24t-30 24h-26z" />
    <glyph glyph-name="macron" unicode="&#xaf;" horiz-adv-x="422" 
d="M55 572v132h312v-132h-312z" />
    <glyph glyph-name="degree" unicode="&#xb0;" horiz-adv-x="401" 
d="M201 344q-73 0 -121.5 47.5t-48.5 116.5q0 68 48.5 115.5t121.5 47.5t121.5 -47.5t48.5 -115.5q0 -69 -48.5 -116.5t-121.5 -47.5zM201 443q29 0 47 18t18 47q0 28 -18 46.5t-47 18.5t-47 -18t-18 -47t18 -47t47 -18z" />
    <glyph glyph-name="plusminus" unicode="&#xb1;" 
d="M393 405h163v-152h-163v-74h-176v74h-163v152h163v157h176v-157zM54 -7v152h502v-152h-502z" />
    <glyph glyph-name="uni00B2" unicode="&#xb2;" horiz-adv-x="452" 
d="M229 347q103 14 174 14v-131h-353v101q113 87 147.5 118.5t34.5 53.5q0 18 -11.5 28.5t-29.5 10.5q-31 0 -83 -37l-65 82q26 34 74.5 59t104.5 25q70 0 120 -38.5t50 -98.5q0 -53 -41.5 -97t-121.5 -90z" />
    <glyph glyph-name="uni00B3" unicode="&#xb3;" horiz-adv-x="437" 
d="M315 459q80 -34 80 -106q0 -60 -54.5 -96.5t-139.5 -36.5q-83 0 -153 31v125q61 -34 131 -34q57 0 57 26q0 22 -73 22h-46v108h41q34 0 51.5 9.5t17.5 23.5q0 24 -47 24q-40 0 -87 -21l-53 86q75 55 179 55q71 0 118 -32.5t47 -82.5q0 -65 -69 -101z" />
    <glyph glyph-name="acute" unicode="&#xb4;" horiz-adv-x="325" 
d="M82 527l-65 83l209 178l94 -116z" />
    <glyph glyph-name="uni00B5" unicode="&#xb5;" horiz-adv-x="660" 
d="M411 465l177 35v-500h-170v63q-42 -76 -101 -76q-62 0 -86 54q6 -102 50 -241l-185 1q-32 137 -32 392v272l177 35v-257q0 -113 78 -113q53 0 92 49v286z" />
    <glyph glyph-name="paragraph" unicode="&#xb6;" horiz-adv-x="894" 
d="M300 -145q68 74 68 182v136h-48q-128 0 -211 65t-83 170q0 117 82.5 183.5t210.5 66.5h532v-140h-85v-518h-157v518h-83v-478q0 -76 -31 -143t-89 -115zM195 417q0 -44 29 -74t87 -30h57v205h-57q-58 0 -87 -28.5t-29 -72.5z" />
    <glyph glyph-name="periodcentered" unicode="&#xb7;" horiz-adv-x="294" 
d="M147 149q-45 0 -76 30t-31 74q0 43 31.5 74t75.5 31q43 0 74.5 -31t31.5 -74q0 -44 -31 -74t-75 -30z" />
    <glyph glyph-name="cedilla" unicode="&#xb8;" horiz-adv-x="345" 
d="M206 -35q99 0 99 -75q0 -47 -41 -73.5t-107 -26.5q-73 0 -122 22l25 74q44 -17 96 -17q48 0 48 15q0 14 -56 14q-31 0 -43 -4l-30 33l39 94h88l-25 -56h29z" />
    <glyph glyph-name="uni00B9" unicode="&#xb9;" horiz-adv-x="418" 
d="M304 354h79v-124h-324v124h96v179l-98 -8l-7 118l254 30v-319z" />
    <glyph glyph-name="ordmasculine" unicode="&#xba;" horiz-adv-x="531" 
d="M262 247q-103 0 -168.5 56t-65.5 148q0 94 68 154t176 60q103 0 167.5 -56t64.5 -148q0 -94 -67.5 -154t-174.5 -60zM272 365q33 0 53.5 23.5t20.5 63.5q0 43 -23.5 71.5t-59.5 28.5q-33 0 -54 -24t-21 -64q0 -43 23.5 -71t60.5 -28z" />
    <glyph glyph-name="guillemotright" unicode="&#xbb;" horiz-adv-x="653" 
d="M353 269v-61l-247 -200l-77 92l169 138l-169 139l77 91zM380 468l247 -199v-61l-247 -200l-77 92l169 138l-169 139z" />
    <glyph glyph-name="onequarter" unicode="&#xbc;" horiz-adv-x="1029" 
d="M374 230h-324v124h96v179l-98 -8l-7 118l254 30v-319h79v-124zM750 658h146l-535 -658h-145zM998 167v-105h-57v-62h-135v62h-201v104l216 268h120v-267h57zM808 167l5 106l-85 -106h80z" />
    <glyph glyph-name="onehalf" unicode="&#xbd;" horiz-adv-x="1078" 
d="M370 230h-324v124h96v179l-98 -8l-7 118l254 30v-319h79v-124zM746 658h146l-535 -658h-145zM874 117q103 14 174 14v-131h-353v101q113 87 147.5 118.5t34.5 53.5q0 18 -11.5 28.5t-29.5 10.5q-31 0 -83 -37l-65 82q26 34 74.5 59t104.5 25q70 0 120 -38.5t50 -98.5
q0 -53 -41.5 -97t-121.5 -90z" />
    <glyph glyph-name="threequarters" unicode="&#xbe;" horiz-adv-x="1000" 
d="M173 342q57 0 57 26q0 22 -73 22h-46v108h41q34 0 51.5 9.5t17.5 23.5q0 24 -47 24q-40 0 -87 -21l-53 86q75 55 179 55q71 0 118 -32.5t47 -82.5q0 -65 -69 -101q80 -34 80 -106q0 -60 -54.5 -96.5t-139.5 -36.5q-83 0 -153 31v125q61 -34 131 -34zM721 658h146
l-535 -658h-145zM969 167v-105h-57v-62h-135v62h-201v104l216 268h120v-267h57zM779 167l5 106l-85 -106h80z" />
    <glyph glyph-name="questiondown" unicode="&#xbf;" horiz-adv-x="537" 
d="M298 666q43 0 72.5 -26.5t29.5 -65.5q0 -40 -29.5 -67.5t-72.5 -27.5q-42 0 -71.5 27.5t-29.5 67.5q0 39 29.5 65.5t71.5 26.5zM380 432q7 -20 7 -53q0 -32 -26.5 -62.5t-58.5 -50t-58.5 -45.5t-26.5 -51q0 -46 76 -46q81 0 151 52l68 -106q-47 -41 -113 -66.5
t-138 -25.5q-102 0 -164.5 50t-62.5 132q0 43 19.5 79.5t47 60.5t55.5 43t47.5 35.5t19.5 30.5q0 15 -2 23h159z" />
    <glyph glyph-name="Agrave" unicode="&#xc0;" horiz-adv-x="722" 
d="M496 786l-66 -83l-237 145l93 116zM538 -1l-54 131h-268l-53 -130h-171l278 658h183l276 -658zM275 276h149l-75 183z" />
    <glyph glyph-name="Aacute" unicode="&#xc1;" horiz-adv-x="722" 
d="M527 848l-238 -145l-65 83l209 178zM538 -1l-54 131h-268l-53 -130h-171l278 658h183l276 -658zM275 276h149l-75 183z" />
    <glyph glyph-name="Acircumflex" unicode="&#xc2;" horiz-adv-x="722" 
d="M360 797l-127 -94l-69 81l142 150h109l141 -149l-70 -82zM538 -1l-54 131h-268l-53 -130h-171l278 658h183l276 -658zM275 276h149l-75 183z" />
    <glyph glyph-name="Atilde" unicode="&#xc3;" horiz-adv-x="722" 
d="M296 798q-38 0 -54 -44l-87 35q25 124 116 124q34 0 83.5 -19.5t65.5 -19.5q22 0 33 11t20 33l87 -35q-25 -124 -116 -124q-33 0 -82.5 19.5t-65.5 19.5zM538 -1l-54 131h-268l-53 -130h-171l278 658h183l276 -658zM275 276h149l-75 183z" />
    <glyph glyph-name="Adieresis" unicode="&#xc4;" horiz-adv-x="722" 
d="M246 728q-34 0 -59 25t-25 59q0 36 25 61.5t59 25.5q36 0 61.5 -25.5t25.5 -61.5q0 -35 -25.5 -59.5t-61.5 -24.5zM472 728q-35 0 -60 24.5t-25 59.5q0 36 25 61.5t60 25.5q36 0 61 -25.5t25 -61.5q0 -35 -25 -59.5t-61 -24.5zM538 -1l-54 131h-268l-53 -130h-171
l278 658h183l276 -658zM275 276h149l-75 183z" />
    <glyph glyph-name="Aring" unicode="&#xc5;" horiz-adv-x="722" 
d="M360 712q-52 0 -88.5 32.5t-36.5 79.5q0 46 36.5 79t88.5 33q51 0 88 -33t37 -79q0 -47 -36.5 -79.5t-88.5 -32.5zM360 863q-17 0 -28.5 -11t-11.5 -28q0 -18 11 -28.5t29 -10.5q17 0 28.5 10.5t11.5 28.5q0 16 -11.5 27.5t-28.5 11.5zM538 -1l-54 131h-268l-53 -130
h-171l278 658h183l276 -658zM275 276h149l-75 183z" />
    <glyph glyph-name="AE" unicode="&#xc6;" horiz-adv-x="1072" 
d="M675 144h353v-144h-531v130h-212l-94 -130h-211l517 658h519v-144h-341v-111h291v-144h-291v-115zM392 279h105v146z" />
    <glyph glyph-name="Ccedilla" unicode="&#xc7;" horiz-adv-x="667" 
d="M371 -35q99 0 99 -75q0 -47 -41 -73.5t-107 -26.5q-73 0 -122 22l25 74q44 -17 96 -17q48 0 48 15q0 14 -56 14q-31 0 -43 -4l-30 33l26 64q-106 29 -167 114.5t-61 209.5q0 161 100 263t255 102q108 0 210 -47v-174q-92 65 -192 65q-84 0 -131.5 -51.5t-47.5 -138.5
q0 -88 46 -140t125 -52q94 0 177 67l81 -112q-121 -119 -293 -119h-20l-6 -13h29z" />
    <glyph glyph-name="Egrave" unicode="&#xc8;" horiz-adv-x="668" 
d="M407 703l-237 145l93 116l210 -178zM261 144h364v-144h-547v658h534v-144h-351v-111h296v-144h-296v-115z" />
    <glyph glyph-name="Eacute" unicode="&#xc9;" horiz-adv-x="668" 
d="M266 703l-65 83l209 178l94 -116zM261 144h364v-144h-547v658h534v-144h-351v-111h296v-144h-296v-115z" />
    <glyph glyph-name="Ecircumflex" unicode="&#xca;" horiz-adv-x="668" 
d="M337 797l-127 -94l-69 81l142 150h109l141 -149l-70 -82zM261 144h364v-144h-547v658h534v-144h-351v-111h296v-144h-296v-115z" />
    <glyph glyph-name="Edieresis" unicode="&#xcb;" horiz-adv-x="668" 
d="M223 728q-34 0 -59 25t-25 59q0 36 25 61.5t59 25.5q36 0 61.5 -25.5t25.5 -61.5q0 -35 -25.5 -59.5t-61.5 -24.5zM449 728q-35 0 -60 24.5t-25 59.5q0 36 25 61.5t60 25.5q36 0 61 -25.5t25 -61.5q0 -35 -25 -59.5t-61 -24.5zM261 144h364v-144h-547v658h534v-144h-351
v-111h296v-144h-296v-115z" />
    <glyph glyph-name="Igrave" unicode="&#xcc;" horiz-adv-x="340" 
d="M240 703l-237 145l93 116l210 -178zM78 0v658h183v-658h-183z" />
    <glyph glyph-name="Iacute" unicode="&#xcd;" horiz-adv-x="340" 
d="M99 703l-65 83l209 178l94 -116zM78 0v658h183v-658h-183z" />
    <glyph glyph-name="Icircumflex" unicode="&#xce;" horiz-adv-x="340" 
d="M225 934l141 -149l-70 -82l-126 94l-127 -94l-69 81l142 150h109zM78 0v658h183v-658h-183z" />
    <glyph glyph-name="Idieresis" unicode="&#xcf;" horiz-adv-x="340" 
d="M56 728q-34 0 -59 25t-25 59q0 36 25 61.5t59 25.5q36 0 61.5 -25.5t25.5 -61.5q0 -35 -25.5 -59.5t-61.5 -24.5zM282 728q-35 0 -60 24.5t-25 59.5q0 36 25 61.5t60 25.5q36 0 61 -25.5t25 -61.5q0 -35 -25 -59.5t-61 -24.5zM78 0v658h183v-658h-183z" />
    <glyph glyph-name="Eth" unicode="&#xd0;" horiz-adv-x="776" 
d="M380 658q163 0 260 -85t97 -233q0 -151 -105 -245.5t-268 -94.5h-244v256h-103v149h103v253h260zM379 149q77 0 121.5 44t44.5 128q0 91 -48 139.5t-132 48.5h-62v-104h130v-149h-130v-107h76z" />
    <glyph glyph-name="Ntilde" unicode="&#xd1;" horiz-adv-x="781" 
d="M330 798q-38 0 -54 -44l-87 35q25 124 116 124q34 0 83.5 -19.5t65.5 -19.5q22 0 33 11t20 33l87 -35q-25 -124 -116 -124q-33 0 -82.5 19.5t-65.5 19.5zM538 658h165v-658h-151l-309 376v-376h-165v658h164l296 -363v363z" />
    <glyph glyph-name="Ograve" unicode="&#xd2;" horiz-adv-x="782" 
d="M461 703l-237 145l93 116l210 -178zM384 -22q-156 0 -251 93.5t-95 246.5q0 163 98.5 262.5t261.5 99.5q157 0 251 -94t94 -246q0 -163 -98 -262.5t-261 -99.5zM399 127q71 0 111.5 52.5t40.5 141.5q0 96 -44.5 153t-122.5 57q-71 0 -112.5 -53t-41.5 -141
q0 -95 45.5 -152.5t123.5 -57.5z" />
    <glyph glyph-name="Oacute" unicode="&#xd3;" horiz-adv-x="782" 
d="M320 703l-65 83l209 178l94 -116zM384 -22q-156 0 -251 93.5t-95 246.5q0 163 98.5 262.5t261.5 99.5q157 0 251 -94t94 -246q0 -163 -98 -262.5t-261 -99.5zM399 127q71 0 111.5 52.5t40.5 141.5q0 96 -44.5 153t-122.5 57q-71 0 -112.5 -53t-41.5 -141
q0 -95 45.5 -152.5t123.5 -57.5z" />
    <glyph glyph-name="Ocircumflex" unicode="&#xd4;" horiz-adv-x="782" 
d="M391 797l-127 -94l-69 81l142 150h109l141 -149l-70 -82zM398 680q157 0 251 -94t94 -246q0 -163 -98 -262.5t-261 -99.5q-156 0 -251 93.5t-95 246.5q0 163 98.5 262.5t261.5 99.5zM399 127q71 0 111.5 52.5t40.5 141.5q0 96 -44.5 153t-122.5 57q-71 0 -112.5 -53
t-41.5 -141q0 -95 45.5 -152.5t123.5 -57.5z" />
    <glyph glyph-name="Otilde" unicode="&#xd5;" horiz-adv-x="782" 
d="M273 754l-87 35q25 124 116 124q34 0 83.5 -19.5t65.5 -19.5q22 0 33 11t20 33l87 -35q-25 -124 -116 -124q-33 0 -82.5 19.5t-65.5 19.5q-37 0 -54 -44zM384 -22q-156 0 -251 93.5t-95 246.5q0 163 98.5 262.5t261.5 99.5q157 0 251 -94t94 -246q0 -163 -98 -262.5
t-261 -99.5zM399 127q71 0 111.5 52.5t40.5 141.5q0 96 -44.5 153t-122.5 57q-71 0 -112.5 -53t-41.5 -141q0 -95 45.5 -152.5t123.5 -57.5z" />
    <glyph glyph-name="Odieresis" unicode="&#xd6;" horiz-adv-x="782" 
d="M277 728q-34 0 -59 25t-25 59q0 36 25 61.5t59 25.5q36 0 61.5 -25.5t25.5 -61.5q0 -35 -25.5 -59.5t-61.5 -24.5zM503 728q-35 0 -60 24.5t-25 59.5q0 36 25 61.5t60 25.5q36 0 61 -25.5t25 -61.5q0 -35 -25 -59.5t-61 -24.5zM384 -22q-156 0 -251 93.5t-95 246.5
q0 163 98.5 262.5t261.5 99.5q157 0 251 -94t94 -246q0 -163 -98 -262.5t-261 -99.5zM399 127q71 0 111.5 52.5t40.5 141.5q0 96 -44.5 153t-122.5 57q-71 0 -112.5 -53t-41.5 -141q0 -95 45.5 -152.5t123.5 -57.5z" />
    <glyph glyph-name="multiply" unicode="&#xd7;" 
d="M546 430l-129 -129l129 -130l-111 -112l-130 130l-130 -130l-111 112l130 130l-130 129l111 112l130 -130l130 130z" />
    <glyph glyph-name="Oslash" unicode="&#xd8;" horiz-adv-x="783" 
d="M691 538q55 -85 55 -198q0 -163 -98 -262.5t-261 -99.5q-114 0 -197 51l-52 -53l-100 99l52 53q-50 81 -50 190q0 162 99 262t262 100q107 0 187 -46l48 49l100 -99zM386 538q-73 0 -116.5 -54.5t-43.5 -146.5q0 -43 9 -79l247 251q-40 29 -96 29zM401 120q74 0 116.5 54
t42.5 147q0 49 -12 88l-251 -254q43 -35 104 -35z" />
    <glyph glyph-name="Ugrave" unicode="&#xd9;" horiz-adv-x="758" 
d="M456 703l-237 145l93 116l210 -178zM378 -22q-143 0 -225 77.5t-82 213.5v389h183v-393q0 -62 36.5 -95.5t95.5 -33.5t96.5 33.5t37.5 95.5v393h167v-389q0 -133 -84 -212t-225 -79z" />
    <glyph glyph-name="Uacute" unicode="&#xda;" horiz-adv-x="758" 
d="M315 703l-65 83l209 178l94 -116zM378 -22q-143 0 -225 77.5t-82 213.5v389h183v-393q0 -62 36.5 -95.5t95.5 -33.5t96.5 33.5t37.5 95.5v393h167v-389q0 -133 -84 -212t-225 -79z" />
    <glyph glyph-name="Ucircumflex" unicode="&#xdb;" horiz-adv-x="758" 
d="M386 797l-127 -94l-69 81l142 150h109l141 -149l-70 -82zM520 658h167v-389q0 -133 -84 -212t-225 -79q-143 0 -225 77.5t-82 213.5v389h183v-393q0 -62 36.5 -95.5t95.5 -33.5t96.5 33.5t37.5 95.5v393z" />
    <glyph glyph-name="Udieresis" unicode="&#xdc;" horiz-adv-x="758" 
d="M272 728q-34 0 -59 25t-25 59q0 36 25 61.5t59 25.5q36 0 61.5 -25.5t25.5 -61.5q0 -35 -25.5 -59.5t-61.5 -24.5zM498 728q-35 0 -60 24.5t-25 59.5q0 36 25 61.5t60 25.5q36 0 61 -25.5t25 -61.5q0 -35 -25 -59.5t-61 -24.5zM378 -22q-143 0 -225 77.5t-82 213.5v389
h183v-393q0 -62 36.5 -95.5t95.5 -33.5t96.5 33.5t37.5 95.5v393h167v-389q0 -133 -84 -212t-225 -79z" />
    <glyph glyph-name="Yacute" unicode="&#xdd;" horiz-adv-x="672" 
d="M512 848l-238 -145l-65 83l209 178zM494 658h186l-252 -404v-254h-184v254l-252 404h204l149 -261z" />
    <glyph glyph-name="Thorn" unicode="&#xde;" horiz-adv-x="678" 
d="M373 578q125 0 199 -65t74 -169q0 -100 -74 -164.5t-198 -64.5h-113v-115h-183v658h183v-80h112zM356 264q98 0 98 85q0 36 -24 58t-74 22h-95v-165h95z" />
    <glyph glyph-name="germandbls" unicode="&#xdf;" horiz-adv-x="662" 
d="M465 -22q-55 0 -109.5 18t-90.5 43l38 113q88 -50 164 -50q20 0 20 16q0 12 -14.5 21t-62.5 31q-66 29 -93 53.5t-27 63.5q0 31 16 62t34.5 53t34.5 52.5t16 60.5q0 36 -19.5 55.5t-49.5 19.5q-37 0 -61 -28.5t-24 -76.5v-485h-177v442q0 128 78 203t193 75q93 0 159 -48
t66 -128q0 -36 -15.5 -69t-34 -52.5t-34 -40.5t-15.5 -36q0 -5 1.5 -9t5.5 -8t7.5 -7t12 -7.5t14.5 -7t19 -8.5t22 -10q106 -51 106 -150q0 -70 -51 -115.5t-129 -45.5z" />
    <glyph glyph-name="agrave" unicode="&#xe0;" horiz-adv-x="628" 
d="M443 610l-66 -83l-237 145l93 116zM464 475l104 25v-500h-170v61q-60 -78 -153 -78q-91 0 -154.5 67t-63.5 170q0 120 85.5 200.5t203.5 80.5q66 0 148 -26zM313 124q49 0 78 33v192q-35 19 -73 19q-46 0 -77 -29.5t-31 -91.5q0 -57 27.5 -90t75.5 -33z" />
    <glyph glyph-name="aacute" unicode="&#xe1;" horiz-adv-x="628" 
d="M474 672l-238 -145l-65 83l209 178zM464 475l104 25v-500h-170v61q-60 -78 -153 -78q-91 0 -154.5 67t-63.5 170q0 120 85.5 200.5t203.5 80.5q66 0 148 -26zM313 124q49 0 78 33v192q-35 19 -73 19q-46 0 -77 -29.5t-31 -91.5q0 -57 27.5 -90t75.5 -33z" />
    <glyph glyph-name="acircumflex" unicode="&#xe2;" horiz-adv-x="628" 
d="M307 621l-127 -94l-69 81l142 150h109l141 -149l-70 -82zM464 475l104 25v-500h-170v61q-60 -78 -153 -78q-91 0 -154.5 67t-63.5 170q0 120 85.5 200.5t203.5 80.5q66 0 148 -26zM313 124q49 0 78 33v192q-35 19 -73 19q-46 0 -77 -29.5t-31 -91.5q0 -57 27.5 -90
t75.5 -33z" />
    <glyph glyph-name="atilde" unicode="&#xe3;" horiz-adv-x="628" 
d="M243 622q-37 0 -54 -44l-87 35q25 124 116 124q34 0 83.5 -19.5t65.5 -19.5q22 0 33 11t20 33l87 -35q-25 -124 -116 -124q-33 0 -82.5 19.5t-65.5 19.5zM464 475l104 25v-500h-170v61q-60 -78 -153 -78q-91 0 -154.5 67t-63.5 170q0 120 85.5 200.5t203.5 80.5
q66 0 148 -26zM313 124q49 0 78 33v192q-35 19 -73 19q-46 0 -77 -29.5t-31 -91.5q0 -57 27.5 -90t75.5 -33z" />
    <glyph glyph-name="adieresis" unicode="&#xe4;" horiz-adv-x="628" 
d="M193 552q-34 0 -59 25t-25 59q0 36 25 61.5t59 25.5q36 0 61.5 -25.5t25.5 -61.5q0 -35 -25.5 -59.5t-61.5 -24.5zM419 552q-35 0 -60 24.5t-25 59.5q0 36 25 61.5t60 25.5q36 0 61 -25.5t25 -61.5q0 -35 -25 -59.5t-61 -24.5zM464 475l104 25v-500h-170v61
q-60 -78 -153 -78q-91 0 -154.5 67t-63.5 170q0 120 85.5 200.5t203.5 80.5q66 0 148 -26zM313 124q49 0 78 33v192q-35 19 -73 19q-46 0 -77 -29.5t-31 -91.5q0 -57 27.5 -90t75.5 -33z" />
    <glyph glyph-name="aring" unicode="&#xe5;" horiz-adv-x="628" 
d="M307 536q-52 0 -88.5 32.5t-36.5 79.5q0 46 36.5 79t88.5 33q51 0 88 -33t37 -79q0 -47 -36.5 -79.5t-88.5 -32.5zM307 687q-17 0 -28.5 -11t-11.5 -28q0 -18 11 -28.5t29 -10.5q17 0 28.5 10.5t11.5 28.5q0 16 -11.5 27.5t-28.5 11.5zM464 475l104 25v-500h-170v61
q-60 -78 -153 -78q-91 0 -154.5 67t-63.5 170q0 120 85.5 200.5t203.5 80.5q66 0 148 -26zM313 124q49 0 78 33v192q-35 19 -73 19q-46 0 -77 -29.5t-31 -91.5q0 -57 27.5 -90t75.5 -33z" />
    <glyph glyph-name="ae" unicode="&#xe6;" horiz-adv-x="915" 
d="M829 152l58 -87q-104 -87 -248 -87q-134 0 -208 85q-81 -78 -208 -78q-87 0 -144 44.5t-57 115.5q0 73 54 119.5t138 46.5q82 0 159 -37v33q0 29 -19.5 43.5t-66.5 14.5q-89 0 -192 -25l-24 124q128 40 228 40q123 0 176 -61q66 60 174 60q101 0 166 -61t65 -157
q0 -54 -17 -93h-333q32 -79 148 -79q69 0 151 39zM638 383q-36 0 -67.5 -19t-44.5 -56h201q-5 35 -28.5 55t-60.5 20zM263 106q61 0 118 62q-60 38 -119 38q-31 0 -49 -13t-18 -37q0 -23 19.5 -36.5t48.5 -13.5z" />
    <glyph glyph-name="ccedilla" unicode="&#xe7;" horiz-adv-x="528" 
d="M355 -35q99 0 99 -75q0 -47 -41 -73.5t-107 -26.5q-73 0 -122 22l25 74q44 -17 96 -17q48 0 48 15q0 14 -56 14q-31 0 -43 -4l-30 33l23 54q-101 14 -160.5 81t-59.5 166q0 120 82 197.5t202 77.5q83 0 167 -37v-150q-66 47 -143 47q-57 0 -92 -31.5t-35 -83.5
q0 -57 33 -89.5t91 -32.5q64 0 127 38l64 -98q-74 -71 -190 -86l-7 -15h29z" />
    <glyph glyph-name="egrave" unicode="&#xe8;" horiz-adv-x="593" 
d="M451 610l-66 -83l-237 145l93 116zM507 152l58 -87q-104 -87 -248 -87q-130 0 -210 69t-80 183q0 116 83 194.5t207 78.5q108 0 174.5 -60.5t66.5 -158.5q0 -53 -17 -92h-333q33 -79 149 -79q68 0 150 39zM316 383q-36 0 -67.5 -19t-44.5 -56h201q-5 35 -28.5 55
t-60.5 20z" />
    <glyph glyph-name="eacute" unicode="&#xe9;" horiz-adv-x="593" 
d="M482 672l-238 -145l-65 83l209 178zM507 152l58 -87q-104 -87 -248 -87q-130 0 -210 69t-80 183q0 116 83 194.5t207 78.5q108 0 174.5 -60.5t66.5 -158.5q0 -53 -17 -92h-333q33 -79 149 -79q68 0 150 39zM316 383q-36 0 -67.5 -19t-44.5 -56h201q-5 35 -28.5 55
t-60.5 20z" />
    <glyph glyph-name="ecircumflex" unicode="&#xea;" horiz-adv-x="593" 
d="M315 621l-127 -94l-69 81l142 150h109l141 -149l-70 -82zM507 152l58 -87q-104 -87 -248 -87q-130 0 -210 69t-80 183q0 116 83 194.5t207 78.5q108 0 174.5 -60.5t66.5 -158.5q0 -53 -17 -92h-333q33 -79 149 -79q68 0 150 39zM316 383q-36 0 -67.5 -19t-44.5 -56h201
q-5 35 -28.5 55t-60.5 20z" />
    <glyph glyph-name="edieresis" unicode="&#xeb;" horiz-adv-x="593" 
d="M201 552q-34 0 -59 25t-25 59q0 36 25 61.5t59 25.5q36 0 61.5 -25.5t25.5 -61.5q0 -35 -25.5 -59.5t-61.5 -24.5zM427 552q-35 0 -60 24.5t-25 59.5q0 36 25 61.5t60 25.5q36 0 61 -25.5t25 -61.5q0 -35 -25 -59.5t-61 -24.5zM507 152l58 -87q-104 -87 -248 -87
q-130 0 -210 69t-80 183q0 116 83 194.5t207 78.5q108 0 174.5 -60.5t66.5 -158.5q0 -53 -17 -92h-333q33 -79 149 -79q68 0 150 39zM316 383q-36 0 -67.5 -19t-44.5 -56h201q-5 35 -28.5 55t-60.5 20z" />
    <glyph glyph-name="igrave" unicode="&#xec;" horiz-adv-x="294" 
d="M217 527l-237 145l93 116l210 -178zM58 0v465l176 35v-500h-176z" />
    <glyph glyph-name="iacute" unicode="&#xed;" horiz-adv-x="294" 
d="M76 527l-65 83l209 178l94 -116zM58 0v465l176 35v-500h-176z" />
    <glyph glyph-name="icircumflex" unicode="&#xee;" horiz-adv-x="294" 
d="M202 758l141 -149l-70 -82l-126 94l-127 -94l-69 81l142 150h109zM58 0v465l176 35v-500h-176z" />
    <glyph glyph-name="idieresis" unicode="&#xef;" horiz-adv-x="294" 
d="M32 552q-34 0 -59 25t-25 59q0 36 25 61.5t59 25.5q36 0 61.5 -25.5t25.5 -61.5q0 -35 -25.5 -59.5t-61.5 -24.5zM258 552q-35 0 -60 24.5t-25 59.5q0 36 25 61.5t60 25.5q36 0 61 -25.5t25 -61.5q0 -35 -25 -59.5t-61 -24.5zM58 0v465l176 35v-500h-176z" />
    <glyph glyph-name="eth" unicode="&#xf0;" horiz-adv-x="626" 
d="M472 598q122 -114 122 -284q0 -152 -85.5 -244t-221.5 -92q-119 0 -190 68t-71 170q0 93 63.5 155.5t160.5 62.5q44 0 91.5 -18t74.5 -51q-10 100 -65 155l-112 -73l-62 93l61 40q-55 13 -114 16v125q135 5 248 -54l107 70l63 -93zM311 131q39 0 65 26.5t37 75.5
q-21 37 -55.5 54t-67.5 17q-34 0 -59.5 -19t-25.5 -58q0 -44 29.5 -70t76.5 -26z" />
    <glyph glyph-name="ntilde" unicode="&#xf1;" horiz-adv-x="634" 
d="M290 622q-38 0 -54 -44l-87 35q25 124 116 124q34 0 83.5 -19.5t65.5 -19.5q22 0 33 11t20 33l87 -35q-25 -124 -116 -124q-33 0 -82.5 19.5t-65.5 19.5zM398 499q80 0 131 -54.5t51 -153.5v-291h-176v235q0 117 -77 117q-52 0 -92 -45v-307h-177v465l170 35v-74
q65 73 170 73z" />
    <glyph glyph-name="ograve" unicode="&#xf2;" horiz-adv-x="628" 
d="M388 527l-237 145l93 116l210 -178zM309 -22q-121 0 -202 73t-81 181q0 116 83.5 193.5t209.5 77.5q121 0 202 -73.5t81 -181.5q0 -115 -83.5 -192.5t-209.5 -77.5zM319 109q49 0 75.5 32.5t26.5 90.5q0 66 -30 103.5t-82 37.5q-49 0 -75.5 -33t-26.5 -92q0 -65 30 -102
t82 -37z" />
    <glyph glyph-name="oacute" unicode="&#xf3;" horiz-adv-x="628" 
d="M247 527l-65 83l209 178l94 -116zM309 -22q-121 0 -202 73t-81 181q0 116 83.5 193.5t209.5 77.5q121 0 202 -73.5t81 -181.5q0 -115 -83.5 -192.5t-209.5 -77.5zM319 109q49 0 75.5 32.5t26.5 90.5q0 66 -30 103.5t-82 37.5q-49 0 -75.5 -33t-26.5 -92q0 -65 30 -102
t82 -37z" />
    <glyph glyph-name="ocircumflex" unicode="&#xf4;" horiz-adv-x="628" 
d="M318 621l-127 -94l-69 81l142 150h109l141 -149l-70 -82zM319 503q121 0 202 -73.5t81 -181.5q0 -115 -83.5 -192.5t-209.5 -77.5q-121 0 -202 73t-81 181q0 116 83.5 193.5t209.5 77.5zM319 109q49 0 75.5 32.5t26.5 90.5q0 66 -30 103.5t-82 37.5q-49 0 -75.5 -33
t-26.5 -92q0 -65 30 -102t82 -37z" />
    <glyph glyph-name="otilde" unicode="&#xf5;" horiz-adv-x="628" 
d="M200 578l-87 35q25 124 116 124q34 0 83.5 -19.5t65.5 -19.5q22 0 33 11t20 33l87 -35q-25 -124 -116 -124q-33 0 -82.5 19.5t-65.5 19.5q-38 0 -54 -44zM309 -22q-121 0 -202 73t-81 181q0 116 83.5 193.5t209.5 77.5q121 0 202 -73.5t81 -181.5q0 -115 -83.5 -192.5
t-209.5 -77.5zM319 109q49 0 75.5 32.5t26.5 90.5q0 66 -30 103.5t-82 37.5q-49 0 -75.5 -33t-26.5 -92q0 -65 30 -102t82 -37z" />
    <glyph glyph-name="odieresis" unicode="&#xf6;" horiz-adv-x="628" 
d="M204 552q-34 0 -59 25t-25 59q0 36 25 61.5t59 25.5q36 0 61.5 -25.5t25.5 -61.5q0 -35 -25.5 -59.5t-61.5 -24.5zM430 552q-35 0 -60 24.5t-25 59.5q0 36 25 61.5t60 25.5q36 0 61 -25.5t25 -61.5q0 -35 -25 -59.5t-61 -24.5zM309 -22q-121 0 -202 73t-81 181
q0 116 83.5 193.5t209.5 77.5q121 0 202 -73.5t81 -181.5q0 -115 -83.5 -192.5t-209.5 -77.5zM319 109q49 0 75.5 32.5t26.5 90.5q0 66 -30 103.5t-82 37.5q-49 0 -75.5 -33t-26.5 -92q0 -65 30 -102t82 -37z" />
    <glyph glyph-name="divide" unicode="&#xf7;" 
d="M305 408q-38 0 -64 24.5t-26 59.5q0 36 26 60.5t64 24.5t64 -24.5t26 -60.5q0 -35 -26 -59.5t-64 -24.5zM54 218v164h502v-164h-502zM305 19q-38 0 -64 24.5t-26 60.5q0 35 26 59.5t64 24.5t64 -24.5t26 -59.5q0 -36 -26 -60.5t-64 -24.5z" />
    <glyph glyph-name="oslash" unicode="&#xf8;" horiz-adv-x="628" 
d="M558 387q44 -63 44 -139q0 -115 -83.5 -192.5t-209.5 -77.5q-74 0 -137 30l-44 -46l-98 92l40 39q-44 61 -44 139q0 116 83.5 193.5t209.5 77.5q74 0 137 -30l45 46l98 -92zM309 379q-53 0 -83 -34.5t-30 -96.5q0 -26 4 -45l166 163q-25 13 -57 13zM319 102q53 0 83 34
t30 96q0 24 -4 43l-165 -161q25 -12 56 -12z" />
    <glyph glyph-name="ugrave" unicode="&#xf9;" horiz-adv-x="628" 
d="M433 610l-66 -83l-237 145l93 116zM391 465l177 35v-500h-170v57q-66 -72 -168 -72q-79 0 -130 54.5t-51 153.5v272l177 35v-251q0 -118 75 -118q50 0 90 42v292z" />
    <glyph glyph-name="uacute" unicode="&#xfa;" horiz-adv-x="628" 
d="M464 672l-238 -145l-65 83l209 178zM391 465l177 35v-500h-170v57q-66 -72 -168 -72q-79 0 -130 54.5t-51 153.5v272l177 35v-251q0 -118 75 -118q50 0 90 42v292z" />
    <glyph glyph-name="ucircumflex" unicode="&#xfb;" horiz-adv-x="628" 
d="M297 621l-127 -94l-69 81l142 150h109l141 -149l-70 -82zM391 465l177 35v-500h-170v57q-66 -72 -168 -72q-79 0 -130 54.5t-51 153.5v272l177 35v-251q0 -118 75 -118q50 0 90 42v292z" />
    <glyph glyph-name="udieresis" unicode="&#xfc;" horiz-adv-x="628" 
d="M183 552q-34 0 -59 25t-25 59q0 36 25 61.5t59 25.5q36 0 61.5 -25.5t25.5 -61.5q0 -35 -25.5 -59.5t-61.5 -24.5zM409 552q-35 0 -60 24.5t-25 59.5q0 36 25 61.5t60 25.5q36 0 61 -25.5t25 -61.5q0 -35 -25 -59.5t-61 -24.5zM391 465l177 35v-500h-170v57
q-66 -72 -168 -72q-79 0 -130 54.5t-51 153.5v272l177 35v-251q0 -118 75 -118q50 0 90 42v292z" />
    <glyph glyph-name="yacute" unicode="&#xfd;" horiz-adv-x="559" 
d="M453 672l-238 -145l-65 83l209 178zM392 482h173l-284 -682h-172l93 200h-1l-208 482h189l106 -283z" />
    <glyph glyph-name="thorn" unicode="&#xfe;" horiz-adv-x="631" 
d="M383 505q89 0 155 -70t66 -185q0 -121 -81 -196.5t-213 -75.5q-37 0 -73 7v-185h-177v874l177 36v-260q67 55 146 55zM322 113q99 0 99 108q0 67 -30.5 104.5t-89.5 37.5q-36 0 -64 -20v-200q39 -30 85 -30z" />
    <glyph glyph-name="ydieresis" unicode="&#xff;" horiz-adv-x="559" 
d="M172 552q-34 0 -59 25t-25 59q0 36 25 61.5t59 25.5q36 0 61.5 -25.5t25.5 -61.5q0 -35 -25.5 -59.5t-61.5 -24.5zM398 552q-35 0 -60 24.5t-25 59.5q0 36 25 61.5t60 25.5q36 0 61 -25.5t25 -61.5q0 -35 -25 -59.5t-61 -24.5zM392 482h173l-284 -682h-172l93 200h-1
l-208 482h189l106 -283z" />
    <glyph glyph-name="dotlessi" unicode="&#x131;" horiz-adv-x="294" 
d="M58 0v465l176 35v-500h-176z" />
    <glyph glyph-name="Lslash" unicode="&#x141;" horiz-adv-x="641" 
d="M304 149h322v-149h-505v198l-60 -26l-58 137l118 50v299h183v-221l126 54l59 -137l-185 -79v-126z" />
    <glyph glyph-name="lslash" unicode="&#x142;" horiz-adv-x="459" 
d="M462 343l-139 -62v-281h-177v203l-75 -33l-57 141l132 57v306l177 36v-265l77 34z" />
    <glyph glyph-name="OE" unicode="&#x152;" horiz-adv-x="1090" 
d="M1047 143v-144l-514 1q-66 -22 -133 -22q-153 0 -258 92t-105 248q0 159 108 260.5t269 101.5q72 0 136 -23h484v-143h-331v-112h276v-143h-276v-116h344zM229 337q0 -91 51.5 -150.5t133.5 -59.5q60 0 106 28v342q-50 34 -121 34q-77 0 -123.5 -53.5t-46.5 -140.5z" />
    <glyph glyph-name="oe" unicode="&#x153;" horiz-adv-x="966" 
d="M880 152l57 -87q-98 -87 -238 -87q-123 0 -193 78q-75 -77 -203 -77q-118 0 -197 68.5t-79 184.5q0 120 82 195.5t209 75.5q115 0 189 -85q74 85 189 85q105 0 170 -61.5t65 -156.5q0 -54 -17 -93h-313q35 -79 138 -79q67 0 141 39zM698 383q-33 0 -61.5 -19t-41.5 -56
h183q-5 35 -25.5 55t-54.5 20zM317 110q41 0 70.5 31t29.5 91q0 62 -32 101t-77 39q-40 0 -70 -31.5t-30 -92.5q0 -62 32 -100t77 -38z" />
    <glyph glyph-name="Scaron" unicode="&#x160;" horiz-adv-x="662" 
d="M376 747h-109l-141 149l70 82l126 -94l127 94l69 -81zM387 407q39 -8 63.5 -14.5t62.5 -22.5t60 -36t39 -54t17 -77q0 -101 -78 -163t-205 -62q-82 0 -169 25.5t-149 64.5l51 128q154 -69 271 -69q97 0 97 51q0 24 -26.5 33.5t-104.5 21.5q-9 1 -14 2q-124 20 -188 70
t-64 139q0 104 82 170t209 66q60 0 129.5 -15t117.5 -39v-166q-113 71 -235 71q-57 0 -89.5 -16t-32.5 -45q0 -9 3.5 -16t11 -12.5t16 -9t24 -7t28 -5.5t35 -6t38.5 -7z" />
    <glyph glyph-name="scaron" unicode="&#x161;" horiz-adv-x="548" 
d="M342 551h-109l-141 149l70 82l126 -94l127 94l69 -81zM285 317q33 -4 53.5 -7.5t52.5 -11.5t51.5 -19t40 -28t30 -41.5t9.5 -56.5q0 -81 -63.5 -128t-175.5 -47q-72 0 -142.5 20t-119.5 48l44 104q103 -49 214 -49q81 0 81 32q0 6 -2 10t-7 7t-10 4.5t-15.5 3t-18.5 2.5
t-23 2.5t-27 2.5q-104 13 -162.5 48t-58.5 111q0 85 64 132t179 47q107 0 202 -38v-131q-37 22 -93 35.5t-107 13.5q-84 0 -84 -34q0 -15 15.5 -20t55.5 -10q3 0 5 -0.5t5.5 -1t6.5 -0.5z" />
    <glyph glyph-name="Ydieresis" unicode="&#x178;" horiz-adv-x="672" 
d="M231 728q-34 0 -59 25t-25 59q0 36 25 61.5t59 25.5q36 0 61.5 -25.5t25.5 -61.5q0 -35 -25.5 -59.5t-61.5 -24.5zM457 728q-35 0 -60 24.5t-25 59.5q0 36 25 61.5t60 25.5q36 0 61 -25.5t25 -61.5q0 -35 -25 -59.5t-61 -24.5zM494 658h186l-252 -404v-254h-184v254
l-252 404h204l149 -261z" />
    <glyph glyph-name="Zcaron" unicode="&#x17d;" horiz-adv-x="664" 
d="M384 727h-109l-141 149l70 82l126 -94l127 94l69 -81zM280 144h342v-144h-578v138l337 376h-327v144h558v-133z" />
    <glyph glyph-name="zcaron" unicode="&#x17e;" horiz-adv-x="555" 
d="M331 551h-109l-141 149l70 82l126 -94l127 94l69 -81zM277 135h242v-135h-483v129l231 217h-223v136h467v-129z" />
    <glyph glyph-name="florin" unicode="&#x192;" 
d="M473 574q-33 0 -58 -19.5t-31 -54.5l-3 -17h175v-151h-197l-57 -337q-18 -109 -79.5 -164.5t-177.5 -55.5q-39 0 -90 8.5t-75 21.5l37 135q68 -17 120 -17q34 0 58 19t31 55l58 335h-100v151h123l2 18q29 220 256 220q40 0 91 -8.5t75 -21.5l-37 -135q-72 18 -121 18z
" />
    <glyph glyph-name="circumflex" unicode="&#x2c6;" horiz-adv-x="477" 
d="M434 609l-70 -82l-126 94l-127 -94l-69 81l142 150h109z" />
    <glyph glyph-name="caron" unicode="&#x2c7;" horiz-adv-x="477" 
d="M365 782l69 -81l-142 -150h-109l-141 149l70 82l126 -94z" />
    <glyph glyph-name="breve" unicode="&#x2d8;" horiz-adv-x="474" 
d="M236 549q-83 0 -132 51.5t-56 153.5h134q8 -89 63 -89q61 0 69 89h113q-7 -100 -59 -152.5t-132 -52.5z" />
    <glyph glyph-name="dotaccent" unicode="&#x2d9;" horiz-adv-x="417" 
d="M209 550q-45 0 -77 30.5t-32 75.5q0 44 32 75t77 31q44 0 76 -31.5t32 -74.5q0 -45 -31.5 -75.5t-76.5 -30.5z" />
    <glyph glyph-name="ring" unicode="&#x2da;" horiz-adv-x="261" 
d="M255 648q0 -47 -36.5 -79.5t-88.5 -32.5t-88.5 32.5t-36.5 79.5q0 46 36.5 79t88.5 33q51 0 88 -33t37 -79zM130 609q17 0 28.5 10.5t11.5 28.5q0 16 -11.5 27.5t-28.5 11.5t-28.5 -11t-11.5 -28q0 -18 11 -28.5t29 -10.5z" />
    <glyph glyph-name="ogonek" unicode="&#x2db;" horiz-adv-x="406" 
d="M228 -202q-69 0 -106 27t-37 70q0 53 57 91.5t159 53.5l38 -61q-116 -19 -116 -54q0 -12 12 -19.5t31 -7.5q32 0 62 19l41 -82q-57 -37 -141 -37z" />
    <glyph glyph-name="tilde" unicode="&#x2dc;" horiz-adv-x="471" 
d="M119 578l-87 35q25 124 116 124q34 0 83.5 -19.5t65.5 -19.5q22 0 33 11t20 33l87 -35q-25 -124 -116 -124q-33 0 -82.5 19.5t-65.5 19.5q-37 0 -54 -44z" />
    <glyph glyph-name="hungarumlaut" unicode="&#x2dd;" horiz-adv-x="566" 
d="M109 504l-77 72l163 216l115 -106zM340 504l-77 72l163 215l115 -103z" />
    <glyph glyph-name="uni0394" unicode="&#x394;" horiz-adv-x="639" 
d="M412 658l226 -658h-637l226 658h185zM214 149h193l-96 291z" />
    <glyph glyph-name="uni03A9" unicode="&#x3a9;" horiz-adv-x="719" 
d="M570 153h93v-153h-272v121q65 122 65 234q0 80 -26 128t-72 48q-44 0 -69.5 -45t-25.5 -126q0 -125 65 -239v-121h-272v153h92q-77 77 -77 213q0 83 30.5 152.5t98.5 115.5t165 46q94 0 160 -43.5t95 -109.5t29 -147q0 -146 -79 -227z" />
    <glyph glyph-name="pi" unicode="&#x3c0;" horiz-adv-x="640" 
d="M605 326h-75v-66q0 -73 7.5 -123t33.5 -137h-183q-34 92 -34 287v39l-69 1v-327h-176v327h-72v156l568 -1v-156z" />
    <glyph glyph-name="endash" unicode="&#x2013;" horiz-adv-x="677" 
d="M54 178v150h569v-150h-569z" />
    <glyph glyph-name="emdash" unicode="&#x2014;" horiz-adv-x="907" 
d="M54 178v150h799v-150h-799z" />
    <glyph glyph-name="quoteleft" unicode="&#x2018;" horiz-adv-x="290" 
d="M153 672l109 -64q-44 -84 -44 -204v-72h-172v75q0 158 107 265z" />
    <glyph glyph-name="quoteright" unicode="&#x2019;" horiz-adv-x="276" 
d="M135 319l-109 64q44 84 44 204v72h172v-75q0 -158 -107 -265z" />
    <glyph glyph-name="quotesinglbase" unicode="&#x201a;" horiz-adv-x="284" 
d="M123 -157l-109 64q44 84 44 204v72h172v-75q0 -158 -107 -265z" />
    <glyph glyph-name="quotedblleft" unicode="&#x201c;" horiz-adv-x="527" 
d="M153 672l109 -64q-44 -84 -44 -204v-72h-172v75q0 158 107 265zM390 672l109 -64q-44 -84 -44 -204v-72h-172v75q0 158 107 265z" />
    <glyph glyph-name="quotedblright" unicode="&#x201d;" horiz-adv-x="513" 
d="M135 319l-109 64q44 84 44 204v72h172v-75q0 -158 -107 -265zM372 319l-109 64q44 84 44 204v72h172v-75q0 -158 -107 -265z" />
    <glyph glyph-name="quotedblbase" unicode="&#x201e;" horiz-adv-x="519" 
d="M123 -157l-109 64q44 84 44 204v72h172v-75q0 -158 -107 -265zM358 -157l-109 64q44 84 44 204v72h172v-75q0 -158 -107 -265z" />
    <glyph glyph-name="dagger" unicode="&#x2020;" 
d="M375 710v-204h174v-129h-174v-513h-140v513h-174v129h174v204h140z" />
    <glyph glyph-name="daggerdbl" unicode="&#x2021;" 
d="M549 377h-174v-183h174v-128h-174v-202h-140v202h-174v128h174v183h-174v129h174v204h140v-204h174v-129z" />
    <glyph glyph-name="bullet" unicode="&#x2022;" horiz-adv-x="483" 
d="M242 72q-76 0 -130.5 54.5t-54.5 130.5t54.5 131t130.5 55t130 -54.5t54 -131.5q0 -76 -54 -130.5t-130 -54.5z" />
    <glyph glyph-name="ellipsis" unicode="&#x2026;" horiz-adv-x="975" 
d="M142 -8q-45 0 -76 30t-31 74q0 43 31.5 74t75.5 31q43 0 74.5 -31t31.5 -74q0 -44 -31 -74t-75 -30zM487 -8q-44 0 -75 30t-31 74q0 43 31.5 74t74.5 31q44 0 75.5 -31t31.5 -74q0 -44 -31 -74t-76 -30zM833 -8q-45 0 -76 30t-31 74q0 43 31.5 74t75.5 31t75 -31t31 -74
q0 -44 -31 -74t-75 -30z" />
    <glyph glyph-name="perthousand" unicode="&#x2030;" horiz-adv-x="1221" 
d="M194 297q-73 0 -118.5 51t-45.5 136q0 89 47 142.5t121 53.5t119 -51t45 -136q0 -89 -46.5 -142.5t-121.5 -53.5zM85 0l534 658h147l-535 -658h-146zM198 398q36 0 36 82q0 46 -11 72.5t-30 26.5q-35 0 -35 -82q0 -47 11 -73t29 -26zM653 -22q-73 0 -118.5 51t-45.5 136
q0 89 47 142.5t121 53.5t119 -51t45 -136q0 -89 -46 -142.5t-122 -53.5zM1025 -22q-73 0 -118.5 51t-45.5 136q0 89 47 142.5t121 53.5t119 -51t45 -136q0 -89 -46 -142.5t-122 -53.5zM658 79q35 0 35 82q0 99 -40 99q-35 0 -35 -82q0 -99 40 -99zM1030 79q35 0 35 82
q0 99 -40 99q-35 0 -35 -82q0 -99 40 -99z" />
    <glyph glyph-name="guilsinglleft" unicode="&#x2039;" horiz-adv-x="380" 
d="M350 377l-169 -139l169 -138l-77 -92l-247 200v61l247 199z" />
    <glyph glyph-name="guilsinglright" unicode="&#x203a;" horiz-adv-x="380" 
d="M107 468l247 -199v-61l-247 -200l-77 92l169 138l-169 139z" />
    <glyph glyph-name="fraction" unicode="&#x2044;" horiz-adv-x="616" 
d="M-31 0l534 658h146l-535 -658h-145z" />
    <glyph glyph-name="uni2074" unicode="&#x2074;" horiz-adv-x="467" 
d="M428 397v-105h-57v-62h-135v62h-201v104l216 268h120v-267h57zM238 397l5 106l-85 -106h80z" />
    <glyph glyph-name="Euro" unicode="&#x20ac;" 
d="M536 192l74 -106q-46 -48 -111.5 -78t-138.5 -30q-104 0 -177.5 61.5t-100.5 167.5h-70v101h58v6q0 19 1 29h-59v100h76q31 107 107.5 171.5t178.5 64.5q94 0 175 -49v-168q-80 64 -160 64t-109 -83h193v-100h-208v-11q0 -16 1 -24h169v-101h-149q32 -68 108 -68
q75 0 142 53z" />
    <glyph glyph-name="trademark" unicode="&#x2122;" horiz-adv-x="800" 
d="M30 573v85h313v-85h-104v-253h-104v253h-105zM639 658h93v-338h-103v170l-42 -64h-53l-50 66v-172h-95v338h95l83 -113z" />
    <glyph glyph-name="partialdiff" unicode="&#x2202;" 
d="M295 674q128 0 207.5 -87.5t79.5 -237.5q0 -173 -88 -268.5t-229 -95.5q-110 0 -174 62t-64 160q0 112 69.5 171t170.5 59q80 0 131 -49q-16 144 -140 144q-55 0 -113 -18l-32 125q84 35 182 35zM277 134q97 0 117 133q-38 36 -81 36q-47 0 -77 -29.5t-30 -71.5
q0 -31 18.5 -49.5t52.5 -18.5z" />
    <glyph glyph-name="product" unicode="&#x220f;" 
d="M613 658v-165h-75v-597h-176v597h-114v-597h-176v597h-75v165h616z" />
    <glyph glyph-name="summation" unicode="&#x2211;" 
d="M248 48h325v-153h-527v137l177 236l-162 243v147h499v-144h-292l159 -232z" />
    <glyph glyph-name="minus" unicode="&#x2212;" 
d="M54 218v164h502v-164h-502z" />
    <glyph glyph-name="radical" unicode="&#x221a;" 
d="M478 658h155l-218 -658h-197l-87 325l-34 -101l-104 25l50 195h229l59 -266z" />
    <glyph glyph-name="infinity" unicode="&#x221e;" 
d="M452 531q69 0 107.5 -55t38.5 -150q0 -87 -44.5 -146.5t-117.5 -59.5q-94 0 -146 96q-41 -96 -133 -96q-68 0 -106.5 54.5t-38.5 149.5q0 88 44.5 147.5t117.5 59.5q94 0 146 -97q19 46 53.5 71.5t78.5 25.5zM200 258q33 0 55 44q-25 91 -69 91q-16 0 -24 -20t-8 -42
q0 -29 11 -51t35 -22zM424 258q16 0 24 20t8 41q0 29 -11 51.5t-35 22.5q-34 0 -55 -44q24 -91 69 -91z" />
    <glyph glyph-name="integral" unicode="&#x222b;" 
d="M439 720q87 0 155 -29l-32 -136q-67 19 -113 19q-26 0 -43.5 -19.5t-16.5 -55.5l16 -487q4 -108 -55.5 -164.5t-178.5 -56.5q-87 0 -155 29l32 136q67 -19 113 -19q26 0 44 19.5t17 55.5l-17 487q-4 108 55.5 164.5t178.5 56.5z" />
    <glyph glyph-name="approxequal" unicode="&#x2248;" 
d="M421 250q-42 0 -117 33.5t-101 33.5q-28 0 -45.5 -15t-28.5 -52l-96 49q8 62 48 106.5t106 44.5q44 0 119 -33.5t100 -33.5q29 0 46 14.5t28 52.5l96 -49q-8 -62 -48 -106.5t-107 -44.5zM421 25q-42 0 -117 33.5t-101 33.5q-28 0 -45.5 -15t-28.5 -52l-96 49
q8 62 48 106.5t106 44.5q44 0 119 -33.5t100 -33.5q29 0 46 14.5t28 52.5l96 -49q-8 -62 -48 -106.5t-107 -44.5z" />
    <glyph glyph-name="notequal" unicode="&#x2260;" 
d="M548 341h-147l-37 -82h184v-159h-256l-47 -103h-160l47 103h-70v159h142l37 82h-179v158h251l49 109h160l-49 -109h75v-158z" />
    <glyph glyph-name="lessequal" unicode="&#x2264;" 
d="M524 582v-154l-270 -63l270 -63v-154l-447 151v132zM69 -7v141h452v-141h-452z" />
    <glyph glyph-name="greaterequal" unicode="&#x2265;" 
d="M533 431v-132l-447 -151v154l270 63l-270 63v154zM89 134h452v-141h-452v141z" />
    <glyph glyph-name="lozenge" unicode="&#x25ca;" 
d="M326 680l261 -351l-261 -351h-42l-261 351l261 351h42zM305 486l-108 -157l108 -157l108 157z" />
    <glyph glyph-name="NULL" horiz-adv-x="0" 
 />
    <glyph glyph-name="a.ss01" horiz-adv-x="609" 
d="M306 504q129 0 188.5 -50t59.5 -150v-304h-169v42q-73 -57 -166 -57q-83 0 -140.5 44.5t-57.5 115.5q0 73 55.5 119.5t142.5 46.5q80 0 163 -37v33q0 29 -20 43.5t-69 14.5q-93 0 -197 -25l-24 124q130 40 234 40zM267 106q64 0 122 62q-62 38 -124 38q-33 0 -51.5 -13
t-18.5 -37q0 -23 20.5 -36.5t51.5 -13.5z" />
    <glyph glyph-name="aacute.ss01" horiz-adv-x="609" 
d="M466 672l-238 -145l-65 83l209 178zM306 504q129 0 188.5 -50t59.5 -150v-304h-169v42q-73 -57 -166 -57q-83 0 -140.5 44.5t-57.5 115.5q0 73 55.5 119.5t142.5 46.5q80 0 163 -37v33q0 29 -20 43.5t-69 14.5q-93 0 -197 -25l-24 124q130 40 234 40zM267 106
q64 0 122 62q-62 38 -124 38q-33 0 -51.5 -13t-18.5 -37q0 -23 20.5 -36.5t51.5 -13.5z" />
    <glyph glyph-name="acircumflex.ss01" horiz-adv-x="609" 
d="M299 621l-127 -94l-69 81l142 150h109l141 -149l-70 -82zM306 504q129 0 188.5 -50t59.5 -150v-304h-169v42q-73 -57 -166 -57q-83 0 -140.5 44.5t-57.5 115.5q0 73 55.5 119.5t142.5 46.5q80 0 163 -37v33q0 29 -20 43.5t-69 14.5q-93 0 -197 -25l-24 124q130 40 234 40
zM267 106q64 0 122 62q-62 38 -124 38q-33 0 -51.5 -13t-18.5 -37q0 -23 20.5 -36.5t51.5 -13.5z" />
    <glyph glyph-name="adieresis.ss01" horiz-adv-x="609" 
d="M185 552q-34 0 -59 25t-25 59q0 36 25 61.5t59 25.5q36 0 61.5 -25.5t25.5 -61.5q0 -35 -25.5 -59.5t-61.5 -24.5zM411 552q-35 0 -60 24.5t-25 59.5q0 36 25 61.5t60 25.5q36 0 61 -25.5t25 -61.5q0 -35 -25 -59.5t-61 -24.5zM306 504q129 0 188.5 -50t59.5 -150v-304
h-169v42q-73 -57 -166 -57q-83 0 -140.5 44.5t-57.5 115.5q0 73 55.5 119.5t142.5 46.5q80 0 163 -37v33q0 29 -20 43.5t-69 14.5q-93 0 -197 -25l-24 124q130 40 234 40zM267 106q64 0 122 62q-62 38 -124 38q-33 0 -51.5 -13t-18.5 -37q0 -23 20.5 -36.5t51.5 -13.5z" />
    <glyph glyph-name="agrave.ss01" horiz-adv-x="609" 
d="M435 610l-66 -83l-237 145l93 116zM306 504q129 0 188.5 -50t59.5 -150v-304h-169v42q-73 -57 -166 -57q-83 0 -140.5 44.5t-57.5 115.5q0 73 55.5 119.5t142.5 46.5q80 0 163 -37v33q0 29 -20 43.5t-69 14.5q-93 0 -197 -25l-24 124q130 40 234 40zM267 106q64 0 122 62
q-62 38 -124 38q-33 0 -51.5 -13t-18.5 -37q0 -23 20.5 -36.5t51.5 -13.5z" />
    <glyph glyph-name="aring.ss01" horiz-adv-x="609" 
d="M299 536q-52 0 -88.5 32.5t-36.5 79.5q0 46 36.5 79t88.5 33q51 0 88 -33t37 -79q0 -47 -36.5 -79.5t-88.5 -32.5zM299 687q-17 0 -28.5 -11t-11.5 -28q0 -18 11 -28.5t29 -10.5q17 0 28.5 10.5t11.5 28.5q0 16 -11.5 27.5t-28.5 11.5zM306 504q129 0 188.5 -50
t59.5 -150v-304h-169v42q-73 -57 -166 -57q-83 0 -140.5 44.5t-57.5 115.5q0 73 55.5 119.5t142.5 46.5q80 0 163 -37v33q0 29 -20 43.5t-69 14.5q-93 0 -197 -25l-24 124q130 40 234 40zM267 106q64 0 122 62q-62 38 -124 38q-33 0 -51.5 -13t-18.5 -37q0 -23 20.5 -36.5
t51.5 -13.5z" />
    <glyph glyph-name="atilde.ss01" horiz-adv-x="609" 
d="M235 622q-37 0 -54 -44l-87 35q25 124 116 124q34 0 83.5 -19.5t65.5 -19.5q22 0 33 11t20 33l87 -35q-25 -124 -116 -124q-33 0 -82.5 19.5t-65.5 19.5zM306 504q129 0 188.5 -50t59.5 -150v-304h-169v42q-73 -57 -166 -57q-83 0 -140.5 44.5t-57.5 115.5
q0 73 55.5 119.5t142.5 46.5q80 0 163 -37v33q0 29 -20 43.5t-69 14.5q-93 0 -197 -25l-24 124q130 40 234 40zM267 106q64 0 122 62q-62 38 -124 38q-33 0 -51.5 -13t-18.5 -37q0 -23 20.5 -36.5t51.5 -13.5z" />
    <glyph glyph-name="caron.ss01" horiz-adv-x="254" 
d="M70 573q-1 19 -0.5 37.5t0 41t-2.5 36.5q-4 31 16.5 53t59.5 22q38 0 55.5 -17t17.5 -44q0 -23 -12.5 -63.5t-23.5 -64.5q-23 -51 -60 -51q-24 0 -37 14.5t-13 35.5z" />
    </font>
</defs>
</svg>
